<svg width="1440" height="761" viewBox="0 0 1440 761" fill="none" xmlns="http://www.w3.org/2000/svg">
<path fill-rule="evenodd" clip-rule="evenodd" d="M-558.498 504.627L-527.127 503.914C-495.756 503.202 -42.096 501.384 32.4144 539.535C108.244 577.295 188.58 612.564 245.581 587C301.263 561.828 327.666 475.823 373.934 418.99C420.201 362.156 488.97 376.17 556.42 390.575C625.188 404.588 692.637 418.994 761.406 433.007C828.856 447.412 897.625 461.425 946.246 412.507C994.867 363.589 984.465 250.756 1042.5 233.5C1101.86 215.851 1167 292 1232 282C1290.04 264.744 1330.5 280 1408 151.5C1485.5 22.9997 2007.5 1.99964 2007.5 1.99964L1999.5 760.501L1954.5 760.501L1375.41 760.501L1215.41 760.501L1057.91 760.501L876.414 760.501L743.915 760.501L605.414 760.501L373.934 760.5L110.414 760.5L-15.9307 760.5L-558.499 760.5L-558.498 504.627Z" fill="#21386A"/>
<path d="M-558.498 504.627L-527.127 503.914C-495.756 503.201 -42.0957 501.383 32.4147 539.535C108.244 577.295 188.581 612.564 245.582 587C301.263 561.828 327.667 475.823 373.934 418.99C420.202 362.156 488.97 376.17 556.42 390.575C625.188 404.588 692.637 418.994 761.406 433.007C828.856 447.412 897.625 461.425 946.246 412.507C994.867 363.589 984.466 250.756 1042.5 233.5C1101.86 215.851 1167 292 1232 282C1290.04 264.744 1330.5 280 1408 151.5C1485.5 22.9996 2007.5 1.99954 2007.5 1.99954" stroke="#8EC748" stroke-width="3" stroke-linejoin="bevel"/>
<path opacity="0.5" d="M67 558V746" stroke="url(#paint0_linear_456_1438)" stroke-width="3"/>
<circle opacity="0.5" cx="67" cy="551" r="11" fill="#8EC748"/>
<circle opacity="0.5" cx="67" cy="551" r="9" fill="#8EC748"/>
<circle cx="67" cy="551" r="7" fill="white"/>
<circle opacity="0.5" cx="385.25" cy="401" r="11" fill="#8EC748"/>
<circle opacity="0.5" cx="385.25" cy="401" r="9" fill="#8EC748"/>
<circle cx="385.25" cy="401" r="7" fill="white"/>
<path opacity="0.5" d="M385.25 408V746" stroke="url(#paint1_linear_456_1438)" stroke-width="3"/>
<circle opacity="0.5" cx="703" cy="416" r="11" fill="#8EC748"/>
<circle opacity="0.5" cx="703" cy="416" r="9" fill="#8EC748"/>
<circle cx="703" cy="416" r="7" fill="white"/>
<path opacity="0.5" d="M703 423V746" stroke="url(#paint2_linear_456_1438)" stroke-width="3"/>
<circle opacity="0.5" cx="1020.75" cy="249" r="11" fill="#8EC748"/>
<circle opacity="0.5" cx="1020.75" cy="249" r="9" fill="#8EC748"/>
<circle cx="1020.75" cy="249" r="7" fill="white"/>
<path opacity="0.5" d="M1020.75 256V746" stroke="url(#paint3_linear_456_1438)" stroke-width="3"/>
<circle opacity="0.5" cx="1339" cy="238" r="11" fill="#8EC748"/>
<circle opacity="0.5" cx="1339" cy="238" r="9" fill="#8EC748"/>
<circle cx="1339" cy="238" r="7" fill="white"/>
<path opacity="0.5" d="M1339 245V746" stroke="url(#paint4_linear_456_1438)" stroke-width="3"/>
<rect x="901.963" y="193.342" width="175" height="58" rx="29" transform="rotate(-16.3768 901.963 193.342)" fill="#8EC748"/>
<path d="M927.195 220.843L928.55 218.36C928.89 218.621 929.311 218.845 929.81 219.032C930.894 219.408 931.941 219.448 932.951 219.151C933.987 218.847 934.784 218.293 935.34 217.49C935.909 216.684 936.187 215.81 936.175 214.869L930.322 216.589L929.561 213.998L935.413 212.278C934.926 211.518 934.227 210.959 933.315 210.602C932.417 210.24 931.45 210.212 930.414 210.516C929.416 210.81 928.589 211.4 927.932 212.288C927.626 212.711 927.394 213.127 927.236 213.535L924.753 212.18C925.012 211.548 925.354 210.961 925.778 210.419C926.769 209.156 928.051 208.292 929.624 207.83C931.684 207.225 933.612 207.402 935.408 208.361C937.218 209.316 938.406 210.759 938.974 212.691C939.542 214.623 939.323 216.48 938.318 218.262C937.326 220.04 935.8 221.232 933.741 221.838C932.167 222.3 930.596 222.275 929.029 221.763C928.345 221.519 927.734 221.213 927.195 220.843ZM943.061 218.786L940.298 209.384L942.888 208.622L944.016 212.46L946.246 207.635L949.316 206.733L947.018 211.682L952.271 216.079L949.297 216.953L945.827 214.012L945.003 215.818L945.651 218.025L943.061 218.786ZM955.084 212.084C955.684 212.422 956.323 212.491 957.001 212.292C957.679 212.093 958.179 211.689 958.5 211.08C958.821 210.472 958.877 209.809 958.666 209.093C958.456 208.376 958.051 207.849 957.451 207.511C956.851 207.173 956.213 207.104 955.535 207.303C954.857 207.502 954.357 207.906 954.036 208.515C953.714 209.124 953.659 209.786 953.869 210.502C954.08 211.219 954.485 211.746 955.084 212.084ZM953.752 214.289C952.498 213.615 951.673 212.607 951.279 211.264C950.884 209.921 951.032 208.626 951.722 207.381C952.412 206.136 953.448 205.31 954.83 204.904C956.211 204.498 957.529 204.632 958.783 205.306C960.038 205.98 960.862 206.988 961.257 208.331C961.651 209.675 961.504 210.969 960.813 212.214C960.123 213.459 959.087 214.285 957.706 214.691C956.324 215.097 955.006 214.963 953.752 214.289ZM962.941 208.045L962.236 205.646L968.664 203.757L969.369 206.156L962.941 208.045ZM973.373 209.878L969.425 196.446L972.016 195.685L978.313 200.088L981.226 192.978L983.817 192.217L987.764 205.649L984.886 206.495L982.292 197.668L979.553 204.309L973.657 200.205L976.251 209.032L973.373 209.878ZM996.902 199.524L998.781 200.952C998.591 201.3 998.321 201.657 997.97 202.024C997.199 202.806 996.277 203.356 995.202 203.671C993.821 204.077 992.503 203.943 991.248 203.27C989.994 202.596 989.17 201.588 988.775 200.244C988.38 198.901 988.522 197.609 989.199 196.368C989.877 195.126 990.887 194.308 992.23 193.913C993.522 193.534 994.764 193.669 995.956 194.319C997.148 194.97 997.933 195.941 998.313 197.233C998.351 197.361 998.412 197.642 998.498 198.075L998.555 198.412L991.743 200.414C992.036 200.843 992.432 201.15 992.932 201.337C993.444 201.52 994.039 201.512 994.717 201.312C995.434 201.102 996.003 200.747 996.426 200.247C996.633 200.006 996.792 199.765 996.902 199.524ZM991.18 198.496L995.401 197.255C995.112 196.839 994.737 196.533 994.276 196.335C993.811 196.124 993.323 196.094 992.811 196.244C992.299 196.395 991.905 196.684 991.628 197.113C991.347 197.529 991.198 197.99 991.18 198.496ZM1003.5 201.023L1001.44 194.02L998.471 194.894L997.766 192.495L1006.3 189.986L1007.01 192.384L1004.04 193.258L1006.09 200.262L1003.5 201.023ZM1012.26 195.282C1012.86 195.62 1013.49 195.69 1014.17 195.491C1014.85 195.291 1015.35 194.887 1015.67 194.279C1015.99 193.67 1016.05 193.007 1015.84 192.291C1015.63 191.575 1015.22 191.048 1014.62 190.71C1014.02 190.372 1013.38 190.302 1012.71 190.501C1012.03 190.701 1011.53 191.105 1011.21 191.713C1010.89 192.322 1010.83 192.985 1011.04 193.701C1011.25 194.417 1011.66 194.944 1012.26 195.282ZM1010.92 197.488C1009.67 196.814 1008.85 195.805 1008.45 194.462C1008.06 193.119 1008.2 191.825 1008.89 190.58C1009.58 189.335 1010.62 188.509 1012 188.103C1013.38 187.697 1014.7 187.831 1015.96 188.504C1017.21 189.178 1018.03 190.187 1018.43 191.53C1018.82 192.873 1018.68 194.167 1017.99 195.412C1017.3 196.657 1016.26 197.483 1014.88 197.889C1013.5 198.295 1012.18 198.161 1010.92 197.488ZM1021.1 198.145L1019.77 193.636L1020.35 193.467C1020.54 193.161 1020.7 192.754 1020.82 192.243C1021.07 191.172 1021 189.99 1020.62 188.698L1019.83 186.012L1027.02 183.897L1029.08 190.901L1030.33 190.534L1031.65 195.044L1029.06 195.805L1028.44 193.694L1023.07 195.273L1023.69 197.384L1021.1 198.145ZM1023.13 192.649L1026.49 191.662L1025.14 187.057L1023.12 187.649L1023.21 187.937C1023.58 189.203 1023.68 190.376 1023.51 191.454C1023.4 191.986 1023.28 192.384 1023.13 192.649ZM1032.67 192.452L1029.91 183.05L1032.5 182.288L1034.08 187.661L1036.53 181.104L1038.83 180.427L1041.59 189.83L1039 190.591L1037.42 185.218L1034.97 191.775L1032.67 192.452ZM1044.08 189.098L1041.32 179.696L1043.91 178.935L1045.04 182.772L1047.27 177.948L1050.34 177.046L1048.04 181.994L1053.29 186.392L1050.32 187.266L1046.85 184.325L1046.02 186.13L1046.67 188.337L1044.08 189.098ZM1054.44 186.053L1051.68 176.651L1054.27 175.889L1055.85 181.262L1058.3 174.705L1060.6 174.028L1063.37 183.431L1060.78 184.192L1059.2 178.819L1056.75 185.376L1054.44 186.053Z" fill="white"/>
<rect x="1152.08" y="119" width="211" height="58" rx="29" transform="rotate(11.8288 1152.08 119)" fill="#778FC7"/>
<path d="M1162.61 157.986L1165.48 144.283L1177.13 146.723L1174.26 160.425L1171.32 159.81L1173.62 148.848L1167.84 147.639L1165.54 158.601L1162.61 157.986ZM1176.44 165.173L1179.31 151.47L1181.95 152.024L1181.66 153.394L1181.76 153.415C1182 153.179 1182.3 152.97 1182.67 152.787C1183.48 152.413 1184.3 152.312 1185.12 152.484C1186.28 152.727 1187.19 153.414 1187.84 154.544C1188.5 155.678 1188.68 156.955 1188.38 158.378C1188.08 159.813 1187.4 160.917 1186.34 161.689C1185.3 162.451 1184.19 162.711 1183.03 162.468C1182.21 162.295 1181.5 161.874 1180.91 161.205C1180.64 160.891 1180.45 160.578 1180.33 160.266L1180.23 160.246L1179.08 165.727L1176.44 165.173ZM1181.17 158.767C1181.54 159.349 1182.07 159.712 1182.76 159.857C1183.45 160.001 1184.08 159.882 1184.65 159.497C1185.23 159.113 1185.59 158.555 1185.74 157.824C1185.89 157.093 1185.79 156.437 1185.42 155.856C1185.05 155.275 1184.52 154.912 1183.83 154.767C1183.14 154.622 1182.5 154.742 1181.93 155.126C1181.36 155.511 1181 156.069 1180.85 156.799C1180.69 157.53 1180.8 158.186 1181.17 158.767ZM1197.26 161.872L1198.24 164.018C1197.91 164.235 1197.5 164.422 1197.02 164.58C1195.97 164.905 1194.9 164.953 1193.8 164.723C1192.39 164.428 1191.29 163.687 1190.51 162.501C1189.72 161.314 1189.47 160.036 1189.76 158.666C1190.05 157.295 1190.78 156.223 1191.96 155.45C1193.15 154.676 1194.43 154.432 1195.8 154.719C1197.11 154.995 1198.14 155.702 1198.89 156.838C1199.63 157.975 1199.86 159.202 1199.59 160.52C1199.56 160.65 1199.48 160.927 1199.35 161.349L1199.24 161.674L1192.29 160.218C1192.35 160.734 1192.55 161.192 1192.9 161.593C1193.27 161.996 1193.8 162.27 1194.49 162.415C1195.22 162.568 1195.89 162.525 1196.5 162.284C1196.8 162.169 1197.05 162.032 1197.26 161.872ZM1192.7 158.261L1197.01 159.163C1196.95 158.66 1196.77 158.213 1196.45 157.82C1196.14 157.415 1195.73 157.157 1195.21 157.048C1194.68 156.939 1194.2 157.007 1193.75 157.254C1193.31 157.488 1192.96 157.824 1192.7 158.261ZM1200.51 165.923L1202.51 156.331L1204.86 156.823L1206.94 161.039L1210.54 158.012L1212.89 158.504L1210.88 168.096L1208.24 167.542L1209.41 161.963L1206.18 164.66L1204.32 160.897L1203.15 166.476L1200.51 165.923ZM1213.43 168.629L1215.44 159.037L1218.08 159.591L1216.93 165.072L1222.19 160.452L1224.54 160.944L1222.53 170.536L1219.89 169.982L1221.04 164.501L1215.78 169.121L1213.43 168.629ZM1223.68 174.762L1224.2 172.315C1224.32 172.394 1224.41 172.449 1224.49 172.478C1224.71 172.593 1224.96 172.679 1225.23 172.736C1226 172.897 1226.64 172.622 1227.14 171.91L1227.44 171.462L1225.71 161.189L1228.55 161.783L1229.47 168.617L1229.56 168.637L1233.05 162.726L1235.89 163.32L1229.8 172.875C1229.15 173.897 1228.47 174.619 1227.75 175.042C1227.05 175.48 1226.26 175.607 1225.38 175.424C1224.91 175.326 1224.51 175.193 1224.16 175.025C1224.11 175.001 1224.03 174.957 1223.92 174.893C1223.81 174.843 1223.73 174.799 1223.68 174.762ZM1235.05 173.157L1237.06 163.566L1239.41 164.057L1241.49 168.273L1245.08 165.246L1247.43 165.738L1245.42 175.33L1242.78 174.777L1243.95 169.198L1240.73 171.895L1238.86 168.132L1237.69 173.711L1235.05 173.157ZM1252.08 176.725L1254.09 167.133L1256.73 167.686L1255.91 171.601L1260.16 168.404L1263.29 169.06L1258.93 172.335L1261.48 178.693L1258.44 178.057L1256.78 173.825L1255.2 175.027L1254.72 177.278L1252.08 176.725ZM1267.84 180.026L1268.09 178.852L1267.99 178.831C1267.7 179.069 1267.41 179.247 1267.13 179.365C1266.46 179.701 1265.7 179.782 1264.87 179.607C1263.99 179.424 1263.34 179.02 1262.89 178.397C1262.47 177.763 1262.34 177.047 1262.51 176.251C1262.67 175.468 1263.06 174.855 1263.67 174.411C1264.29 173.956 1265.07 173.743 1265.99 173.773L1269.14 173.86C1269.16 173.484 1269.05 173.148 1268.82 172.853C1268.58 172.545 1268.22 172.34 1267.74 172.239C1267.14 172.113 1266.57 172.185 1266.04 172.455C1265.77 172.576 1265.54 172.712 1265.36 172.865L1264.12 170.971C1264.48 170.678 1264.88 170.441 1265.31 170.26C1266.36 169.825 1267.4 169.715 1268.43 169.931C1269.63 170.182 1270.54 170.754 1271.15 171.646C1271.77 172.538 1271.96 173.526 1271.74 174.609L1270.49 180.58L1267.84 180.026ZM1268.71 175.915L1268.75 175.72L1266.51 175.66C1265.76 175.653 1265.34 175.904 1265.23 176.413C1265.09 177.066 1265.42 177.474 1266.2 177.638C1266.79 177.761 1267.32 177.661 1267.79 177.339C1268.27 177.016 1268.57 176.542 1268.71 175.915ZM1278.52 182.262L1279.17 179.13C1278.97 179.209 1278.74 179.264 1278.51 179.296C1277.97 179.388 1277.4 179.371 1276.8 179.245C1275.72 179.018 1274.92 178.49 1274.39 177.658C1273.87 176.827 1273.74 175.831 1273.98 174.67L1274.65 171.44L1277.3 171.993L1276.66 175.027C1276.56 175.523 1276.61 175.937 1276.83 176.268C1277.05 176.6 1277.4 176.818 1277.9 176.921C1278.38 177.023 1278.81 177.03 1279.18 176.945C1279.3 176.928 1279.46 176.873 1279.67 176.781L1280.53 172.67L1283.17 173.223L1281.16 182.815L1278.52 182.262ZM1291.62 181.634L1292.6 183.78C1292.27 183.997 1291.86 184.184 1291.38 184.342C1290.33 184.667 1289.26 184.715 1288.16 184.485C1286.75 184.19 1285.65 183.449 1284.87 182.263C1284.08 181.076 1283.83 179.798 1284.12 178.428C1284.4 177.058 1285.14 175.986 1286.32 175.212C1287.51 174.438 1288.78 174.195 1290.15 174.482C1291.47 174.758 1292.5 175.464 1293.25 176.6C1293.99 177.737 1294.22 178.964 1293.95 180.282C1293.92 180.412 1293.84 180.689 1293.71 181.111L1293.6 181.436L1286.65 179.981C1286.71 180.496 1286.91 180.954 1287.26 181.355C1287.63 181.758 1288.16 182.033 1288.85 182.177C1289.58 182.33 1290.25 182.287 1290.86 182.047C1291.16 181.932 1291.41 181.794 1291.62 181.634ZM1287.06 178.023L1291.37 178.925C1291.31 178.422 1291.13 177.975 1290.81 177.582C1290.5 177.177 1290.09 176.919 1289.56 176.81C1289.04 176.701 1288.56 176.77 1288.11 177.017C1287.67 177.251 1287.32 177.586 1287.06 178.023ZM1302.43 183.694L1303.75 185.707C1303.44 185.997 1303.05 186.255 1302.56 186.48C1301.51 186.941 1300.43 187.056 1299.33 186.824C1297.92 186.528 1296.82 185.788 1296.03 184.601C1295.24 183.415 1294.99 182.136 1295.28 180.766C1295.57 179.396 1296.31 178.325 1297.51 177.554C1298.7 176.783 1300.01 176.545 1301.42 176.84C1302.53 177.073 1303.47 177.611 1304.25 178.454C1304.6 178.855 1304.86 179.25 1305.02 179.638L1303.01 180.954C1302.88 180.709 1302.71 180.47 1302.5 180.235C1302.04 179.729 1301.5 179.413 1300.9 179.287C1300.21 179.142 1299.58 179.262 1299.01 179.647C1298.44 180.031 1298.08 180.589 1297.92 181.319C1297.77 182.05 1297.88 182.706 1298.25 183.288C1298.62 183.869 1299.15 184.232 1299.84 184.377C1300.44 184.502 1301.05 184.427 1301.68 184.15C1301.97 184.019 1302.22 183.867 1302.43 183.694ZM1307.09 188.245L1308.59 181.1L1305.55 180.465L1306.06 178.018L1314.78 179.842L1314.26 182.289L1311.23 181.654L1309.73 188.799L1307.09 188.245ZM1314.32 189.761L1316.33 180.169L1321.03 181.153C1322.13 181.382 1322.92 181.807 1323.4 182.425C1323.9 183.047 1324.07 183.743 1323.9 184.513C1323.78 185.1 1323.46 185.564 1322.94 185.904C1322.7 186.059 1322.46 186.159 1322.22 186.204C1322.5 186.358 1322.75 186.566 1322.95 186.826C1323.41 187.401 1323.58 188.027 1323.43 188.706C1323.26 189.528 1322.8 190.139 1322.05 190.541C1321.3 190.942 1320.35 191.023 1319.22 190.786L1314.32 189.761ZM1317.44 188.063L1319.59 188.514C1319.89 188.577 1320.14 188.541 1320.35 188.407C1320.57 188.276 1320.7 188.086 1320.76 187.838C1320.81 187.59 1320.76 187.362 1320.61 187.154C1320.48 186.949 1320.26 186.815 1319.96 186.752L1317.81 186.301L1317.44 188.063ZM1318.22 184.344L1320.18 184.754C1320.41 184.803 1320.61 184.777 1320.78 184.677C1320.95 184.576 1321.06 184.428 1321.1 184.232C1321.14 184.037 1321.11 183.859 1320.99 183.698C1320.87 183.537 1320.7 183.433 1320.46 183.383L1318.5 182.973L1318.22 184.344ZM1328.18 189.557C1328.55 190.139 1329.08 190.502 1329.77 190.646C1330.47 190.791 1331.1 190.671 1331.67 190.287C1332.24 189.903 1332.6 189.345 1332.75 188.614C1332.91 187.883 1332.8 187.227 1332.43 186.646C1332.06 186.065 1331.53 185.702 1330.84 185.557C1330.15 185.412 1329.52 185.532 1328.95 185.916C1328.38 186.301 1328.01 186.858 1327.86 187.589C1327.71 188.32 1327.82 188.976 1328.18 189.557ZM1325.97 190.871C1325.18 189.684 1324.93 188.406 1325.22 187.036C1325.5 185.665 1326.25 184.595 1327.44 183.824C1328.64 183.053 1329.94 182.815 1331.35 183.11C1332.76 183.405 1333.86 184.146 1334.65 185.332C1335.43 186.519 1335.68 187.797 1335.4 189.168C1335.11 190.538 1334.37 191.609 1333.17 192.38C1331.97 193.151 1330.67 193.389 1329.26 193.093C1327.85 192.798 1326.75 192.057 1325.97 190.871Z" fill="white"/>
<rect x="53.2441" y="463.065" width="208" height="58" rx="29" transform="rotate(7.17419 53.2441 463.065)" fill="#6483CC"/>
<path d="M70.1831 498.66L73.1596 499.034C73.702 499.103 74.1503 499.011 74.5044 498.76C74.8734 498.497 75.0871 498.135 75.1453 497.672C75.2036 497.209 75.0857 496.811 74.7916 496.478C74.5124 496.134 74.1016 495.928 73.5593 495.859L70.5827 495.485L70.1831 498.66ZM66.8569 501.063L68.6053 487.173L78.2294 488.384L77.8797 491.162L71.2322 490.325L70.9324 492.707L74.0082 493.094C75.4237 493.272 76.5155 493.833 77.2837 494.776C78.0668 495.708 78.3793 496.802 78.2211 498.059C78.0629 499.315 77.4882 500.305 76.4969 501.027C75.5206 501.737 74.3247 502.003 72.9092 501.825L66.8569 501.063ZM89.0777 503.86L90.3016 494.137L92.9804 494.474L91.7565 504.197L89.0777 503.86ZM82.7299 500.642L84.3173 500.842C84.6613 500.885 84.9367 500.832 85.1435 500.684C85.3653 500.524 85.4953 500.291 85.5336 499.987C85.5719 499.683 85.5027 499.432 85.3259 499.235C85.164 499.027 84.9111 498.901 84.5671 498.858L82.9796 498.658L82.7299 500.642ZM79.7513 502.686L80.9751 492.963L83.654 493.3L83.2794 496.277L85.0653 496.501C86.1368 496.636 86.9757 497.071 87.582 497.806C88.19 498.527 88.4332 499.371 88.3117 500.337C88.1901 501.302 87.7446 502.066 86.9751 502.628C86.2073 503.176 85.2876 503.383 84.216 503.248L79.7513 502.686ZM101.725 501.924L103.2 503.823C102.918 504.137 102.546 504.426 102.083 504.691C101.073 505.236 100.007 505.437 98.8822 505.296C97.4534 505.116 96.2988 504.467 95.4183 503.348C94.5378 502.229 94.185 500.975 94.3598 499.586C94.5346 498.197 95.1872 497.07 96.3175 496.204C97.4478 495.339 98.7273 494.996 100.156 495.176C101.28 495.317 102.264 495.777 103.107 496.555C103.49 496.926 103.779 497.298 103.974 497.672L102.075 499.146C101.93 498.913 101.743 498.688 101.515 498.471C101.009 498.004 100.452 497.733 99.8438 497.656C99.1427 497.568 98.5232 497.738 97.9853 498.168C97.4475 498.597 97.1319 499.183 97.0387 499.923C96.9454 500.664 97.1061 501.309 97.5207 501.859C97.9354 502.408 98.4932 502.727 99.1944 502.815C99.8029 502.892 100.41 502.767 101.016 502.44C101.29 502.286 101.527 502.114 101.725 501.924ZM106.736 506.083L107.648 498.84L104.572 498.453L104.884 495.972L113.714 497.084L113.402 499.564L110.327 499.177L109.415 506.42L106.736 506.083ZM113.546 511.173L115.294 497.283L117.973 497.62L117.798 499.009L117.897 499.021C118.118 498.767 118.402 498.534 118.751 498.322C119.532 497.883 120.34 497.716 121.173 497.821C122.35 497.969 123.308 498.58 124.047 499.654C124.798 500.73 125.083 501.989 124.902 503.431C124.718 504.886 124.13 506.041 123.135 506.897C122.155 507.741 121.077 508.089 119.899 507.941C119.066 507.836 118.325 507.474 117.677 506.855C117.392 506.564 117.173 506.268 117.023 505.967L116.924 505.954L116.225 511.51L113.546 511.173ZM117.744 504.404C118.159 504.954 118.716 505.273 119.418 505.361C120.119 505.449 120.738 505.278 121.276 504.849C121.814 504.419 122.129 503.834 122.223 503.093C122.316 502.353 122.155 501.707 121.741 501.158C121.326 500.609 120.768 500.29 120.067 500.202C119.366 500.113 118.746 500.284 118.209 500.713C117.671 501.143 117.355 501.728 117.262 502.469C117.169 503.21 117.329 503.855 117.744 504.404ZM131.736 509.229L131.885 508.039L131.786 508.026C131.511 508.287 131.238 508.488 130.965 508.628C130.324 509.018 129.581 509.16 128.734 509.053C127.848 508.942 127.159 508.593 126.669 508.007C126.193 507.41 126.006 506.707 126.107 505.9C126.207 505.107 126.543 504.464 127.116 503.971C127.704 503.467 128.457 503.193 129.377 503.147L132.522 502.979C132.516 502.602 132.382 502.276 132.121 502.001C131.862 501.713 131.488 501.538 130.998 501.477C130.39 501.4 129.83 501.518 129.321 501.83C129.061 501.972 128.847 502.126 128.678 502.293L127.29 500.506C127.626 500.185 128.003 499.917 128.42 499.701C129.426 499.182 130.451 498.989 131.496 499.12C132.713 499.274 133.665 499.77 134.353 500.609C135.04 501.448 135.314 502.416 135.176 503.514L134.414 509.567L131.736 509.229ZM132.26 505.062L132.285 504.864L130.052 504.986C129.306 505.04 128.901 505.325 128.836 505.841C128.753 506.502 129.108 506.883 129.902 506.983C130.497 507.058 131.019 506.915 131.467 506.555C131.916 506.195 132.18 505.697 132.26 505.062ZM136.102 509.779L138.623 506.569C138.323 506.383 138.066 506.136 137.849 505.826C137.37 505.148 137.182 504.399 137.286 503.578C137.407 502.613 137.874 501.838 138.687 501.255C139.499 500.672 140.468 500.451 141.592 500.593L146.057 501.155L144.833 510.878L142.154 510.541L142.516 507.664L141.028 507.476L139.078 510.154L136.102 509.779ZM141.216 505.182L142.804 505.382L143.078 503.199L141.491 502.999C141.107 502.951 140.783 503.017 140.518 503.199C140.255 503.368 140.104 503.61 140.064 503.928C140.024 504.245 140.109 504.525 140.321 504.767C140.534 504.995 140.832 505.133 141.216 505.182ZM149.947 514.344L150.647 508.788L151.44 508.888C151.861 508.537 152.291 508.054 152.732 507.438C153.649 506.021 154.23 504.34 154.475 502.396L155.022 498.05L164.646 499.261L163.247 510.374L164.934 510.586L164.235 516.142L161.258 515.768L161.608 512.989L153.273 511.94L152.924 514.719L149.947 514.344ZM154.615 509.287L160.271 509.999L161.32 501.665L157.649 501.203L157.449 502.79C157.202 504.748 156.655 506.426 155.807 507.825C155.405 508.459 155.008 508.947 154.615 509.287ZM169.453 510.913C169.868 511.462 170.426 511.781 171.127 511.87C171.828 511.958 172.447 511.787 172.985 511.358C173.523 510.928 173.839 510.343 173.932 509.602C174.025 508.861 173.864 508.216 173.45 507.667C173.035 507.117 172.477 506.798 171.776 506.71C171.075 506.622 170.456 506.793 169.918 507.222C169.38 507.652 169.064 508.237 168.971 508.978C168.878 509.718 169.038 510.364 169.453 510.913ZM167.351 512.402C166.47 511.283 166.117 510.03 166.292 508.64C166.467 507.251 167.12 506.124 168.25 505.258C169.38 504.393 170.66 504.05 172.088 504.23C173.517 504.41 174.672 505.059 175.552 506.178C176.433 507.296 176.786 508.55 176.611 509.939C176.436 511.328 175.783 512.456 174.653 513.321C173.523 514.187 172.243 514.53 170.815 514.35C169.386 514.17 168.231 513.521 167.351 512.402ZM185.362 512.452L186.837 514.351C186.555 514.665 186.183 514.954 185.72 515.218C184.71 515.763 183.644 515.965 182.519 515.823C181.09 515.643 179.936 514.994 179.055 513.875C178.175 512.757 177.822 511.503 177.997 510.114C178.172 508.725 178.824 507.597 179.954 506.732C181.085 505.866 182.364 505.523 183.793 505.703C184.917 505.845 185.901 506.304 186.744 507.082C187.127 507.453 187.416 507.826 187.611 508.199L185.712 509.674C185.567 509.441 185.38 509.215 185.152 508.999C184.646 508.532 184.089 508.26 183.481 508.184C182.78 508.095 182.16 508.266 181.622 508.695C181.084 509.125 180.769 509.71 180.676 510.451C180.582 511.192 180.743 511.837 181.158 512.386C181.572 512.936 182.13 513.255 182.831 513.343C183.44 513.419 184.047 513.294 184.652 512.967C184.927 512.814 185.164 512.642 185.362 512.452ZM190.373 516.61L191.285 509.367L188.209 508.98L188.521 506.5L197.351 507.611L197.039 510.092L193.963 509.705L193.052 516.947L190.373 516.61ZM202.97 518.196L203.12 517.005L203.021 516.993C202.746 517.254 202.472 517.455 202.199 517.595C201.559 517.985 200.816 518.126 199.969 518.02C199.083 517.908 198.394 517.559 197.903 516.974C197.428 516.376 197.24 515.674 197.342 514.867C197.442 514.073 197.778 513.43 198.351 512.938C198.938 512.434 199.692 512.159 200.611 512.114L203.757 511.945C203.751 511.568 203.617 511.242 203.356 510.967C203.097 510.679 202.722 510.505 202.233 510.443C201.624 510.366 201.065 510.484 200.556 510.796C200.296 510.938 200.082 511.093 199.913 511.26L198.525 509.472C198.861 509.152 199.237 508.883 199.654 508.667C200.66 508.149 201.686 507.955 202.731 508.087C203.948 508.24 204.9 508.736 205.587 509.575C206.275 510.414 206.549 511.383 206.411 512.481L205.649 518.533L202.97 518.196ZM203.495 514.029L203.52 513.83L201.287 513.952C200.541 514.006 200.136 514.291 200.071 514.807C199.988 515.469 200.343 515.849 201.137 515.949C201.732 516.024 202.254 515.882 202.702 515.521C203.151 515.161 203.415 514.664 203.495 514.029ZM208.23 518.858L209.454 509.135L214.216 509.734C215.327 509.874 216.149 510.233 216.681 510.81C217.226 511.39 217.45 512.07 217.351 512.85C217.276 513.445 216.993 513.934 216.502 514.315C216.278 514.489 216.048 514.608 215.812 514.672C216.104 514.803 216.363 514.99 216.588 515.233C217.098 515.768 217.31 516.379 217.224 517.067C217.119 517.901 216.708 518.548 215.992 519.008C215.275 519.469 214.341 519.627 213.191 519.482L208.23 518.858ZM211.196 516.913L213.379 517.188C213.683 517.226 213.932 517.17 214.125 517.02C214.332 516.871 214.451 516.671 214.483 516.42C214.515 516.168 214.449 515.945 214.285 515.75C214.135 515.556 213.908 515.44 213.603 515.402L211.421 515.127L211.196 516.913ZM211.67 513.143L213.655 513.393C213.893 513.423 214.093 513.381 214.255 513.267C214.417 513.153 214.511 512.996 214.536 512.798C214.561 512.6 214.509 512.425 214.38 512.274C214.251 512.124 214.068 512.034 213.83 512.004L211.845 511.754L211.67 513.143ZM218.849 520.195L220.073 510.471L222.752 510.808L222.252 514.777L226.224 511.246L229.399 511.645L225.315 515.264L228.374 521.393L225.298 521.006L223.292 516.924L221.815 518.25L221.528 520.532L218.849 520.195ZM234.828 522.206L234.978 521.015L234.879 521.003C234.604 521.264 234.33 521.465 234.057 521.605C233.417 521.995 232.674 522.136 231.827 522.03C230.941 521.918 230.252 521.569 229.761 520.984C229.286 520.386 229.098 519.684 229.2 518.877C229.3 518.083 229.636 517.44 230.209 516.948C230.796 516.444 231.55 516.169 232.469 516.124L235.615 515.955C235.609 515.578 235.475 515.252 235.214 514.977C234.955 514.69 234.58 514.515 234.091 514.453C233.482 514.377 232.923 514.494 232.414 514.806C232.154 514.948 231.939 515.103 231.771 515.27L230.383 513.482C230.719 513.162 231.095 512.893 231.512 512.677C232.518 512.159 233.544 511.965 234.589 512.097C235.806 512.25 236.758 512.746 237.445 513.585C238.133 514.424 238.407 515.393 238.269 516.491L237.507 522.543L234.828 522.206ZM235.353 518.039L235.378 517.84L233.145 517.962C232.399 518.016 231.994 518.301 231.929 518.817C231.846 519.479 232.201 519.859 232.995 519.959C233.59 520.034 234.112 519.892 234.56 519.531C235.009 519.171 235.273 518.674 235.353 518.039Z" fill="white"/>
<rect x="208.641" y="329.746" width="282" height="58" rx="29" transform="rotate(-11.8161 208.641 329.746)" fill="#8EC748"/>
<path d="M243.025 354.734L245.393 356.282C245.092 356.863 244.698 357.422 244.211 357.96C243.071 359.152 241.698 359.916 240.093 360.252C237.992 360.691 236.077 360.363 234.35 359.267C232.635 358.168 231.572 356.633 231.159 354.663C230.747 352.692 231.106 350.86 232.236 349.166C233.38 347.469 235.002 346.401 237.103 345.961C238.709 345.625 240.246 345.78 241.716 346.426C242.346 346.703 242.925 347.059 243.452 347.494L241.904 349.861C241.572 349.576 241.171 349.319 240.701 349.091C239.703 348.618 238.695 348.489 237.677 348.702C236.45 348.958 235.496 349.607 234.815 350.649C234.144 351.675 233.937 352.801 234.194 354.028C234.45 355.255 235.093 356.21 236.121 356.894C237.16 357.562 238.293 357.768 239.52 357.511C240.551 357.295 241.455 356.766 242.232 355.922C242.584 355.521 242.848 355.125 243.025 354.734ZM249.498 354.872C250.069 355.256 250.7 355.376 251.392 355.232C252.084 355.087 252.614 354.724 252.983 354.143C253.352 353.562 253.46 352.906 253.307 352.175C253.154 351.444 252.792 350.886 252.221 350.502C251.65 350.117 251.019 349.997 250.327 350.142C249.636 350.286 249.105 350.649 248.736 351.231C248.368 351.812 248.26 352.468 248.413 353.199C248.566 353.929 248.927 354.487 249.498 354.872ZM247.995 356.964C246.798 356.193 246.057 355.122 245.77 353.751C245.483 352.381 245.733 351.103 246.52 349.917C247.308 348.73 248.406 347.99 249.815 347.695C251.225 347.4 252.528 347.638 253.724 348.409C254.921 349.181 255.663 350.252 255.949 351.622C256.236 352.992 255.986 354.271 255.199 355.457C254.412 356.643 253.313 357.384 251.904 357.679C250.494 357.973 249.191 357.735 247.995 356.964ZM258.907 356.009L256.901 346.417L261.599 345.434C262.695 345.205 263.589 345.276 264.28 345.649C264.984 346.02 265.417 346.59 265.578 347.36C265.701 347.947 265.592 348.501 265.251 349.022C265.096 349.259 264.917 349.446 264.715 349.584C265.034 349.612 265.339 349.705 265.631 349.862C266.288 350.201 266.687 350.71 266.829 351.389C267.001 352.211 266.823 352.957 266.296 353.626C265.768 354.295 264.937 354.748 263.801 354.985L258.907 356.009ZM261.079 353.205L263.233 352.755C263.533 352.692 263.75 352.558 263.884 352.353C264.031 352.145 264.079 351.917 264.027 351.669C263.975 351.421 263.84 351.231 263.622 351.1C263.417 350.966 263.164 350.93 262.864 350.993L260.711 351.443L261.079 353.205ZM260.301 349.486L262.259 349.076C262.494 349.027 262.669 348.922 262.785 348.761C262.902 348.601 262.939 348.423 262.898 348.227C262.857 348.031 262.752 347.883 262.581 347.783C262.41 347.682 262.207 347.657 261.972 347.706L260.014 348.115L260.301 349.486ZM270.244 357.928L267.377 344.225L270.02 343.672L270.306 345.043L270.404 345.022C270.53 344.71 270.723 344.397 270.984 344.083C271.58 343.414 272.289 342.993 273.111 342.821C274.273 342.578 275.377 342.844 276.425 343.62C277.485 344.392 278.164 345.49 278.462 346.912C278.762 348.348 278.582 349.632 277.92 350.765C277.268 351.882 276.361 352.562 275.2 352.805C274.377 352.977 273.559 352.876 272.745 352.501C272.38 352.319 272.078 352.11 271.838 351.874L271.74 351.894L272.887 357.376L270.244 357.928ZM272.011 350.162C272.582 350.547 273.213 350.667 273.905 350.522C274.596 350.377 275.127 350.014 275.495 349.433C275.864 348.852 275.972 348.196 275.819 347.465C275.666 346.734 275.305 346.176 274.734 345.792C274.163 345.407 273.532 345.287 272.84 345.432C272.148 345.577 271.618 345.94 271.249 346.521C270.88 347.102 270.772 347.758 270.925 348.489C271.078 349.22 271.44 349.777 272.011 350.162ZM287.995 346.552L289.755 348.126C289.538 348.457 289.24 348.792 288.861 349.13C288.031 349.848 287.067 350.322 285.971 350.552C284.562 350.847 283.259 350.608 282.062 349.837C280.865 349.066 280.124 347.995 279.837 346.625C279.55 345.254 279.794 343.977 280.568 342.794C281.342 341.61 282.414 340.875 283.785 340.588C285.103 340.312 286.33 340.546 287.466 341.289C288.602 342.032 289.308 343.063 289.584 344.381C289.611 344.512 289.651 344.796 289.702 345.235L289.732 345.576L282.782 347.03C283.04 347.48 283.41 347.818 283.894 348.044C284.39 348.267 284.984 348.306 285.675 348.162C286.406 348.009 287.002 347.7 287.464 347.236C287.689 347.011 287.866 346.784 287.995 346.552ZM282.373 345.072L286.68 344.171C286.425 343.734 286.075 343.399 285.631 343.165C285.185 342.918 284.7 342.849 284.178 342.958C283.656 343.067 283.24 343.324 282.93 343.73C282.617 344.122 282.431 344.57 282.373 345.072ZM292.592 348.962L290.585 339.37L292.935 338.878L296.531 341.906L298.612 337.691L300.961 337.199L302.968 346.792L300.325 347.344L299.158 341.765L297.288 345.528L294.068 342.83L295.235 348.409L292.592 348.962ZM312.083 341.513L313.842 343.086C313.626 343.418 313.328 343.752 312.949 344.09C312.119 344.809 311.155 345.283 310.059 345.512C308.65 345.807 307.347 345.569 306.15 344.798C304.953 344.026 304.212 342.956 303.925 341.585C303.638 340.215 303.882 338.938 304.656 337.754C305.43 336.571 306.502 335.836 307.873 335.549C309.191 335.273 310.418 335.507 311.554 336.25C312.69 336.993 313.396 338.024 313.672 339.342C313.699 339.472 313.738 339.757 313.789 340.196L313.82 340.537L306.87 341.991C307.128 342.441 307.498 342.779 307.982 343.005C308.478 343.228 309.072 343.267 309.763 343.122C310.494 342.969 311.09 342.661 311.552 342.196C311.777 341.972 311.954 341.744 312.083 341.513ZM306.461 340.033L310.768 339.132C310.513 338.695 310.163 338.359 309.719 338.125C309.272 337.878 308.788 337.809 308.266 337.919C307.744 338.028 307.328 338.285 307.018 338.691C306.705 339.083 306.519 339.53 306.461 340.033ZM316.68 343.923L314.673 334.331L317.316 333.778L318.053 337.301L321.675 336.544L320.938 333.02L323.581 332.467L325.587 342.059L322.945 342.612L322.187 338.991L318.565 339.748L319.323 343.37L316.68 343.923ZM328.131 341.527L326.125 331.935L328.767 331.382L329.505 334.906L333.126 334.148L332.389 330.624L335.032 330.071L337.039 339.664L334.396 340.217L333.638 336.595L330.017 337.353L330.774 340.974L328.131 341.527ZM348.784 337.207L346.777 327.614L349.42 327.062L351.426 336.654L348.784 337.207ZM341.734 336.23L343.3 335.902C343.64 335.831 343.883 335.691 344.03 335.484C344.188 335.26 344.235 334.998 344.172 334.698C344.109 334.398 343.962 334.183 343.731 334.055C343.51 333.91 343.23 333.873 342.891 333.944L341.325 334.272L341.734 336.23ZM339.583 339.132L337.576 329.539L340.219 328.986L340.833 331.923L342.595 331.554C343.652 331.333 344.587 331.471 345.399 331.969C346.209 332.453 346.713 333.172 346.913 334.124C347.112 335.077 346.939 335.944 346.394 336.726C345.847 337.494 345.045 337.989 343.987 338.21L339.583 339.132ZM360.546 331.375L362.305 332.948C362.088 333.279 361.79 333.614 361.412 333.952C360.581 334.671 359.618 335.144 358.522 335.374C357.112 335.669 355.809 335.43 354.612 334.659C353.416 333.888 352.674 332.817 352.387 331.447C352.101 330.076 352.344 328.799 353.119 327.616C353.893 326.432 354.965 325.697 356.335 325.41C357.653 325.135 358.88 325.368 360.017 326.111C361.153 326.854 361.859 327.885 362.135 329.203C362.162 329.334 362.201 329.618 362.252 330.057L362.282 330.398L355.333 331.852C355.591 332.302 355.961 332.64 356.444 332.866C356.94 333.089 357.534 333.128 358.226 332.984C358.957 332.831 359.553 332.522 360.014 332.058C360.24 331.834 360.417 331.606 360.546 331.375ZM354.923 329.895L359.23 328.994C358.975 328.556 358.626 328.221 358.182 327.987C357.735 327.74 357.251 327.671 356.729 327.78C356.207 327.889 355.79 328.147 355.48 328.552C355.167 328.944 354.982 329.392 354.923 329.895ZM371.695 332.414L369.401 321.451L365.486 322.27L364.913 319.529L375.679 317.277L376.253 320.018L372.338 320.837L374.631 331.799L371.695 332.414ZM385.608 326.131L387.368 327.704C387.151 328.036 386.853 328.371 386.475 328.709C385.644 329.427 384.681 329.901 383.585 330.131C382.175 330.425 380.872 330.187 379.675 329.416C378.479 328.645 377.737 327.574 377.45 326.203C377.164 324.833 377.407 323.556 378.181 322.373C378.955 321.189 380.028 320.454 381.398 320.167C382.716 319.891 383.943 320.125 385.08 320.868C386.216 321.611 386.922 322.642 387.198 323.96C387.225 324.09 387.264 324.375 387.315 324.814L387.345 325.155L380.396 326.609C380.653 327.059 381.024 327.397 381.507 327.623C382.003 327.846 382.597 327.885 383.289 327.74C384.02 327.588 384.616 327.279 385.077 326.815C385.303 326.59 385.48 326.363 385.608 326.131ZM379.986 324.651L384.293 323.75C384.038 323.313 383.689 322.978 383.245 322.744C382.798 322.497 382.314 322.428 381.792 322.537C381.27 322.646 380.853 322.903 380.543 323.309C380.23 323.701 380.045 324.149 379.986 324.651ZM388.644 328.868L391.046 323.257L386.833 319.234L389.867 318.6L392.302 321.155L392.381 321.139L393.587 317.822L396.621 317.187L394.374 322.561L398.824 326.738L395.789 327.373L393.118 324.663L393.039 324.679L391.678 328.233L388.644 328.868ZM399.994 326.493L397.987 316.901L400.63 316.348L401.367 319.872L404.988 319.114L404.251 315.591L406.894 315.038L408.901 324.63L406.258 325.183L405.5 321.561L401.879 322.319L402.636 325.941L399.994 326.493ZM413.583 320.545C414.154 320.929 414.785 321.049 415.477 320.905C416.168 320.76 416.698 320.397 417.067 319.816C417.436 319.235 417.544 318.579 417.391 317.848C417.238 317.117 416.876 316.559 416.306 316.175C415.735 315.79 415.103 315.67 414.412 315.815C413.72 315.959 413.19 316.322 412.821 316.904C412.452 317.485 412.344 318.141 412.497 318.872C412.65 319.602 413.012 320.16 413.583 320.545ZM412.079 322.637C410.883 321.866 410.141 320.795 409.854 319.424C409.568 318.054 409.818 316.776 410.605 315.589C411.392 314.403 412.49 313.663 413.9 313.368C415.309 313.073 416.612 313.311 417.809 314.082C419.006 314.854 419.747 315.924 420.034 317.295C420.321 318.665 420.07 319.943 419.283 321.13C418.496 322.316 417.398 323.057 415.988 323.352C414.579 323.646 413.276 323.408 412.079 322.637ZM421.528 321.988L421.016 319.541L421.264 319.551C421.452 319.539 421.605 319.52 421.722 319.496C422.087 319.419 422.348 319.263 422.502 319.026C422.67 318.787 422.748 318.314 422.737 317.608C422.739 316.899 422.608 315.919 422.346 314.666L421.773 311.925L429.603 310.287L431.61 319.879L428.967 320.432L427.472 313.287L424.927 313.819L424.989 314.113C425.985 318.876 425.309 321.504 422.96 321.995C422.555 322.08 422.207 322.105 421.913 322.071C421.685 322.023 421.557 321.996 421.528 321.988ZM436.294 315.793C436.865 316.178 437.496 316.298 438.188 316.153C438.88 316.008 439.41 315.646 439.779 315.064C440.148 314.483 440.256 313.827 440.103 313.096C439.95 312.366 439.588 311.808 439.017 311.423C438.446 311.039 437.815 310.919 437.123 311.063C436.432 311.208 435.901 311.571 435.532 312.152C435.164 312.733 435.056 313.389 435.209 314.12C435.361 314.851 435.723 315.409 436.294 315.793ZM434.791 317.886C433.594 317.114 432.852 316.043 432.566 314.673C432.279 313.303 432.529 312.024 433.316 310.838C434.103 309.652 435.202 308.911 436.611 308.616C438.021 308.321 439.324 308.56 440.52 309.331C441.717 310.102 442.459 311.173 442.745 312.543C443.032 313.914 442.782 315.192 441.995 316.378C441.208 317.565 440.109 318.305 438.7 318.6C437.29 318.895 435.987 318.657 434.791 317.886ZM445.703 316.931L443.697 307.338L450.744 305.864L451.256 308.311L446.851 309.233L448.346 316.378L445.703 316.931ZM454.325 315.127L452.319 305.535L454.961 304.982L456.108 310.463L459.072 304.122L461.421 303.63L463.428 313.223L460.785 313.776L459.639 308.294L456.674 314.636L454.325 315.127ZM465.968 312.691L463.961 303.099L466.604 302.546L467.751 308.027L470.715 301.686L473.064 301.195L475.071 310.787L472.428 311.34L471.281 305.859L468.317 312.2L465.968 312.691Z" fill="white"/>
<rect x="576.008" y="314" width="288" height="58" rx="29" transform="rotate(2.91623 576.008 314)" fill="#8FA6DB"/>
<path d="M603.329 346.933L605.225 349.032C604.786 349.517 604.263 349.958 603.656 350.354C602.25 351.217 600.728 351.606 599.09 351.523C596.946 351.414 595.178 350.61 593.786 349.11C592.407 347.611 591.769 345.857 591.872 343.846C591.974 341.835 592.787 340.154 594.311 338.803C595.849 337.453 597.689 336.833 599.833 336.942C601.471 337.025 602.919 337.566 604.176 338.565C604.715 338.993 605.184 339.484 605.583 340.039L603.484 341.934C603.235 341.574 602.913 341.224 602.516 340.884C601.671 340.173 600.729 339.791 599.691 339.738C598.439 339.675 597.351 340.06 596.428 340.894C595.518 341.715 595.031 342.752 594.968 344.004C594.904 345.255 595.282 346.343 596.103 347.266C596.938 348.176 597.981 348.663 599.233 348.727C600.285 348.78 601.294 348.498 602.26 347.88C602.702 347.582 603.059 347.266 603.329 346.933ZM609.554 348.712C610.009 349.229 610.589 349.505 611.295 349.541C612 349.577 612.605 349.361 613.11 348.893C613.614 348.425 613.886 347.818 613.924 347.072C613.962 346.326 613.753 345.695 613.299 345.178C612.845 344.661 612.265 344.384 611.559 344.348C610.853 344.312 610.248 344.528 609.744 344.997C609.239 345.465 608.968 346.072 608.93 346.818C608.892 347.563 609.1 348.195 609.554 348.712ZM607.568 350.353C606.607 349.303 606.162 348.078 606.234 346.68C606.305 345.282 606.872 344.109 607.935 343.162C608.998 342.215 610.248 341.778 611.686 341.851C613.124 341.925 614.324 342.486 615.285 343.537C616.246 344.587 616.691 345.811 616.62 347.209C616.549 348.607 615.982 349.78 614.919 350.727C613.856 351.674 612.605 352.111 611.167 352.038C609.729 351.965 608.53 351.403 607.568 350.353ZM627.108 337.831L628.389 340.199C628.074 340.343 627.72 340.479 627.327 340.605C626.362 340.93 625.429 341.163 624.528 341.304C623.571 341.469 622.849 341.759 622.36 342.175C621.873 342.577 621.514 343.2 621.284 344.042C621.483 343.799 621.714 343.597 621.976 343.437C622.624 343.029 623.281 342.843 623.947 342.876C625.252 342.943 626.353 343.48 627.249 344.487C628.146 345.493 628.56 346.669 628.491 348.014C628.422 349.373 627.877 350.506 626.856 351.416C625.849 352.312 624.647 352.725 623.249 352.654C621.704 352.575 620.461 351.944 619.52 350.761C618.593 349.566 618.18 347.976 618.281 345.992C618.394 343.782 618.927 342.087 619.882 340.907C620.85 339.715 622.075 338.996 623.556 338.751C624.068 338.67 624.872 338.478 625.969 338.173C626.077 338.139 626.26 338.088 626.517 338.021C626.775 337.941 626.972 337.877 627.108 337.831ZM621.771 349.414C622.188 349.876 622.723 350.124 623.376 350.157C624.028 350.19 624.585 349.998 625.047 349.581C625.51 349.151 625.759 348.583 625.795 347.877C625.831 347.171 625.64 346.587 625.223 346.126C624.807 345.65 624.272 345.396 623.62 345.363C622.967 345.33 622.41 345.528 621.947 345.959C621.486 346.376 621.237 346.937 621.201 347.643C621.165 348.349 621.355 348.939 621.771 349.414ZM637.413 349.67L639.024 351.455C638.767 351.789 638.417 352.105 637.975 352.402C637.009 353.021 635.96 353.301 634.828 353.243C633.39 353.17 632.19 352.608 631.229 351.558C630.268 350.508 629.823 349.284 629.894 347.886C629.965 346.487 630.533 345.315 631.595 344.368C632.658 343.42 633.909 342.983 635.347 343.057C636.479 343.114 637.494 343.5 638.392 344.213C638.802 344.554 639.118 344.904 639.34 345.263L637.556 346.874C637.393 346.652 637.19 346.442 636.947 346.242C636.408 345.814 635.832 345.585 635.22 345.553C634.514 345.517 633.909 345.734 633.404 346.202C632.9 346.67 632.629 347.277 632.591 348.023C632.553 348.769 632.761 349.4 633.215 349.917C633.669 350.434 634.249 350.711 634.955 350.747C635.568 350.778 636.164 350.608 636.743 350.237C637.006 350.063 637.229 349.875 637.413 349.67ZM642.719 353.445L643.09 346.155L639.994 345.997L640.121 343.5L649.01 343.953L648.883 346.45L645.787 346.292L645.415 353.583L642.719 353.445ZM650.101 353.821L650.6 344.034L655.394 344.278C656.512 344.335 657.358 344.632 657.932 345.168C658.518 345.706 658.792 346.367 658.752 347.153C658.721 347.752 658.475 348.26 658.013 348.677C657.803 348.867 657.583 349.002 657.352 349.084C657.653 349.193 657.925 349.36 658.167 349.586C658.716 350.081 658.973 350.675 658.938 351.368C658.895 352.207 658.533 352.882 657.853 353.395C657.173 353.908 656.253 354.135 655.095 354.076L650.101 353.821ZM652.915 351.662L655.112 351.774C655.418 351.789 655.662 351.715 655.844 351.55C656.039 351.387 656.144 351.179 656.156 350.926C656.169 350.673 656.087 350.455 655.909 350.272C655.745 350.09 655.51 349.991 655.203 349.976L653.006 349.864L652.915 351.662ZM653.108 347.867L655.105 347.968C655.345 347.98 655.542 347.924 655.695 347.798C655.848 347.672 655.93 347.51 655.94 347.31C655.95 347.11 655.885 346.94 655.746 346.799C655.606 346.659 655.416 346.582 655.177 346.57L653.179 346.468L653.108 347.867ZM668.349 351.447L669.65 353.415C669.356 353.681 668.983 353.929 668.531 354.159C667.545 354.643 666.493 354.857 665.374 354.8C663.936 354.726 662.737 354.165 661.775 353.114C660.814 352.064 660.369 350.84 660.441 349.442C660.512 348.043 661.072 346.87 662.122 345.923C663.171 344.975 664.395 344.536 665.793 344.608C667.138 344.676 668.266 345.214 669.176 346.222C670.086 347.229 670.506 348.406 670.438 349.751C670.431 349.884 670.396 350.169 670.334 350.606L670.277 350.944L663.186 350.583C663.321 351.084 663.593 351.505 664.003 351.846C664.426 352.188 664.99 352.377 665.696 352.413C666.442 352.451 667.097 352.304 667.661 351.972C667.936 351.813 668.166 351.637 668.349 351.447ZM663.288 348.585L667.682 348.809C667.547 348.322 667.294 347.908 666.924 347.569C666.555 347.216 666.104 347.027 665.571 346.999C665.039 346.972 664.571 347.115 664.168 347.429C663.765 347.729 663.472 348.114 663.288 348.585ZM672.182 354.946L672.681 345.159L675.377 345.296L675.194 348.891L678.889 349.08L679.072 345.484L681.769 345.622L681.27 355.409L678.574 355.272L678.762 351.576L675.067 351.388L674.878 355.083L672.182 354.946ZM683.866 355.541L684.365 345.754L687.061 345.891L686.878 349.487L690.573 349.675L690.756 346.08L693.453 346.217L692.954 356.004L690.258 355.867L690.446 352.172L686.751 351.983L686.563 355.679L683.866 355.541ZM701.043 356.416L701.104 355.218L701.004 355.213C700.75 355.494 700.491 355.714 700.23 355.874C699.62 356.31 698.889 356.507 698.037 356.463C697.145 356.418 696.432 356.121 695.899 355.574C695.38 355.013 695.142 354.327 695.183 353.514C695.224 352.715 695.511 352.049 696.046 351.516C696.594 350.97 697.325 350.64 698.239 350.526L701.364 350.124C701.329 349.749 701.172 349.434 700.891 349.179C700.611 348.911 700.225 348.765 699.732 348.74C699.119 348.708 698.571 348.867 698.085 349.217C697.837 349.377 697.635 349.547 697.479 349.726L695.962 348.047C696.273 347.702 696.629 347.407 697.029 347.16C697.993 346.568 699.002 346.299 700.054 346.353C701.279 346.415 702.265 346.839 703.013 347.625C703.76 348.411 704.106 349.356 704.05 350.462L703.739 356.554L701.043 356.416ZM701.257 352.222L701.267 352.022L699.049 352.31C698.31 352.419 697.926 352.733 697.9 353.252C697.866 353.918 698.249 354.271 699.047 354.312C699.647 354.343 700.157 354.162 700.577 353.769C700.998 353.377 701.224 352.861 701.257 352.222ZM705.438 356.64L707.713 353.252C707.401 353.089 707.126 352.861 706.887 352.569C706.359 351.928 706.116 351.194 706.158 350.369C706.208 349.397 706.616 348.59 707.383 347.948C708.15 347.306 709.099 347.014 710.231 347.072L714.725 347.301L714.227 357.088L711.53 356.951L711.678 354.054L710.18 353.978L708.434 356.793L705.438 356.64ZM710.197 351.676L711.795 351.757L711.907 349.56L710.309 349.479C709.923 349.459 709.604 349.55 709.354 349.75C709.104 349.938 708.971 350.192 708.954 350.511C708.938 350.831 709.044 351.103 709.273 351.328C709.503 351.54 709.811 351.656 710.197 351.676ZM719.727 357.368L719.854 354.871L720.09 354.943C720.275 354.98 720.428 355.001 720.548 355.007C720.921 355.026 721.212 354.941 721.422 354.751C721.645 354.562 721.841 354.125 722.009 353.439C722.191 352.754 722.315 351.773 722.38 350.494L722.522 347.698L730.512 348.105L730.013 357.892L727.317 357.755L727.688 350.464L725.091 350.332L725.076 350.632C724.829 355.492 723.506 357.861 721.11 357.739C720.697 357.718 720.353 357.654 720.078 357.546C719.87 357.442 719.753 357.383 719.727 357.368ZM738.104 358.304L738.165 357.106L738.065 357.101C737.811 357.381 737.553 357.602 737.291 357.762C736.681 358.198 735.95 358.395 735.098 358.351C734.206 358.306 733.493 358.009 732.961 357.462C732.442 356.901 732.203 356.215 732.244 355.402C732.285 354.603 732.573 353.937 733.107 353.404C733.656 352.858 734.387 352.528 735.3 352.414L738.425 352.012C738.391 351.637 738.233 351.322 737.952 351.067C737.672 350.799 737.286 350.653 736.793 350.628C736.181 350.596 735.632 350.755 735.147 351.104C734.898 351.265 734.696 351.435 734.54 351.614L733.024 349.935C733.335 349.59 733.69 349.295 734.09 349.048C735.055 348.456 736.063 348.187 737.115 348.241C738.34 348.303 739.326 348.727 740.074 349.513C740.822 350.299 741.167 351.244 741.111 352.35L740.801 358.442L738.104 358.304ZM738.318 354.11L738.328 353.91L736.111 354.198C735.371 354.307 734.988 354.621 734.961 355.14C734.927 355.806 735.31 356.159 736.109 356.2C736.708 356.231 737.218 356.05 737.638 355.657C738.059 355.265 738.285 354.749 738.318 354.11ZM752.141 344.2L753.422 346.568C753.108 346.713 752.754 346.848 752.36 346.975C751.396 347.3 750.462 347.532 749.561 347.673C748.604 347.838 747.882 348.129 747.394 348.544C746.906 348.947 746.547 349.569 746.317 350.412C746.517 350.168 746.747 349.967 747.009 349.806C747.657 349.399 748.314 349.212 748.98 349.246C750.285 349.312 751.386 349.849 752.282 350.856C753.179 351.863 753.593 353.039 753.525 354.384C753.455 355.742 752.91 356.876 751.889 357.785C750.882 358.682 749.68 359.094 748.282 359.023C746.737 358.944 745.494 358.314 744.553 357.131C743.626 355.935 743.213 354.346 743.314 352.362C743.427 350.151 743.96 348.456 744.915 347.277C745.884 346.084 747.108 345.366 748.589 345.121C749.101 345.04 749.905 344.847 751.002 344.543C751.11 344.508 751.293 344.457 751.55 344.39C751.808 344.31 752.005 344.247 752.141 344.2ZM746.805 355.784C747.222 356.245 747.756 356.493 748.409 356.526C749.061 356.559 749.619 356.368 750.08 355.951C750.543 355.52 750.792 354.952 750.828 354.246C750.864 353.541 750.673 352.957 750.256 352.495C749.84 352.02 749.306 351.766 748.653 351.732C748.001 351.699 747.443 351.898 746.981 352.328C746.519 352.745 746.27 353.307 746.234 354.012C746.198 354.718 746.388 355.309 746.805 355.784ZM758.248 356.287C758.703 356.804 759.283 357.08 759.988 357.116C760.694 357.152 761.299 356.936 761.804 356.468C762.308 355.999 762.579 355.392 762.617 354.647C762.655 353.901 762.447 353.27 761.993 352.752C761.539 352.235 760.959 351.959 760.253 351.923C759.547 351.887 758.942 352.103 758.438 352.571C757.933 353.04 757.662 353.647 757.624 354.392C757.586 355.138 757.794 355.769 758.248 356.287ZM756.262 357.928C755.301 356.877 754.856 355.653 754.927 354.255C754.999 352.857 755.566 351.684 756.629 350.737C757.692 349.79 758.942 349.353 760.38 349.426C761.818 349.499 763.018 350.061 763.979 351.111C764.94 352.162 765.385 353.386 765.314 354.784C765.243 356.182 764.676 357.355 763.613 358.302C762.55 359.249 761.299 359.686 759.861 359.613C758.423 359.54 757.223 358.978 756.262 357.928ZM766.845 363.974L767.558 349.992L770.254 350.129L770.183 351.528L770.283 351.533C770.483 351.262 770.75 351.009 771.082 350.772C771.829 350.276 772.621 350.05 773.46 350.092C774.645 350.153 775.646 350.691 776.462 351.707C777.291 352.724 777.669 353.958 777.595 355.41C777.52 356.874 777.019 358.07 776.09 358.998C775.176 359.912 774.126 360.34 772.941 360.279C772.102 360.236 771.337 359.93 770.645 359.361C770.338 359.092 770.099 358.813 769.927 358.524L769.827 358.518L769.542 364.111L766.845 363.974ZM770.529 356.912C770.984 357.429 771.564 357.706 772.269 357.742C772.975 357.778 773.58 357.562 774.085 357.093C774.589 356.625 774.86 356.018 774.898 355.272C774.936 354.527 774.728 353.895 774.274 353.378C773.82 352.861 773.24 352.584 772.534 352.548C771.828 352.513 771.223 352.729 770.719 353.197C770.214 353.665 769.943 354.272 769.905 355.018C769.867 355.764 770.075 356.395 770.529 356.912ZM782.319 357.513C782.773 358.03 783.353 358.306 784.059 358.342C784.765 358.378 785.37 358.162 785.874 357.694C786.379 357.226 786.65 356.619 786.688 355.873C786.726 355.127 786.518 354.496 786.063 353.979C785.609 353.462 785.029 353.185 784.323 353.149C783.618 353.113 783.012 353.329 782.508 353.798C782.003 354.266 781.732 354.873 781.694 355.618C781.656 356.364 781.864 356.996 782.319 357.513ZM780.333 359.154C779.372 358.104 778.927 356.879 778.998 355.481C779.069 354.083 779.636 352.91 780.699 351.963C781.762 351.016 783.012 350.579 784.451 350.652C785.889 350.726 787.088 351.287 788.049 352.338C789.011 353.388 789.456 354.612 789.384 356.01C789.313 357.408 788.746 358.581 787.683 359.528C786.62 360.475 785.37 360.912 783.932 360.839C782.493 360.766 781.294 360.204 780.333 359.154ZM793.032 361.102L793.403 353.812L790.307 353.654L790.434 351.157L799.323 351.61L799.195 354.107L796.099 353.949L795.728 361.24L793.032 361.102ZM803.19 358.576C803.644 359.093 804.224 359.37 804.93 359.406C805.636 359.441 806.241 359.225 806.745 358.757C807.25 358.289 807.521 357.682 807.559 356.936C807.597 356.19 807.389 355.559 806.935 355.042C806.48 354.525 805.9 354.248 805.195 354.212C804.489 354.176 803.884 354.392 803.379 354.861C802.875 355.329 802.604 355.936 802.566 356.682C802.528 357.427 802.736 358.059 803.19 358.576ZM801.204 360.217C800.243 359.167 799.798 357.943 799.869 356.544C799.94 355.146 800.507 353.973 801.57 353.026C802.633 352.079 803.884 351.642 805.322 351.715C806.76 351.789 807.96 352.351 808.921 353.401C809.882 354.451 810.327 355.675 810.256 357.073C810.184 358.472 809.617 359.644 808.554 360.591C807.492 361.539 806.241 361.976 804.803 361.902C803.365 361.829 802.165 361.267 801.204 360.217ZM811.787 366.263L812.499 352.281L815.196 352.419L815.125 353.817L815.224 353.822C815.425 353.552 815.692 353.298 816.024 353.062C816.77 352.566 817.563 352.339 818.402 352.382C819.587 352.442 820.588 352.98 821.404 353.997C822.233 355.013 822.611 356.248 822.537 357.699C822.462 359.164 821.961 360.36 821.032 361.287C820.118 362.202 819.068 362.629 817.883 362.569C817.044 362.526 816.279 362.22 815.587 361.651C815.28 361.381 815.04 361.102 814.868 360.813L814.768 360.808L814.484 366.401L811.787 366.263ZM815.471 359.202C815.925 359.719 816.505 359.995 817.211 360.031C817.917 360.067 818.522 359.851 819.026 359.383C819.531 358.914 819.802 358.307 819.84 357.562C819.878 356.816 819.67 356.185 819.216 355.667C818.761 355.15 818.181 354.874 817.476 354.838C816.77 354.802 816.165 355.018 815.66 355.486C815.156 355.955 814.885 356.562 814.847 357.307C814.809 358.053 815.017 358.684 815.471 359.202ZM824.289 362.695L824.788 352.907L827.485 353.045L827.2 358.638L831.679 353.258L834.076 353.381L833.577 363.168L830.881 363.03L831.166 357.438L826.686 362.817L824.289 362.695ZM835.27 363.254L837.545 359.865C837.233 359.703 836.958 359.475 836.719 359.183C836.191 358.541 835.948 357.808 835.99 356.983C836.039 356.01 836.447 355.204 837.214 354.562C837.981 353.92 838.931 353.628 840.063 353.686L844.557 353.914L844.058 363.702L841.362 363.564L841.509 360.668L840.011 360.592L838.266 363.407L835.27 363.254ZM840.028 358.29L841.626 358.371L841.738 356.174L840.14 356.093C839.754 356.073 839.436 356.164 839.185 356.364C838.935 356.552 838.802 356.805 838.786 357.125C838.77 357.445 838.876 357.717 839.105 357.942C839.334 358.154 839.642 358.27 840.028 358.29Z" fill="white"/>
<defs>
<linearGradient id="paint0_linear_456_1438" x1="67.5" y1="562.132" x2="67.5" y2="746" gradientUnits="userSpaceOnUse">
<stop stop-color="white"/>
<stop offset="0.058389" stop-color="white"/>
<stop offset="1" stop-color="white" stop-opacity="0"/>
</linearGradient>
<linearGradient id="paint1_linear_456_1438" x1="385.75" y1="408" x2="385.75" y2="746" gradientUnits="userSpaceOnUse">
<stop stop-color="white"/>
<stop offset="1" stop-color="white" stop-opacity="0"/>
</linearGradient>
<linearGradient id="paint2_linear_456_1438" x1="703.5" y1="423" x2="703.5" y2="746" gradientUnits="userSpaceOnUse">
<stop stop-color="white"/>
<stop offset="1" stop-color="white" stop-opacity="0"/>
</linearGradient>
<linearGradient id="paint3_linear_456_1438" x1="1021.25" y1="256" x2="1021.25" y2="746" gradientUnits="userSpaceOnUse">
<stop stop-color="white"/>
<stop offset="1" stop-color="white" stop-opacity="0"/>
</linearGradient>
<linearGradient id="paint4_linear_456_1438" x1="1339.5" y1="245" x2="1339.5" y2="746" gradientUnits="userSpaceOnUse">
<stop stop-color="white"/>
<stop offset="1" stop-color="white" stop-opacity="0"/>
</linearGradient>
</defs>
</svg>
