<svg width="1363" height="1239" viewBox="0 0 1363 1239" fill="none" xmlns="http://www.w3.org/2000/svg">
<g clip-path="url(#clip0_1_3)">
<path d="M893.296 1185.85C1248.25 1054.04 1441.72 693.287 1325.41 380.091C1209.11 66.8953 827.081 -80.1465 472.125 51.6641C117.169 183.475 -76.2974 544.223 40.0057 857.419C156.309 1170.61 538.34 1317.66 893.296 1185.85Z" fill="#6483CC"/>
<path d="M837.438 167.439C868.178 159.202 887.206 130.537 879.938 103.414C872.67 76.2907 841.859 60.9801 811.12 69.2168C780.38 77.4535 761.352 106.118 768.62 133.242C775.887 160.365 806.698 175.675 837.438 167.439Z" fill="#D9D9D9"/>
<path d="M837.438 167.439C868.178 159.202 887.206 130.537 879.938 103.414C872.67 76.2907 841.859 60.9801 811.12 69.2168C780.38 77.4535 761.352 106.118 768.62 133.242C775.887 160.365 806.698 175.675 837.438 167.439Z" fill="#142039"/>
</g>
<defs>
<clipPath id="clip0_1_3">
<rect width="1363" height="1239" fill="white" transform="matrix(-1 0 0 1 1363 0)"/>
</clipPath>
</defs>
</svg>
