<svg width="1363" height="1239" viewBox="0 0 1363 1239" fill="none" xmlns="http://www.w3.org/2000/svg">
<g clip-path="url(#clip0_1_3)">
<path d="M469.704 1185.85C114.749 1054.04 -78.7177 693.287 37.5855 380.091C153.889 66.8953 535.919 -80.1465 890.875 51.6641C1245.83 183.475 1439.3 544.223 1322.99 857.419C1206.69 1170.61 824.66 1317.66 469.704 1185.85Z" fill="#6483CC"/>
<path d="M551.88 167.439C521.141 175.675 490.33 160.365 483.062 133.242C475.794 106.118 494.822 77.4535 525.562 69.2168C556.301 60.9801 587.113 76.2907 594.38 103.414C601.648 130.537 582.62 159.202 551.88 167.439Z" fill="#D9D9D9"/>
<path d="M551.88 167.439C521.141 175.675 490.33 160.365 483.062 133.242C475.794 106.118 494.822 77.4535 525.562 69.2168C556.301 60.9801 587.113 76.2907 594.38 103.414C601.648 130.537 582.62 159.202 551.88 167.439Z" fill="#142039"/>
</g>
<defs>
<clipPath id="clip0_1_3">
<rect width="1363" height="1239" fill="white"/>
</clipPath>
</defs>
</svg>
