<svg width="2560" height="668" viewBox="0 0 2560 668" fill="none" xmlns="http://www.w3.org/2000/svg">
<path d="M-127.351 411.627L-74.6654 410.914C-21.9802 410.201 95.5839 408.384 220.717 446.535C348.066 484.295 482.984 519.564 578.711 494C672.224 468.828 716.566 382.824 794.268 325.99C871.97 269.157 987.461 283.17 1100.74 297.575C1216.23 311.589 1329.5 325.994 1444.99 340.007C1558.27 354.413 1673.76 368.426 1755.41 319.508C1837.07 270.59 1889.32 157.956 1986.78 140.7C2086.46 123.051 2231.36 200.78 2331.04 183.131C2428.5 165.875 2415 12.5001 2561.29 2.00012" stroke="#8EC748" stroke-width="3" stroke-linejoin="bevel"/>
<path fill-rule="evenodd" clip-rule="evenodd" d="M-127.35 411.627L-74.6652 410.914C-21.9801 410.201 95.584 408.384 220.717 446.535C348.066 484.295 482.984 519.564 578.712 494C672.224 468.828 716.566 382.824 794.268 325.99C871.97 269.157 987.461 283.17 1100.74 297.575C1216.23 311.588 1329.5 325.994 1444.99 340.007C1558.27 354.413 1673.76 368.425 1755.41 319.507C1837.07 270.589 1889.32 157.956 1986.78 140.7C2086.46 123.051 2231.36 200.78 2331.04 183.131C2428.51 165.875 2415 12.5 2561.29 1.99999L2561.29 667.499L2485.72 667.499L2476.16 667.5L2207.46 667.5L1942.95 667.5L1638.14 667.5L1415.62 667.5L1183.02 667.5L794.268 667.5L351.711 667.5L139.526 667.5L-127.351 667.5L-127.35 411.627Z" fill="#21386A"/>
<path opacity="0.5" d="M67 423V659" stroke="url(#paint0_linear_747_10988)" stroke-width="3"/>
<circle opacity="0.5" cx="67" cy="416" r="11" fill="#8EC748"/>
<circle opacity="0.5" cx="67" cy="416" r="9" fill="#8EC748"/>
<circle cx="67" cy="416" r="7" fill="white"/>
<circle opacity="0.5" cx="636.5" cy="469" r="11" fill="#8EC748"/>
<circle opacity="0.5" cx="636.5" cy="469" r="9" fill="#8EC748"/>
<circle cx="636.5" cy="469" r="7" fill="white"/>
<path opacity="0.5" d="M636.5 476V659" stroke="url(#paint1_linear_747_10988)" stroke-width="3"/>
<circle opacity="0.5" cx="1205.5" cy="312" r="11" fill="#8EC748"/>
<circle opacity="0.5" cx="1205.5" cy="312" r="9" fill="#8EC748"/>
<circle cx="1205.5" cy="312" r="7" fill="white"/>
<path opacity="0.5" d="M1205.5 319V659" stroke="url(#paint2_linear_747_10988)" stroke-width="3"/>
<circle opacity="0.5" cx="1774.5" cy="308" r="11" fill="#8EC748"/>
<circle opacity="0.5" cx="1774.5" cy="308" r="9" fill="#8EC748"/>
<circle cx="1774.5" cy="308" r="7" fill="white"/>
<path opacity="0.5" d="M1774.5 315V659" stroke="url(#paint3_linear_747_10988)" stroke-width="3"/>
<circle opacity="0.5" cx="2344" cy="181" r="11" fill="#8EC748"/>
<circle opacity="0.5" cx="2344" cy="181" r="9" fill="#8EC748"/>
<circle cx="2344" cy="181" r="7" fill="white"/>
<path opacity="0.5" d="M2344 188V659" stroke="url(#paint4_linear_747_10988)" stroke-width="3"/>
<rect x="1672" y="236.342" width="175" height="58" rx="29" transform="rotate(-16.3768 1672 236.342)" fill="#8EC748"/>
<path d="M1697.23 263.843L1698.59 261.36C1698.93 261.621 1699.35 261.845 1699.85 262.032C1700.93 262.408 1701.98 262.448 1702.99 262.151C1704.03 261.847 1704.82 261.293 1705.38 260.49C1705.95 259.684 1706.23 258.81 1706.21 257.869L1700.36 259.589L1699.6 256.998L1705.45 255.278C1704.96 254.518 1704.26 253.959 1703.35 253.602C1702.46 253.24 1701.49 253.212 1700.45 253.516C1699.45 253.81 1698.63 254.4 1697.97 255.288C1697.66 255.711 1697.43 256.127 1697.27 256.535L1694.79 255.18C1695.05 254.548 1695.39 253.961 1695.82 253.419C1696.81 252.156 1698.09 251.292 1699.66 250.83C1701.72 250.225 1703.65 250.402 1705.45 251.361C1707.26 252.316 1708.44 253.759 1709.01 255.691C1709.58 257.623 1709.36 259.48 1708.36 261.262C1707.36 263.04 1705.84 264.232 1703.78 264.838C1702.21 265.3 1700.63 265.275 1699.07 264.763C1698.38 264.519 1697.77 264.213 1697.23 263.843ZM1713.1 261.786L1710.34 252.384L1712.93 251.622L1714.05 255.46L1716.28 250.635L1719.35 249.733L1717.06 254.682L1722.31 259.079L1719.34 259.953L1715.87 257.012L1715.04 258.818L1715.69 261.025L1713.1 261.786ZM1725.12 255.084C1725.72 255.422 1726.36 255.491 1727.04 255.292C1727.72 255.093 1728.22 254.689 1728.54 254.08C1728.86 253.472 1728.91 252.809 1728.7 252.093C1728.49 251.376 1728.09 250.849 1727.49 250.511C1726.89 250.173 1726.25 250.104 1725.57 250.303C1724.89 250.502 1724.4 250.906 1724.07 251.515C1723.75 252.124 1723.7 252.786 1723.91 253.502C1724.12 254.219 1724.52 254.746 1725.12 255.084ZM1723.79 257.289C1722.54 256.615 1721.71 255.607 1721.32 254.264C1720.92 252.921 1721.07 251.626 1721.76 250.381C1722.45 249.136 1723.49 248.31 1724.87 247.904C1726.25 247.498 1727.57 247.632 1728.82 248.306C1730.08 248.98 1730.9 249.988 1731.29 251.331C1731.69 252.675 1731.54 253.969 1730.85 255.214C1730.16 256.459 1729.13 257.285 1727.74 257.691C1726.36 258.097 1725.04 257.963 1723.79 257.289ZM1732.98 251.045L1732.27 248.646L1738.7 246.757L1739.41 249.156L1732.98 251.045ZM1743.41 252.878L1739.46 239.446L1742.05 238.685L1748.35 243.088L1751.26 235.978L1753.85 235.217L1757.8 248.649L1754.92 249.495L1752.33 240.668L1749.59 247.309L1743.7 243.205L1746.29 252.032L1743.41 252.878ZM1766.94 242.524L1768.82 243.952C1768.63 244.3 1768.36 244.657 1768.01 245.024C1767.24 245.806 1766.31 246.356 1765.24 246.671C1763.86 247.077 1762.54 246.943 1761.29 246.27C1760.03 245.596 1759.21 244.588 1758.81 243.244C1758.42 241.901 1758.56 240.609 1759.24 239.368C1759.91 238.126 1760.93 237.308 1762.27 236.913C1763.56 236.534 1764.8 236.669 1765.99 237.319C1767.19 237.97 1767.97 238.941 1768.35 240.233C1768.39 240.361 1768.45 240.642 1768.54 241.075L1768.59 241.412L1761.78 243.414C1762.07 243.843 1762.47 244.15 1762.97 244.337C1763.48 244.52 1764.08 244.512 1764.76 244.312C1765.47 244.102 1766.04 243.747 1766.46 243.247C1766.67 243.006 1766.83 242.765 1766.94 242.524ZM1761.22 241.496L1765.44 240.255C1765.15 239.839 1764.78 239.533 1764.31 239.335C1763.85 239.124 1763.36 239.094 1762.85 239.244C1762.34 239.395 1761.94 239.684 1761.67 240.113C1761.39 240.529 1761.24 240.99 1761.22 241.496ZM1773.54 244.023L1771.48 237.02L1768.51 237.894L1767.8 235.495L1776.34 232.986L1777.05 235.384L1774.07 236.258L1776.13 243.262L1773.54 244.023ZM1782.29 238.282C1782.89 238.62 1783.53 238.69 1784.21 238.491C1784.89 238.291 1785.39 237.887 1785.71 237.279C1786.03 236.67 1786.09 236.007 1785.88 235.291C1785.67 234.575 1785.26 234.048 1784.66 233.71C1784.06 233.372 1783.42 233.302 1782.74 233.501C1782.07 233.701 1781.57 234.105 1781.25 234.713C1780.92 235.322 1780.87 235.985 1781.08 236.701C1781.29 237.417 1781.7 237.944 1782.29 238.282ZM1780.96 240.488C1779.71 239.814 1778.88 238.805 1778.49 237.462C1778.09 236.119 1778.24 234.825 1778.93 233.58C1779.62 232.335 1780.66 231.509 1782.04 231.103C1783.42 230.697 1784.74 230.831 1785.99 231.504C1787.25 232.178 1788.07 233.187 1788.47 234.53C1788.86 235.873 1788.71 237.167 1788.02 238.412C1787.33 239.657 1786.3 240.483 1784.92 240.889C1783.53 241.295 1782.22 241.161 1780.96 240.488ZM1791.14 241.145L1789.81 236.636L1790.39 236.467C1790.58 236.161 1790.73 235.754 1790.86 235.243C1791.1 234.172 1791.03 232.99 1790.65 231.698L1789.86 229.012L1797.06 226.897L1799.12 233.901L1800.37 233.534L1801.69 238.044L1799.1 238.805L1798.48 236.694L1793.11 238.273L1793.73 240.384L1791.14 241.145ZM1793.17 235.649L1796.53 234.662L1795.17 230.057L1793.16 230.649L1793.24 230.937C1793.62 232.203 1793.72 233.376 1793.55 234.454C1793.44 234.986 1793.31 235.384 1793.17 235.649ZM1802.71 235.452L1799.94 226.05L1802.54 225.288L1804.11 230.661L1806.56 224.104L1808.87 223.427L1811.63 232.83L1809.04 233.591L1807.46 228.218L1805.01 234.775L1802.71 235.452ZM1814.12 232.098L1811.36 222.696L1813.95 221.935L1815.07 225.772L1817.31 220.948L1820.38 220.046L1818.08 224.994L1823.33 229.392L1820.36 230.266L1816.89 227.325L1816.06 229.13L1816.71 231.337L1814.12 232.098ZM1824.48 229.053L1821.72 219.651L1824.31 218.889L1825.89 224.262L1828.34 217.705L1830.64 217.028L1833.41 226.431L1830.81 227.192L1829.24 221.819L1826.79 228.376L1824.48 229.053Z" fill="white"/>
<rect x="2180.89" y="47" width="211" height="58" rx="29" transform="rotate(11.8288 2180.89 47)" fill="#778FC7"/>
<path d="M2191.42 85.9859L2194.29 72.2832L2205.94 74.7226L2203.07 88.4253L2200.13 87.8103L2202.42 76.8481L2196.65 75.6387L2194.35 86.6009L2191.42 85.9859ZM2205.25 93.1731L2208.12 79.4704L2210.76 80.0239L2210.47 81.3942L2210.57 81.4147C2210.81 81.1789 2211.11 80.9698 2211.48 80.7874C2212.29 80.413 2213.11 80.3119 2213.93 80.4841C2215.09 80.7274 2216 81.4141 2216.65 82.5445C2217.31 83.6775 2217.49 84.9553 2217.19 86.3778C2216.89 87.8133 2216.21 88.9172 2215.15 89.6894C2214.11 90.4514 2213 90.7108 2211.84 90.4675C2211.02 90.2953 2210.31 89.8744 2209.71 89.2048C2209.45 88.8913 2209.26 88.5783 2209.13 88.266L2209.04 88.2455L2207.89 93.7266L2205.25 93.1731ZM2209.98 86.7674C2210.35 87.3487 2210.88 87.7117 2211.57 87.8566C2212.26 88.0015 2212.89 87.8817 2213.46 87.4972C2214.04 87.1127 2214.4 86.5551 2214.55 85.8243C2214.7 85.0935 2214.6 84.4374 2214.23 83.8562C2213.86 83.2749 2213.33 82.9119 2212.64 82.767C2211.94 82.6222 2211.31 82.742 2210.74 83.1264C2210.17 83.5109 2209.81 84.0685 2209.66 84.7993C2209.5 85.5302 2209.61 86.1862 2209.98 86.7674ZM2226.07 89.8716L2227.05 92.0183C2226.72 92.2349 2226.31 92.4221 2225.83 92.5799C2224.78 92.9051 2223.71 92.9529 2222.61 92.7233C2221.2 92.4282 2220.1 91.6873 2219.32 90.5008C2218.53 89.3143 2218.28 88.036 2218.57 86.6657C2218.85 85.2954 2219.59 84.2234 2220.77 83.4496C2221.96 82.6758 2223.23 82.4325 2224.6 82.7194C2225.92 82.9955 2226.95 83.7017 2227.7 84.8381C2228.44 85.9745 2228.67 87.2018 2228.4 88.5198C2228.37 88.6503 2228.29 88.9268 2228.16 89.3493L2228.05 89.6738L2221.1 88.2184C2221.16 88.7341 2221.36 89.1922 2221.71 89.5929C2222.08 89.9963 2222.61 90.2704 2223.3 90.4153C2224.03 90.5684 2224.7 90.5247 2225.31 90.2844C2225.61 90.1695 2225.86 90.0318 2226.07 89.8716ZM2221.51 86.2609L2225.82 87.1628C2225.76 86.6602 2225.58 86.2127 2225.26 85.8202C2224.95 85.4147 2224.54 85.1573 2224.02 85.048C2223.49 84.9386 2223.01 85.0075 2222.56 85.2545C2222.12 85.4884 2221.77 85.8239 2221.51 86.2609ZM2229.31 93.9228L2231.32 84.3309L2233.67 84.8229L2235.75 89.0388L2239.35 86.0118L2241.7 86.5038L2239.69 96.0957L2237.05 95.5422L2238.22 89.9632L2234.99 92.6602L2233.13 88.8973L2231.96 94.4762L2229.31 93.9228ZM2242.24 96.6293L2244.25 87.0374L2246.89 87.5908L2245.74 93.0719L2251 88.4518L2253.35 88.9438L2251.34 98.5356L2248.7 97.9822L2249.85 92.5011L2244.59 97.1212L2242.24 96.6293ZM2252.49 102.762L2253.01 100.315C2253.12 100.394 2253.22 100.449 2253.3 100.478C2253.52 100.593 2253.77 100.679 2254.04 100.736C2254.81 100.897 2255.45 100.622 2255.95 99.91L2256.25 99.4616L2254.52 89.1886L2257.36 89.7831L2258.28 96.6165L2258.37 96.637L2261.86 90.726L2264.7 91.3205L2258.61 100.875C2257.96 101.897 2257.28 102.619 2256.56 103.042C2255.86 103.48 2255.07 103.607 2254.19 103.424C2253.72 103.326 2253.32 103.193 2252.97 103.025C2252.92 103.001 2252.84 102.957 2252.73 102.893C2252.62 102.843 2252.54 102.799 2252.49 102.762ZM2263.86 101.157L2265.87 91.5655L2268.22 92.0575L2270.3 96.2734L2273.89 93.2464L2276.24 93.7384L2274.23 103.33L2271.59 102.777L2272.76 97.1979L2269.54 99.8948L2267.67 96.1319L2266.5 101.711L2263.86 101.157ZM2280.89 104.725L2282.9 95.1328L2285.54 95.6863L2284.72 99.6013L2288.97 96.4037L2292.1 97.0597L2287.74 100.335L2290.29 106.693L2287.25 106.057L2285.58 101.825L2284.01 103.027L2283.53 105.278L2280.89 104.725ZM2296.65 108.026L2296.9 106.852L2296.8 106.831C2296.51 107.069 2296.22 107.247 2295.93 107.365C2295.26 107.701 2294.51 107.782 2293.68 107.607C2292.8 107.424 2292.14 107.02 2291.7 106.397C2291.28 105.763 2291.15 105.047 2291.31 104.251C2291.48 103.468 2291.87 102.855 2292.48 102.411C2293.1 101.956 2293.88 101.743 2294.8 101.773L2297.95 101.86C2297.97 101.484 2297.86 101.148 2297.63 100.853C2297.39 100.545 2297.03 100.34 2296.55 100.239C2295.95 100.113 2295.38 100.185 2294.85 100.455C2294.58 100.576 2294.35 100.712 2294.17 100.865L2292.93 98.9707C2293.29 98.6785 2293.69 98.4415 2294.12 98.2597C2295.17 97.8246 2296.21 97.7151 2297.24 97.931C2298.44 98.1824 2299.35 98.7542 2299.96 99.6463C2300.58 100.538 2300.77 101.526 2300.55 102.609L2299.3 108.58L2296.65 108.026ZM2297.52 103.915L2297.56 103.72L2295.32 103.66C2294.57 103.653 2294.15 103.904 2294.04 104.413C2293.9 105.066 2294.23 105.474 2295.01 105.638C2295.6 105.761 2296.13 105.661 2296.6 105.339C2297.08 105.016 2297.38 104.542 2297.52 103.915ZM2307.33 110.262L2307.98 107.13C2307.78 107.209 2307.55 107.264 2307.32 107.296C2306.78 107.388 2306.21 107.371 2305.61 107.245C2304.53 107.018 2303.72 106.49 2303.2 105.658C2302.68 104.827 2302.54 103.831 2302.79 102.67L2303.46 99.4398L2306.11 99.9932L2305.47 103.027C2305.37 103.523 2305.42 103.937 2305.64 104.268C2305.86 104.6 2306.21 104.818 2306.71 104.921C2307.19 105.023 2307.62 105.03 2307.99 104.945C2308.1 104.928 2308.27 104.873 2308.48 104.781L2309.34 100.67L2311.98 101.223L2309.97 110.815L2307.33 110.262ZM2320.43 109.634L2321.41 111.78C2321.08 111.997 2320.67 112.184 2320.19 112.342C2319.14 112.667 2318.07 112.715 2316.97 112.485C2315.56 112.19 2314.46 111.449 2313.68 110.263C2312.89 109.076 2312.64 107.798 2312.93 106.428C2313.21 105.058 2313.95 103.986 2315.13 103.212C2316.32 102.438 2317.59 102.195 2318.96 102.482C2320.28 102.758 2321.31 103.464 2322.06 104.6C2322.8 105.737 2323.03 106.964 2322.76 108.282C2322.73 108.412 2322.65 108.689 2322.52 109.111L2322.41 109.436L2315.46 107.981C2315.52 108.496 2315.72 108.954 2316.07 109.355C2316.44 109.758 2316.97 110.033 2317.66 110.177C2318.39 110.33 2319.06 110.287 2319.67 110.047C2319.96 109.932 2320.22 109.794 2320.43 109.634ZM2315.87 106.023L2320.18 106.925C2320.12 106.422 2319.94 105.975 2319.62 105.582C2319.31 105.177 2318.9 104.919 2318.37 104.81C2317.85 104.701 2317.37 104.77 2316.92 105.017C2316.48 105.251 2316.13 105.586 2315.87 106.023ZM2331.24 111.694L2332.56 113.707C2332.25 113.997 2331.86 114.255 2331.37 114.48C2330.32 114.941 2329.24 115.056 2328.13 114.824C2326.73 114.528 2325.63 113.788 2324.84 112.601C2324.05 111.415 2323.8 110.136 2324.09 108.766C2324.38 107.396 2325.12 106.325 2326.32 105.554C2327.51 104.783 2328.82 104.545 2330.23 104.84C2331.34 105.073 2332.28 105.611 2333.06 106.454C2333.41 106.855 2333.66 107.25 2333.83 107.638L2331.82 108.954C2331.69 108.709 2331.52 108.47 2331.31 108.235C2330.85 107.729 2330.31 107.413 2329.71 107.287C2329.02 107.142 2328.39 107.262 2327.82 107.647C2327.25 108.031 2326.89 108.589 2326.73 109.319C2326.58 110.05 2326.69 110.706 2327.06 111.288C2327.43 111.869 2327.96 112.232 2328.65 112.377C2329.25 112.502 2329.86 112.427 2330.49 112.15C2330.78 112.019 2331.03 111.867 2331.24 111.694ZM2335.9 116.245L2337.4 109.1L2334.36 108.465L2334.87 106.018L2343.58 107.842L2343.07 110.289L2340.04 109.654L2338.54 116.799L2335.9 116.245ZM2343.13 117.761L2345.14 108.169L2349.84 109.153C2350.94 109.382 2351.73 109.807 2352.21 110.425C2352.71 111.047 2352.87 111.743 2352.71 112.513C2352.59 113.1 2352.27 113.564 2351.75 113.904C2351.51 114.059 2351.27 114.159 2351.03 114.204C2351.31 114.358 2351.55 114.566 2351.76 114.826C2352.22 115.401 2352.39 116.027 2352.24 116.706C2352.07 117.528 2351.61 118.139 2350.86 118.541C2350.11 118.942 2349.16 119.023 2348.03 118.786L2343.13 117.761ZM2346.25 116.063L2348.4 116.514C2348.7 116.577 2348.95 116.541 2349.16 116.407C2349.38 116.276 2349.51 116.086 2349.56 115.838C2349.62 115.59 2349.57 115.362 2349.42 115.154C2349.29 114.949 2349.07 114.815 2348.77 114.752L2346.62 114.301L2346.25 116.063ZM2347.03 112.344L2348.98 112.754C2349.22 112.803 2349.42 112.777 2349.59 112.677C2349.76 112.576 2349.87 112.428 2349.91 112.232C2349.95 112.037 2349.91 111.859 2349.8 111.698C2349.68 111.537 2349.51 111.433 2349.27 111.383L2347.31 110.973L2347.03 112.344ZM2356.99 117.557C2357.36 118.139 2357.89 118.502 2358.58 118.646C2359.28 118.791 2359.91 118.671 2360.48 118.287C2361.05 117.903 2361.41 117.345 2361.56 116.614C2361.72 115.883 2361.61 115.227 2361.24 114.646C2360.87 114.065 2360.34 113.702 2359.65 113.557C2358.96 113.412 2358.33 113.532 2357.76 113.916C2357.18 114.301 2356.82 114.858 2356.67 115.589C2356.52 116.32 2356.62 116.976 2356.99 117.557ZM2354.78 118.871C2353.99 117.684 2353.74 116.406 2354.03 115.036C2354.31 113.665 2355.06 112.595 2356.25 111.824C2357.45 111.053 2358.75 110.815 2360.16 111.11C2361.57 111.405 2362.67 112.146 2363.46 113.332C2364.24 114.519 2364.49 115.797 2364.21 117.168C2363.92 118.538 2363.18 119.609 2361.98 120.38C2360.78 121.151 2359.48 121.389 2358.07 121.093C2356.66 120.798 2355.56 120.057 2354.78 118.871Z" fill="white"/>
<rect x="32.2437" y="325" width="208" height="58" rx="29" transform="rotate(7.17419 32.2437 325)" fill="#6483CC"/>
<path d="M49.1821 360.594L52.1586 360.969C52.701 361.037 53.1493 360.946 53.5034 360.695C53.8724 360.432 54.0861 360.069 54.1444 359.606C54.2027 359.143 54.0847 358.745 53.7907 358.413C53.5115 358.068 53.1007 357.862 52.5583 357.794L49.5818 357.419L49.1821 360.594ZM45.8559 362.998L47.6043 349.107L57.2284 350.319L56.8787 353.097L50.2312 352.26L49.9315 354.641L53.0072 355.028C54.4227 355.206 55.5145 355.767 56.2827 356.711C57.0658 357.642 57.3783 358.737 57.2201 359.993C57.0619 361.25 56.4872 362.239 55.496 362.961C54.5196 363.672 53.3237 363.938 51.9082 363.759L45.8559 362.998ZM68.0767 365.795L69.3006 356.071L71.9794 356.408L70.7556 366.132L68.0767 365.795ZM61.7289 362.577L63.3163 362.776C63.6603 362.82 63.9357 362.767 64.1426 362.618C64.3643 362.458 64.4943 362.226 64.5326 361.922C64.5709 361.617 64.5017 361.367 64.3249 361.17C64.163 360.961 63.9101 360.835 63.5661 360.792L61.9786 360.592L61.7289 362.577ZM58.7503 364.621L59.9742 354.897L62.653 355.235L62.2784 358.211L64.0643 358.436C65.1358 358.571 65.9748 359.006 66.5811 359.74C67.189 360.462 67.4323 361.306 67.3107 362.271C67.1891 363.237 66.7436 364.001 65.9741 364.562C65.2063 365.111 64.2866 365.318 63.2151 365.183L58.7503 364.621ZM80.7245 363.859L82.1989 365.758C81.9174 366.072 81.5451 366.361 81.0818 366.625C80.0725 367.17 79.0056 367.372 77.8812 367.23C76.4525 367.05 75.2978 366.401 74.4173 365.282C73.5368 364.164 73.184 362.91 73.3588 361.521C73.5337 360.132 74.1862 359.004 75.3165 358.139C76.4468 357.273 77.7263 356.93 79.155 357.11C80.2795 357.252 81.2631 357.711 82.1059 358.489C82.4892 358.86 82.7783 359.233 82.9732 359.606L81.0742 361.081C80.9288 360.848 80.7421 360.622 80.5141 360.406C80.0084 359.939 79.4513 359.667 78.8428 359.591C78.1417 359.502 77.5222 359.673 76.9843 360.102C76.4465 360.532 76.1309 361.117 76.0377 361.858C75.9444 362.599 76.1051 363.244 76.5198 363.793C76.9344 364.343 77.4923 364.662 78.1934 364.75C78.8019 364.826 79.409 364.701 80.0146 364.374C80.2892 364.221 80.5259 364.049 80.7245 363.859ZM85.735 368.017L86.6467 360.774L83.571 360.387L83.8832 357.907L92.7135 359.018L92.4013 361.499L89.3255 361.112L88.4139 368.354L85.735 368.017ZM92.5448 373.108L94.2932 359.217L96.9721 359.554L96.7972 360.943L96.8965 360.956C97.1166 360.701 97.4013 360.468 97.7504 360.257C98.5314 359.818 99.3386 359.651 100.172 359.756C101.349 359.904 102.307 360.515 103.046 361.589C103.797 362.664 104.082 363.923 103.901 365.365C103.717 366.82 103.129 367.976 102.134 368.832C101.154 369.676 100.076 370.024 98.8982 369.876C98.0647 369.771 97.3241 369.409 96.6764 368.79C96.3905 368.498 96.1725 368.202 96.0222 367.901L95.923 367.889L95.2237 373.445L92.5448 373.108ZM96.743 366.339C97.1576 366.888 97.7155 367.207 98.4166 367.295C99.1178 367.384 99.7373 367.213 100.275 366.783C100.813 366.354 101.129 365.769 101.222 365.028C101.315 364.287 101.154 363.642 100.74 363.093C100.325 362.543 99.7672 362.224 99.066 362.136C98.3649 362.048 97.7454 362.218 97.2076 362.648C96.6697 363.078 96.3542 363.663 96.2609 364.404C96.1677 365.144 96.3284 365.789 96.743 366.339ZM110.735 371.164L110.884 369.973L110.785 369.961C110.511 370.222 110.237 370.423 109.964 370.563C109.323 370.953 108.58 371.094 107.733 370.988C106.847 370.876 106.158 370.528 105.668 369.942C105.192 369.344 105.005 368.642 105.106 367.835C105.206 367.041 105.542 366.398 106.115 365.906C106.703 365.402 107.456 365.127 108.376 365.082L111.521 364.913C111.515 364.536 111.381 364.21 111.12 363.936C110.861 363.648 110.487 363.473 109.997 363.411C109.389 363.335 108.829 363.452 108.32 363.764C108.06 363.907 107.846 364.061 107.677 364.228L106.289 362.441C106.625 362.12 107.002 361.852 107.419 361.635C108.425 361.117 109.45 360.923 110.495 361.055C111.712 361.208 112.664 361.704 113.352 362.543C114.039 363.382 114.313 364.351 114.175 365.449L113.413 371.501L110.735 371.164ZM111.259 366.997L111.284 366.798L109.051 366.921C108.305 366.975 107.9 367.259 107.835 367.775C107.752 368.437 108.107 368.817 108.901 368.917C109.496 368.992 110.018 368.85 110.467 368.49C110.915 368.129 111.179 367.632 111.259 366.997ZM115.101 371.714L117.622 368.503C117.322 368.318 117.065 368.07 116.848 367.761C116.369 367.082 116.181 366.333 116.285 365.513C116.406 364.547 116.873 363.773 117.686 363.19C118.498 362.607 119.467 362.386 120.591 362.527L125.056 363.089L123.832 372.813L121.153 372.475L121.515 369.598L120.027 369.411L118.077 372.088L115.101 371.714ZM120.215 367.116L121.803 367.316L122.077 365.133L120.49 364.934C120.106 364.885 119.782 364.952 119.517 365.134C119.254 365.302 119.103 365.545 119.063 365.863C119.023 366.18 119.108 366.46 119.32 366.701C119.533 366.93 119.831 367.068 120.215 367.116ZM128.946 376.278L129.646 370.722L130.439 370.822C130.86 370.472 131.29 369.989 131.731 369.372C132.648 367.956 133.229 366.275 133.474 364.33L134.021 359.985L143.645 361.196L142.246 372.308L143.933 372.521L143.234 378.077L140.257 377.702L140.607 374.924L132.272 373.875L131.923 376.653L128.946 376.278ZM133.614 371.222L139.27 371.934L140.319 363.599L136.648 363.137L136.448 364.725C136.201 366.683 135.654 368.361 134.806 369.759C134.404 370.394 134.007 370.881 133.614 371.222ZM148.452 372.848C148.867 373.397 149.425 373.716 150.126 373.804C150.827 373.892 151.446 373.722 151.984 373.292C152.522 372.863 152.838 372.277 152.931 371.537C153.024 370.796 152.863 370.151 152.449 369.601C152.034 369.052 151.476 368.733 150.775 368.645C150.074 368.557 149.455 368.727 148.917 369.157C148.379 369.586 148.063 370.171 147.97 370.912C147.877 371.653 148.038 372.298 148.452 372.848ZM146.35 374.337C145.469 373.218 145.116 371.964 145.291 370.575C145.466 369.186 146.119 368.059 147.249 367.193C148.379 366.327 149.659 365.985 151.087 366.164C152.516 366.344 153.671 366.993 154.551 368.112C155.432 369.231 155.785 370.485 155.61 371.874C155.435 373.263 154.782 374.39 153.652 375.256C152.522 376.121 151.242 376.464 149.814 376.285C148.385 376.105 147.23 375.455 146.35 374.337ZM164.361 374.386L165.836 376.285C165.554 376.599 165.182 376.889 164.719 377.153C163.709 377.698 162.643 377.899 161.518 377.758C160.089 377.578 158.935 376.929 158.054 375.81C157.174 374.691 156.821 373.437 156.996 372.048C157.171 370.659 157.823 369.532 158.953 368.666C160.084 367.801 161.363 367.458 162.792 367.638C163.916 367.779 164.9 368.239 165.743 369.017C166.126 369.388 166.415 369.76 166.61 370.134L164.711 371.608C164.566 371.375 164.379 371.15 164.151 370.933C163.645 370.466 163.088 370.195 162.48 370.118C161.779 370.03 161.159 370.2 160.621 370.63C160.083 371.06 159.768 371.645 159.675 372.386C159.581 373.126 159.742 373.771 160.157 374.321C160.571 374.87 161.129 375.189 161.83 375.277C162.439 375.354 163.046 375.229 163.651 374.902C163.926 374.748 164.163 374.577 164.361 374.386ZM169.372 378.545L170.284 371.302L167.208 370.915L167.52 368.434L176.35 369.546L176.038 372.026L172.962 371.639L172.051 378.882L169.372 378.545ZM181.969 380.13L182.119 378.94L182.02 378.927C181.745 379.188 181.471 379.389 181.198 379.529C180.558 379.919 179.815 380.061 178.968 379.954C178.082 379.843 177.393 379.494 176.902 378.908C176.427 378.311 176.24 377.608 176.341 376.801C176.441 376.008 176.777 375.365 177.35 374.872C177.937 374.368 178.691 374.094 179.611 374.048L182.756 373.88C182.75 373.503 182.616 373.177 182.355 372.902C182.096 372.614 181.721 372.439 181.232 372.378C180.623 372.301 180.064 372.419 179.555 372.731C179.295 372.873 179.081 373.027 178.912 373.194L177.524 371.407C177.86 371.086 178.237 370.818 178.653 370.602C179.659 370.083 180.685 369.89 181.73 370.021C182.947 370.175 183.899 370.671 184.586 371.51C185.274 372.349 185.548 373.317 185.41 374.415L184.648 380.468L181.969 380.13ZM182.494 375.963L182.519 375.765L180.286 375.887C179.54 375.941 179.135 376.226 179.07 376.742C178.987 377.403 179.342 377.784 180.136 377.884C180.731 377.959 181.253 377.816 181.701 377.456C182.15 377.096 182.414 376.598 182.494 375.963ZM187.229 380.792L188.453 371.069L193.215 371.669C194.326 371.809 195.148 372.167 195.68 372.745C196.225 373.324 196.449 374.004 196.35 374.785C196.275 375.38 195.992 375.868 195.501 376.25C195.277 376.423 195.047 376.542 194.811 376.607C195.103 376.737 195.362 376.925 195.587 377.168C196.097 377.703 196.309 378.314 196.223 379.002C196.118 379.835 195.707 380.482 194.991 380.943C194.274 381.404 193.34 381.562 192.19 381.417L187.229 380.792ZM190.195 378.848L192.378 379.122C192.682 379.161 192.931 379.105 193.124 378.954C193.331 378.806 193.45 378.606 193.482 378.354C193.514 378.103 193.448 377.88 193.284 377.684C193.134 377.491 192.907 377.375 192.602 377.336L190.42 377.062L190.195 378.848ZM190.669 375.077L192.654 375.327C192.892 375.357 193.092 375.315 193.254 375.201C193.416 375.087 193.51 374.931 193.535 374.733C193.56 374.534 193.508 374.36 193.379 374.209C193.25 374.058 193.067 373.968 192.829 373.938L190.844 373.688L190.669 375.077ZM197.848 382.129L199.072 372.406L201.751 372.743L201.251 376.712L205.223 373.18L208.398 373.58L204.314 377.198L207.373 383.328L204.297 382.941L202.291 378.858L200.814 380.184L200.527 382.466L197.848 382.129ZM213.827 384.14L213.977 382.95L213.878 382.937C213.603 383.198 213.329 383.399 213.056 383.539C212.416 383.929 211.673 384.071 210.826 383.964C209.94 383.853 209.251 383.504 208.76 382.918C208.285 382.321 208.097 381.618 208.199 380.812C208.299 380.018 208.635 379.375 209.208 378.882C209.795 378.378 210.549 378.104 211.469 378.058L214.614 377.89C214.608 377.513 214.474 377.187 214.213 376.912C213.954 376.624 213.579 376.449 213.09 376.388C212.481 376.311 211.922 376.429 211.413 376.741C211.153 376.883 210.939 377.037 210.77 377.204L209.382 375.417C209.718 375.096 210.094 374.828 210.511 374.612C211.517 374.093 212.543 373.9 213.588 374.031C214.805 374.185 215.757 374.681 216.444 375.52C217.132 376.359 217.406 377.327 217.268 378.425L216.506 384.478L213.827 384.14ZM214.352 379.973L214.377 379.775L212.144 379.897C211.398 379.951 210.993 380.236 210.928 380.752C210.845 381.413 211.2 381.794 211.994 381.894C212.589 381.969 213.111 381.826 213.559 381.466C214.008 381.106 214.272 380.608 214.352 379.973Z" fill="white"/>
<rect x="482" y="402.745" width="282" height="58" rx="29" transform="rotate(-11.8161 482 402.745)" fill="#8EC748"/>
<path d="M516.385 427.734L518.752 429.282C518.451 429.862 518.057 430.422 517.57 430.959C516.43 432.151 515.058 432.915 513.452 433.251C511.351 433.691 509.437 433.362 507.709 432.266C505.994 431.168 504.931 429.633 504.519 427.662C504.106 425.691 504.465 423.859 505.596 422.165C506.739 420.468 508.362 419.4 510.463 418.961C512.068 418.625 513.606 418.78 515.076 419.426C515.706 419.703 516.284 420.058 516.811 420.493L515.263 422.86C514.931 422.576 514.53 422.319 514.06 422.09C513.062 421.618 512.054 421.488 511.036 421.701C509.809 421.958 508.855 422.607 508.174 423.649C507.503 424.674 507.296 425.801 507.553 427.027C507.81 428.254 508.452 429.209 509.481 429.893C510.52 430.561 511.652 430.767 512.879 430.511C513.91 430.295 514.814 429.765 515.591 428.921C515.943 428.521 516.208 428.125 516.385 427.734ZM522.858 427.871C523.428 428.256 524.06 428.376 524.751 428.231C525.443 428.086 525.973 427.723 526.342 427.142C526.711 426.561 526.819 425.905 526.666 425.174C526.513 424.443 526.151 423.886 525.58 423.501C525.01 423.117 524.378 422.997 523.687 423.141C522.995 423.286 522.465 423.649 522.096 424.23C521.727 424.811 521.619 425.467 521.772 426.198C521.925 426.929 522.287 427.487 522.858 427.871ZM521.354 429.963C520.158 429.192 519.416 428.121 519.129 426.751C518.843 425.381 519.093 424.102 519.88 422.916C520.667 421.73 521.765 420.989 523.175 420.694C524.584 420.399 525.887 420.638 527.084 421.409C528.281 422.18 529.022 423.251 529.309 424.621C529.596 425.992 529.345 427.27 528.558 428.456C527.771 429.643 526.673 430.383 525.263 430.678C523.854 430.973 522.551 430.735 521.354 429.963ZM532.267 429.009L530.26 419.416L534.958 418.433C536.055 418.204 536.948 418.276 537.639 418.649C538.343 419.019 538.776 419.59 538.937 420.36C539.06 420.947 538.951 421.501 538.61 422.022C538.456 422.258 538.277 422.446 538.074 422.583C538.393 422.612 538.699 422.705 538.991 422.862C539.647 423.201 540.047 423.71 540.189 424.389C540.361 425.211 540.183 425.956 539.655 426.625C539.128 427.294 538.296 427.747 537.161 427.985L532.267 429.009ZM534.439 426.205L536.592 425.754C536.892 425.691 537.109 425.557 537.243 425.352C537.391 425.144 537.438 424.916 537.386 424.668C537.335 424.42 537.2 424.231 536.981 424.099C536.776 423.965 536.524 423.929 536.223 423.992L534.07 424.443L534.439 426.205ZM533.66 422.485L535.618 422.075C535.853 422.026 536.029 421.922 536.145 421.761C536.261 421.6 536.299 421.422 536.258 421.227C536.217 421.031 536.111 420.883 535.94 420.782C535.769 420.682 535.566 420.656 535.331 420.705L533.374 421.115L533.66 422.485ZM543.603 430.928L540.736 417.225L543.379 416.672L543.666 418.042L543.764 418.022C543.889 417.709 544.082 417.396 544.344 417.083C544.939 416.413 545.648 415.993 546.47 415.821C547.632 415.578 548.736 415.844 549.784 416.619C550.845 417.392 551.524 418.489 551.821 419.912C552.122 421.347 551.941 422.632 551.279 423.764C550.627 424.882 549.721 425.562 548.559 425.805C547.737 425.977 546.919 425.875 546.105 425.501C545.74 425.318 545.437 425.109 545.197 424.873L545.099 424.894L546.246 430.375L543.603 430.928ZM545.37 423.162C545.941 423.546 546.572 423.666 547.264 423.521C547.956 423.377 548.486 423.014 548.855 422.433C549.224 421.851 549.332 421.195 549.179 420.465C549.026 419.734 548.664 419.176 548.093 418.791C547.522 418.407 546.891 418.287 546.199 418.432C545.508 418.576 544.977 418.939 544.608 419.52C544.24 420.102 544.132 420.758 544.285 421.488C544.438 422.219 544.799 422.777 545.37 423.162ZM561.355 419.552L563.114 421.125C562.897 421.456 562.599 421.791 562.221 422.129C561.39 422.848 560.427 423.322 559.331 423.551C557.921 423.846 556.618 423.608 555.421 422.836C554.225 422.065 553.483 420.994 553.196 419.624C552.91 418.254 553.153 416.977 553.927 415.793C554.701 414.61 555.774 413.874 557.144 413.588C558.462 413.312 559.689 413.546 560.826 414.289C561.962 415.032 562.668 416.062 562.944 417.381C562.971 417.511 563.01 417.796 563.061 418.235L563.091 418.576L556.142 420.029C556.399 420.48 556.77 420.818 557.253 421.043C557.749 421.267 558.343 421.306 559.035 421.161C559.766 421.008 560.362 420.7 560.823 420.235C561.049 420.011 561.226 419.783 561.355 419.552ZM555.732 418.072L560.039 417.171C559.784 416.734 559.435 416.398 558.991 416.164C558.544 415.917 558.06 415.848 557.538 415.957C557.016 416.067 556.599 416.324 556.289 416.729C555.976 417.122 555.791 417.569 555.732 418.072ZM565.952 421.962L563.945 412.369L566.294 411.878L569.89 414.906L571.971 410.69L574.32 410.199L576.327 419.791L573.684 420.344L572.517 414.765L570.648 418.527L567.427 415.83L568.594 421.409L565.952 421.962ZM585.442 414.513L587.202 416.086C586.985 416.417 586.687 416.752 586.309 417.09C585.478 417.809 584.515 418.283 583.418 418.512C582.009 418.807 580.706 418.569 579.509 417.797C578.313 417.026 577.571 415.955 577.284 414.585C576.998 413.214 577.241 411.937 578.015 410.754C578.789 409.57 579.862 408.835 581.232 408.548C582.55 408.273 583.777 408.506 584.913 409.249C586.05 409.993 586.756 411.023 587.031 412.341C587.059 412.472 587.098 412.756 587.149 413.195L587.179 413.536L580.23 414.99C580.487 415.44 580.858 415.778 581.341 416.004C581.837 416.227 582.431 416.266 583.123 416.122C583.854 415.969 584.45 415.66 584.911 415.196C585.137 414.972 585.314 414.744 585.442 414.513ZM579.82 413.033L584.127 412.132C583.872 411.695 583.523 411.359 583.079 411.125C582.632 410.878 582.147 410.809 581.625 410.918C581.103 411.027 580.687 411.285 580.377 411.69C580.064 412.082 579.879 412.53 579.82 413.033ZM590.04 416.922L588.033 407.33L590.676 406.777L591.413 410.301L595.034 409.543L594.297 406.02L596.94 405.467L598.947 415.059L596.304 415.612L595.546 411.99L591.925 412.748L592.682 416.37L590.04 416.922ZM601.491 414.527L599.484 404.934L602.127 404.382L602.864 407.905L606.486 407.148L605.748 403.624L608.391 403.071L610.398 412.663L607.755 413.216L606.998 409.595L603.376 410.352L604.134 413.974L601.491 414.527ZM622.143 410.206L620.136 400.614L622.779 400.061L624.786 409.653L622.143 410.206ZM615.093 409.229L616.66 408.901C616.999 408.83 617.242 408.691 617.389 408.483C617.547 408.259 617.594 407.998 617.531 407.697C617.469 407.397 617.322 407.183 617.09 407.054C616.869 406.91 616.589 406.873 616.25 406.944L614.684 407.271L615.093 409.229ZM612.942 412.131L610.935 402.539L613.578 401.986L614.192 404.922L615.954 404.554C617.011 404.333 617.946 404.471 618.759 404.968C619.568 405.453 620.073 406.171 620.272 407.124C620.471 408.077 620.299 408.944 619.754 409.725C619.206 410.494 618.404 410.988 617.347 411.21L612.942 412.131ZM633.905 404.374L635.664 405.947C635.448 406.279 635.15 406.613 634.771 406.951C633.941 407.67 632.977 408.144 631.881 408.373C630.472 408.668 629.168 408.43 627.972 407.659C626.775 406.887 626.034 405.817 625.747 404.446C625.46 403.076 625.704 401.799 626.478 400.615C627.252 399.432 628.324 398.697 629.694 398.41C631.013 398.134 632.24 398.368 633.376 399.111C634.512 399.854 635.218 400.885 635.494 402.203C635.521 402.333 635.56 402.618 635.611 403.057L635.642 403.398L628.692 404.852C628.95 405.302 629.32 405.64 629.803 405.866C630.3 406.089 630.894 406.128 631.585 405.983C632.316 405.83 632.912 405.522 633.374 405.057C633.599 404.833 633.776 404.605 633.905 404.374ZM628.283 402.894L632.59 401.993C632.335 401.556 631.985 401.22 631.541 400.986C631.094 400.739 630.61 400.67 630.088 400.78C629.566 400.889 629.15 401.146 628.84 401.552C628.527 401.944 628.341 402.391 628.283 402.894ZM645.054 405.413L642.761 394.45L638.845 395.27L638.272 392.529L649.039 390.276L649.612 393.017L645.697 393.836L647.99 404.799L645.054 405.413ZM658.968 399.131L660.727 400.704C660.511 401.035 660.213 401.37 659.834 401.708C659.004 402.427 658.04 402.901 656.944 403.13C655.534 403.425 654.231 403.187 653.035 402.415C651.838 401.644 651.096 400.573 650.81 399.203C650.523 397.833 650.767 396.556 651.541 395.372C652.315 394.189 653.387 393.453 654.757 393.167C656.075 392.891 657.303 393.125 658.439 393.868C659.575 394.611 660.281 395.641 660.557 396.959C660.584 397.09 660.623 397.375 660.674 397.814L660.705 398.155L653.755 399.608C654.013 400.059 654.383 400.397 654.866 400.622C655.363 400.845 655.957 400.885 656.648 400.74C657.379 400.587 657.975 400.278 658.437 399.814C658.662 399.59 658.839 399.362 658.968 399.131ZM653.346 397.651L657.652 396.75C657.398 396.313 657.048 395.977 656.604 395.743C656.157 395.496 655.673 395.427 655.151 395.536C654.629 395.646 654.213 395.903 653.903 396.308C653.59 396.701 653.404 397.148 653.346 397.651ZM662.003 401.867L664.405 396.257L660.192 392.234L663.227 391.599L665.662 394.155L665.74 394.138L666.946 390.821L669.981 390.186L667.733 395.56L672.183 399.738L669.149 400.372L666.477 397.662L666.399 397.678L665.038 401.232L662.003 401.867ZM673.353 399.493L671.346 389.901L673.989 389.348L674.726 392.871L678.348 392.114L677.611 388.59L680.253 388.037L682.26 397.629L679.617 398.182L678.86 394.561L675.238 395.318L675.996 398.94L673.353 399.493ZM686.942 393.544C687.513 393.929 688.144 394.049 688.836 393.904C689.528 393.759 690.058 393.396 690.427 392.815C690.795 392.234 690.903 391.578 690.751 390.847C690.598 390.116 690.236 389.559 689.665 389.174C689.094 388.789 688.463 388.67 687.771 388.814C687.079 388.959 686.549 389.322 686.18 389.903C685.812 390.484 685.704 391.14 685.856 391.871C686.009 392.602 686.371 393.16 686.942 393.544ZM685.439 395.636C684.242 394.865 683.5 393.794 683.214 392.424C682.927 391.054 683.177 389.775 683.964 388.589C684.751 387.403 685.85 386.662 687.259 386.367C688.669 386.072 689.972 386.311 691.168 387.082C692.365 387.853 693.107 388.924 693.393 390.294C693.68 391.665 693.43 392.943 692.643 394.129C691.856 395.316 690.757 396.056 689.348 396.351C687.938 396.646 686.635 396.408 685.439 395.636ZM694.888 394.988L694.376 392.541L694.623 392.55C694.811 392.538 694.964 392.52 695.081 392.495C695.447 392.419 695.707 392.262 695.862 392.026C696.03 391.786 696.108 391.313 696.096 390.607C696.098 389.899 695.968 388.918 695.706 387.665L695.132 384.924L702.963 383.286L704.969 392.879L702.327 393.432L700.832 386.286L698.287 386.819L698.348 387.112C699.345 391.876 698.669 394.503 696.319 394.995C695.915 395.079 695.566 395.105 695.273 395.071C695.045 395.023 694.916 394.995 694.888 394.988ZM709.654 388.793C710.224 389.177 710.856 389.297 711.547 389.153C712.239 389.008 712.769 388.645 713.138 388.064C713.507 387.483 713.615 386.827 713.462 386.096C713.309 385.365 712.947 384.807 712.376 384.423C711.806 384.038 711.174 383.918 710.483 384.063C709.791 384.208 709.261 384.571 708.892 385.152C708.523 385.733 708.415 386.389 708.568 387.12C708.721 387.851 709.083 388.408 709.654 388.793ZM708.15 390.885C706.953 390.114 706.212 389.043 705.925 387.673C705.638 386.302 705.889 385.024 706.676 383.838C707.463 382.651 708.561 381.911 709.971 381.616C711.38 381.321 712.683 381.559 713.88 382.331C715.076 383.102 715.818 384.173 716.105 385.543C716.391 386.913 716.141 388.192 715.354 389.378C714.567 390.564 713.469 391.305 712.059 391.6C710.65 391.895 709.347 391.656 708.15 390.885ZM719.063 389.93L717.056 380.338L724.103 378.864L724.615 381.311L720.211 382.232L721.706 389.377L719.063 389.93ZM727.685 388.127L725.678 378.534L728.321 377.981L729.467 383.463L732.432 377.121L734.781 376.63L736.788 386.222L734.145 386.775L732.998 381.294L730.034 387.635L727.685 388.127ZM739.327 385.691L737.32 376.099L739.963 375.546L741.11 381.027L744.074 374.686L746.423 374.194L748.43 383.787L745.787 384.339L744.641 378.858L741.676 385.199L739.327 385.691Z" fill="white"/>
<rect x="1066.95" y="200" width="288" height="58" rx="29" transform="rotate(2.91623 1066.95 200)" fill="#8FA6DB"/>
<path d="M1094.27 232.933L1096.17 235.032C1095.73 235.517 1095.21 235.958 1094.6 236.354C1093.19 237.217 1091.67 237.606 1090.03 237.523C1087.89 237.414 1086.12 236.61 1084.73 235.11C1083.35 233.611 1082.71 231.857 1082.81 229.846C1082.92 227.835 1083.73 226.154 1085.25 224.803C1086.79 223.453 1088.63 222.833 1090.78 222.942C1092.41 223.025 1093.86 223.566 1095.12 224.565C1095.66 224.993 1096.13 225.484 1096.52 226.039L1094.43 227.934C1094.18 227.574 1093.85 227.224 1093.46 226.884C1092.61 226.173 1091.67 225.791 1090.63 225.738C1089.38 225.675 1088.29 226.06 1087.37 226.894C1086.46 227.715 1085.97 228.752 1085.91 230.004C1085.85 231.255 1086.22 232.343 1087.05 233.266C1087.88 234.176 1088.92 234.663 1090.17 234.727C1091.23 234.78 1092.24 234.498 1093.2 233.88C1093.64 233.582 1094 233.266 1094.27 232.933ZM1100.5 234.712C1100.95 235.229 1101.53 235.505 1102.24 235.541C1102.94 235.577 1103.55 235.361 1104.05 234.893C1104.56 234.425 1104.83 233.818 1104.87 233.072C1104.9 232.326 1104.7 231.695 1104.24 231.178C1103.79 230.661 1103.21 230.384 1102.5 230.348C1101.8 230.312 1101.19 230.528 1100.69 230.997C1100.18 231.465 1099.91 232.072 1099.87 232.818C1099.83 233.563 1100.04 234.195 1100.5 234.712ZM1098.51 236.353C1097.55 235.303 1097.1 234.078 1097.18 232.68C1097.25 231.282 1097.81 230.109 1098.88 229.162C1099.94 228.215 1101.19 227.778 1102.63 227.851C1104.07 227.925 1105.27 228.486 1106.23 229.537C1107.19 230.587 1107.63 231.811 1107.56 233.209C1107.49 234.607 1106.92 235.78 1105.86 236.727C1104.8 237.674 1103.55 238.111 1102.11 238.038C1100.67 237.965 1099.47 237.403 1098.51 236.353ZM1118.05 223.831L1119.33 226.199C1119.02 226.343 1118.66 226.479 1118.27 226.605C1117.3 226.93 1116.37 227.163 1115.47 227.304C1114.51 227.469 1113.79 227.759 1113.3 228.175C1112.81 228.577 1112.46 229.2 1112.23 230.042C1112.43 229.799 1112.66 229.597 1112.92 229.437C1113.57 229.029 1114.22 228.843 1114.89 228.876C1116.19 228.943 1117.29 229.48 1118.19 230.487C1119.09 231.493 1119.5 232.669 1119.43 234.014C1119.36 235.373 1118.82 236.506 1117.8 237.416C1116.79 238.312 1115.59 238.725 1114.19 238.654C1112.65 238.575 1111.4 237.944 1110.46 236.761C1109.53 235.566 1109.12 233.976 1109.22 231.992C1109.34 229.782 1109.87 228.087 1110.82 226.907C1111.79 225.715 1113.02 224.996 1114.5 224.751C1115.01 224.67 1115.81 224.478 1116.91 224.173C1117.02 224.139 1117.2 224.088 1117.46 224.021C1117.72 223.941 1117.91 223.877 1118.05 223.831ZM1112.71 235.414C1113.13 235.876 1113.67 236.124 1114.32 236.157C1114.97 236.19 1115.53 235.998 1115.99 235.581C1116.45 235.151 1116.7 234.583 1116.74 233.877C1116.77 233.171 1116.58 232.587 1116.17 232.126C1115.75 231.65 1115.21 231.396 1114.56 231.363C1113.91 231.33 1113.35 231.528 1112.89 231.959C1112.43 232.376 1112.18 232.937 1112.14 233.643C1112.11 234.349 1112.3 234.939 1112.71 235.414ZM1128.36 235.67L1129.97 237.455C1129.71 237.789 1129.36 238.105 1128.92 238.402C1127.95 239.021 1126.9 239.301 1125.77 239.243C1124.33 239.17 1123.13 238.608 1122.17 237.558C1121.21 236.508 1120.76 235.284 1120.84 233.886C1120.91 232.487 1121.47 231.315 1122.54 230.368C1123.6 229.42 1124.85 228.983 1126.29 229.057C1127.42 229.114 1128.44 229.5 1129.33 230.213C1129.74 230.554 1130.06 230.904 1130.28 231.263L1128.5 232.874C1128.34 232.652 1128.13 232.442 1127.89 232.242C1127.35 231.814 1126.77 231.585 1126.16 231.553C1125.46 231.517 1124.85 231.734 1124.35 232.202C1123.84 232.67 1123.57 233.277 1123.53 234.023C1123.49 234.769 1123.7 235.4 1124.16 235.917C1124.61 236.434 1125.19 236.711 1125.9 236.747C1126.51 236.778 1127.11 236.608 1127.69 236.237C1127.95 236.063 1128.17 235.875 1128.36 235.67ZM1133.66 239.445L1134.03 232.155L1130.94 231.997L1131.06 229.5L1139.95 229.953L1139.82 232.45L1136.73 232.292L1136.36 239.583L1133.66 239.445ZM1141.04 239.821L1141.54 230.034L1146.34 230.278C1147.45 230.335 1148.3 230.632 1148.87 231.168C1149.46 231.706 1149.73 232.367 1149.69 233.153C1149.66 233.752 1149.42 234.26 1148.96 234.677C1148.75 234.867 1148.52 235.002 1148.29 235.084C1148.6 235.193 1148.87 235.36 1149.11 235.586C1149.66 236.081 1149.91 236.675 1149.88 237.368C1149.84 238.207 1149.48 238.882 1148.79 239.395C1148.11 239.908 1147.2 240.135 1146.04 240.076L1141.04 239.821ZM1143.86 237.662L1146.05 237.774C1146.36 237.789 1146.6 237.715 1146.79 237.55C1146.98 237.387 1147.09 237.179 1147.1 236.926C1147.11 236.673 1147.03 236.455 1146.85 236.272C1146.69 236.09 1146.45 235.991 1146.15 235.976L1143.95 235.864L1143.86 237.662ZM1144.05 233.867L1146.05 233.968C1146.29 233.98 1146.48 233.924 1146.64 233.798C1146.79 233.672 1146.87 233.51 1146.88 233.31C1146.89 233.11 1146.83 232.94 1146.69 232.799C1146.55 232.659 1146.36 232.582 1146.12 232.57L1144.12 232.468L1144.05 233.867ZM1159.29 237.447L1160.59 239.415C1160.3 239.681 1159.93 239.929 1159.47 240.159C1158.49 240.643 1157.43 240.857 1156.32 240.8C1154.88 240.726 1153.68 240.165 1152.72 239.114C1151.76 238.064 1151.31 236.84 1151.38 235.442C1151.45 234.043 1152.01 232.87 1153.06 231.923C1154.11 230.975 1155.34 230.536 1156.74 230.608C1158.08 230.676 1159.21 231.214 1160.12 232.222C1161.03 233.229 1161.45 234.406 1161.38 235.751C1161.37 235.884 1161.34 236.169 1161.28 236.606L1161.22 236.944L1154.13 236.583C1154.26 237.084 1154.53 237.505 1154.94 237.846C1155.37 238.188 1155.93 238.377 1156.64 238.413C1157.38 238.451 1158.04 238.304 1158.6 237.972C1158.88 237.813 1159.11 237.637 1159.29 237.447ZM1154.23 234.585L1158.62 234.809C1158.49 234.322 1158.24 233.908 1157.87 233.569C1157.5 233.216 1157.05 233.027 1156.51 232.999C1155.98 232.972 1155.51 233.115 1155.11 233.429C1154.71 233.729 1154.41 234.114 1154.23 234.585ZM1163.12 240.946L1163.62 231.159L1166.32 231.296L1166.14 234.891L1169.83 235.08L1170.01 231.484L1172.71 231.622L1172.21 241.409L1169.52 241.272L1169.7 237.576L1166.01 237.388L1165.82 241.083L1163.12 240.946ZM1174.81 241.541L1175.31 231.754L1178 231.891L1177.82 235.487L1181.52 235.675L1181.7 232.08L1184.39 232.217L1183.9 242.004L1181.2 241.867L1181.39 238.172L1177.69 237.983L1177.5 241.679L1174.81 241.541ZM1191.98 242.416L1192.05 241.218L1191.95 241.213C1191.69 241.494 1191.43 241.714 1191.17 241.874C1190.56 242.31 1189.83 242.507 1188.98 242.463C1188.09 242.418 1187.37 242.121 1186.84 241.574C1186.32 241.013 1186.08 240.327 1186.12 239.514C1186.17 238.715 1186.45 238.049 1186.99 237.516C1187.54 236.97 1188.27 236.64 1189.18 236.526L1192.31 236.124C1192.27 235.749 1192.11 235.434 1191.83 235.179C1191.55 234.911 1191.17 234.765 1190.67 234.74C1190.06 234.708 1189.51 234.867 1189.03 235.217C1188.78 235.377 1188.58 235.547 1188.42 235.726L1186.9 234.047C1187.22 233.702 1187.57 233.407 1187.97 233.16C1188.94 232.568 1189.94 232.299 1191 232.353C1192.22 232.415 1193.21 232.839 1193.95 233.625C1194.7 234.411 1195.05 235.356 1194.99 236.462L1194.68 242.554L1191.98 242.416ZM1192.2 238.222L1192.21 238.022L1189.99 238.31C1189.25 238.419 1188.87 238.733 1188.84 239.252C1188.81 239.918 1189.19 240.271 1189.99 240.312C1190.59 240.343 1191.1 240.162 1191.52 239.769C1191.94 239.377 1192.17 238.861 1192.2 238.222ZM1196.38 242.64L1198.66 239.252C1198.34 239.089 1198.07 238.861 1197.83 238.569C1197.3 237.928 1197.06 237.194 1197.1 236.369C1197.15 235.397 1197.56 234.59 1198.32 233.948C1199.09 233.306 1200.04 233.014 1201.17 233.072L1205.67 233.301L1205.17 243.088L1202.47 242.951L1202.62 240.054L1201.12 239.978L1199.38 242.793L1196.38 242.64ZM1201.14 237.676L1202.74 237.757L1202.85 235.56L1201.25 235.479C1200.86 235.459 1200.55 235.55 1200.3 235.75C1200.05 235.938 1199.91 236.192 1199.9 236.511C1199.88 236.831 1199.99 237.103 1200.22 237.328C1200.44 237.54 1200.75 237.656 1201.14 237.676ZM1210.67 243.368L1210.8 240.871L1211.03 240.943C1211.22 240.98 1211.37 241.001 1211.49 241.007C1211.86 241.026 1212.15 240.941 1212.36 240.751C1212.59 240.562 1212.78 240.125 1212.95 239.439C1213.13 238.754 1213.26 237.773 1213.32 236.494L1213.46 233.698L1221.45 234.105L1220.96 243.892L1218.26 243.755L1218.63 236.464L1216.03 236.332L1216.02 236.632C1215.77 241.492 1214.45 243.861 1212.05 243.739C1211.64 243.718 1211.29 243.654 1211.02 243.546C1210.81 243.442 1210.69 243.383 1210.67 243.368ZM1229.05 244.304L1229.11 243.106L1229.01 243.101C1228.75 243.381 1228.49 243.602 1228.23 243.762C1227.62 244.198 1226.89 244.395 1226.04 244.351C1225.15 244.306 1224.44 244.009 1223.9 243.462C1223.38 242.901 1223.14 242.215 1223.19 241.402C1223.23 240.603 1223.51 239.937 1224.05 239.404C1224.6 238.858 1225.33 238.528 1226.24 238.414L1229.37 238.012C1229.33 237.637 1229.17 237.322 1228.89 237.067C1228.61 236.799 1228.23 236.653 1227.74 236.628C1227.12 236.596 1226.57 236.755 1226.09 237.104C1225.84 237.265 1225.64 237.435 1225.48 237.614L1223.97 235.935C1224.28 235.59 1224.63 235.295 1225.03 235.048C1226 234.456 1227 234.187 1228.06 234.241C1229.28 234.303 1230.27 234.727 1231.02 235.513C1231.76 236.299 1232.11 237.244 1232.05 238.35L1231.74 244.442L1229.05 244.304ZM1229.26 240.11L1229.27 239.91L1227.05 240.198C1226.31 240.307 1225.93 240.621 1225.9 241.14C1225.87 241.806 1226.25 242.159 1227.05 242.2C1227.65 242.231 1228.16 242.05 1228.58 241.657C1229 241.265 1229.23 240.749 1229.26 240.11ZM1243.08 230.2L1244.36 232.568C1244.05 232.713 1243.7 232.848 1243.3 232.975C1242.34 233.3 1241.4 233.532 1240.5 233.673C1239.55 233.838 1238.82 234.129 1238.34 234.544C1237.85 234.947 1237.49 235.569 1237.26 236.412C1237.46 236.168 1237.69 235.967 1237.95 235.806C1238.6 235.399 1239.26 235.212 1239.92 235.246C1241.23 235.312 1242.33 235.849 1243.22 236.856C1244.12 237.863 1244.53 239.039 1244.47 240.384C1244.4 241.742 1243.85 242.876 1242.83 243.785C1241.82 244.682 1240.62 245.094 1239.22 245.023C1237.68 244.944 1236.44 244.314 1235.5 243.131C1234.57 241.935 1234.15 240.346 1234.26 238.362C1234.37 236.151 1234.9 234.456 1235.86 233.277C1236.83 232.084 1238.05 231.366 1239.53 231.121C1240.04 231.04 1240.85 230.847 1241.94 230.543C1242.05 230.508 1242.24 230.457 1242.49 230.39C1242.75 230.31 1242.95 230.247 1243.08 230.2ZM1237.75 241.784C1238.16 242.245 1238.7 242.493 1239.35 242.526C1240 242.559 1240.56 242.368 1241.02 241.951C1241.48 241.52 1241.73 240.952 1241.77 240.246C1241.81 239.541 1241.62 238.957 1241.2 238.495C1240.78 238.02 1240.25 237.766 1239.59 237.732C1238.94 237.699 1238.39 237.898 1237.92 238.328C1237.46 238.745 1237.21 239.307 1237.18 240.012C1237.14 240.718 1237.33 241.309 1237.75 241.784ZM1249.19 242.287C1249.64 242.804 1250.22 243.08 1250.93 243.116C1251.64 243.152 1252.24 242.936 1252.75 242.468C1253.25 241.999 1253.52 241.392 1253.56 240.647C1253.6 239.901 1253.39 239.27 1252.93 238.752C1252.48 238.235 1251.9 237.959 1251.19 237.923C1250.49 237.887 1249.88 238.103 1249.38 238.571C1248.88 239.04 1248.6 239.647 1248.57 240.392C1248.53 241.138 1248.74 241.769 1249.19 242.287ZM1247.2 243.928C1246.24 242.877 1245.8 241.653 1245.87 240.255C1245.94 238.857 1246.51 237.684 1247.57 236.737C1248.63 235.79 1249.88 235.353 1251.32 235.426C1252.76 235.499 1253.96 236.061 1254.92 237.111C1255.88 238.162 1256.33 239.386 1256.26 240.784C1256.18 242.182 1255.62 243.355 1254.55 244.302C1253.49 245.249 1252.24 245.686 1250.8 245.613C1249.36 245.54 1248.17 244.978 1247.2 243.928ZM1257.79 249.974L1258.5 235.992L1261.2 236.129L1261.12 237.528L1261.22 237.533C1261.43 237.262 1261.69 237.009 1262.02 236.772C1262.77 236.276 1263.56 236.05 1264.4 236.092C1265.59 236.153 1266.59 236.691 1267.4 237.707C1268.23 238.724 1268.61 239.958 1268.54 241.41C1268.46 242.874 1267.96 244.07 1267.03 244.998C1266.12 245.912 1265.07 246.34 1263.88 246.279C1263.04 246.236 1262.28 245.93 1261.59 245.361C1261.28 245.092 1261.04 244.813 1260.87 244.524L1260.77 244.518L1260.48 250.111L1257.79 249.974ZM1261.47 242.912C1261.93 243.429 1262.51 243.706 1263.21 243.742C1263.92 243.778 1264.52 243.562 1265.03 243.093C1265.53 242.625 1265.8 242.018 1265.84 241.272C1265.88 240.527 1265.67 239.895 1265.22 239.378C1264.76 238.861 1264.18 238.584 1263.48 238.548C1262.77 238.513 1262.16 238.729 1261.66 239.197C1261.16 239.665 1260.88 240.272 1260.85 241.018C1260.81 241.764 1261.02 242.395 1261.47 242.912ZM1273.26 243.513C1273.71 244.03 1274.29 244.306 1275 244.342C1275.71 244.378 1276.31 244.162 1276.82 243.694C1277.32 243.226 1277.59 242.619 1277.63 241.873C1277.67 241.127 1277.46 240.496 1277.01 239.979C1276.55 239.462 1275.97 239.185 1275.27 239.149C1274.56 239.113 1273.95 239.329 1273.45 239.798C1272.95 240.266 1272.67 240.873 1272.64 241.618C1272.6 242.364 1272.81 242.996 1273.26 243.513ZM1271.27 245.154C1270.31 244.104 1269.87 242.879 1269.94 241.481C1270.01 240.083 1270.58 238.91 1271.64 237.963C1272.7 237.016 1273.95 236.579 1275.39 236.652C1276.83 236.726 1278.03 237.287 1278.99 238.338C1279.95 239.388 1280.4 240.612 1280.33 242.01C1280.25 243.408 1279.69 244.581 1278.63 245.528C1277.56 246.475 1276.31 246.912 1274.87 246.839C1273.44 246.766 1272.24 246.204 1271.27 245.154ZM1283.97 247.102L1284.34 239.812L1281.25 239.654L1281.38 237.157L1290.26 237.61L1290.14 240.107L1287.04 239.949L1286.67 247.24L1283.97 247.102ZM1294.13 244.576C1294.59 245.093 1295.17 245.37 1295.87 245.406C1296.58 245.441 1297.18 245.225 1297.69 244.757C1298.19 244.289 1298.46 243.682 1298.5 242.936C1298.54 242.19 1298.33 241.559 1297.88 241.042C1297.42 240.525 1296.84 240.248 1296.14 240.212C1295.43 240.176 1294.83 240.392 1294.32 240.861C1293.82 241.329 1293.55 241.936 1293.51 242.682C1293.47 243.427 1293.68 244.059 1294.13 244.576ZM1292.15 246.217C1291.18 245.167 1290.74 243.943 1290.81 242.544C1290.88 241.146 1291.45 239.973 1292.51 239.026C1293.58 238.079 1294.83 237.642 1296.26 237.715C1297.7 237.789 1298.9 238.351 1299.86 239.401C1300.82 240.451 1301.27 241.675 1301.2 243.073C1301.13 244.472 1300.56 245.644 1299.5 246.591C1298.43 247.539 1297.18 247.976 1295.74 247.902C1294.31 247.829 1293.11 247.267 1292.15 246.217ZM1302.73 252.263L1303.44 238.281L1306.14 238.419L1306.07 239.817L1306.17 239.822C1306.37 239.552 1306.63 239.298 1306.97 239.062C1307.71 238.566 1308.5 238.339 1309.34 238.382C1310.53 238.442 1311.53 238.98 1312.35 239.997C1313.17 241.013 1313.55 242.248 1313.48 243.699C1313.4 245.164 1312.9 246.36 1311.97 247.287C1311.06 248.202 1310.01 248.629 1308.82 248.569C1307.99 248.526 1307.22 248.22 1306.53 247.651C1306.22 247.381 1305.98 247.102 1305.81 246.813L1305.71 246.808L1305.43 252.401L1302.73 252.263ZM1306.41 245.202C1306.87 245.719 1307.45 245.995 1308.15 246.031C1308.86 246.067 1309.46 245.851 1309.97 245.383C1310.47 244.914 1310.74 244.307 1310.78 243.562C1310.82 242.816 1310.61 242.185 1310.16 241.667C1309.7 241.15 1309.12 240.874 1308.42 240.838C1307.71 240.802 1307.11 241.018 1306.6 241.486C1306.1 241.955 1305.83 242.562 1305.79 243.307C1305.75 244.053 1305.96 244.684 1306.41 245.202ZM1315.23 248.695L1315.73 238.907L1318.43 239.045L1318.14 244.638L1322.62 239.258L1325.02 239.381L1324.52 249.168L1321.82 249.03L1322.11 243.438L1317.63 248.817L1315.23 248.695ZM1326.21 249.254L1328.49 245.865C1328.17 245.703 1327.9 245.475 1327.66 245.183C1327.13 244.541 1326.89 243.808 1326.93 242.983C1326.98 242.01 1327.39 241.204 1328.16 240.562C1328.92 239.92 1329.87 239.628 1331 239.686L1335.5 239.914L1335 249.702L1332.3 249.564L1332.45 246.668L1330.95 246.592L1329.21 249.407L1326.21 249.254ZM1330.97 244.29L1332.57 244.371L1332.68 242.174L1331.08 242.093C1330.7 242.073 1330.38 242.164 1330.13 242.364C1329.88 242.552 1329.74 242.805 1329.73 243.125C1329.71 243.445 1329.82 243.717 1330.05 243.942C1330.28 244.154 1330.58 244.27 1330.97 244.29Z" fill="white"/>
<defs>
<linearGradient id="paint0_linear_747_10988" x1="67.5" y1="428.187" x2="67.5" y2="659" gradientUnits="userSpaceOnUse">
<stop stop-color="white"/>
<stop offset="0.058389" stop-color="white"/>
<stop offset="1" stop-color="white" stop-opacity="0"/>
</linearGradient>
<linearGradient id="paint1_linear_747_10988" x1="637" y1="476" x2="637" y2="659" gradientUnits="userSpaceOnUse">
<stop stop-color="white"/>
<stop offset="1" stop-color="white" stop-opacity="0"/>
</linearGradient>
<linearGradient id="paint2_linear_747_10988" x1="1206" y1="319" x2="1206" y2="659" gradientUnits="userSpaceOnUse">
<stop stop-color="white"/>
<stop offset="1" stop-color="white" stop-opacity="0"/>
</linearGradient>
<linearGradient id="paint3_linear_747_10988" x1="1775" y1="315" x2="1775" y2="659" gradientUnits="userSpaceOnUse">
<stop stop-color="white"/>
<stop offset="1" stop-color="white" stop-opacity="0"/>
</linearGradient>
<linearGradient id="paint4_linear_747_10988" x1="2344.5" y1="188" x2="2344.5" y2="659" gradientUnits="userSpaceOnUse">
<stop stop-color="white"/>
<stop offset="1" stop-color="white" stop-opacity="0"/>
</linearGradient>
</defs>
</svg>
