<svg width="256" height="1170" viewBox="0 0 256 1170" fill="none" xmlns="http://www.w3.org/2000/svg">
<path d="M210.364 365.781C169.69 448.908 196.177 545.39 269.524 581.279C342.872 617.167 435.304 578.873 475.978 495.746C516.652 412.618 490.165 316.137 416.818 280.248C343.47 244.36 251.038 282.654 210.364 365.781Z" fill="#21386A"/>
<path d="M448.081 209.754C485.612 104.961 441.08 -6.83732 348.615 -39.953C256.15 -73.0687 150.767 -14.962 113.236 89.8319C75.7044 194.626 120.237 306.424 212.702 339.539C305.167 372.655 410.55 314.548 448.081 209.754Z" fill="#778FC7"/>
<path d="M243.017 122.224C150.236 195.363 127.337 321.018 191.871 402.883C256.405 484.749 383.933 491.823 476.714 418.685C569.495 345.546 592.394 219.891 527.86 138.026C463.327 56.1603 335.798 49.0857 243.017 122.224Z" fill="#8FA6DB"/>
<path d="M451.828 851.167C479.561 796.368 462.846 732.108 414.494 707.638C366.142 683.168 304.463 707.754 276.73 762.553C248.997 817.352 265.713 881.613 314.065 906.083C362.417 930.553 424.095 905.966 451.828 851.167Z" fill="#21386A"/>
<path d="M273.831 975.996C304.88 938.556 303.271 885.996 270.236 858.599C237.201 831.203 185.25 839.344 154.201 876.784C123.151 914.223 124.761 966.784 157.795 994.18C190.83 1021.58 242.781 1013.44 273.831 975.996Z" fill="#6483CC"/>
<path d="M292.688 952.583C266.848 1021.79 295.401 1096.37 356.464 1119.17C417.527 1141.97 487.976 1104.36 513.817 1035.15C539.657 965.946 511.104 891.361 450.041 868.561C388.978 845.76 318.529 883.378 292.688 952.583Z" fill="#778FC7"/>
<path d="M338.097 801.248C361.1 751.295 344.017 694.346 299.941 674.048C255.865 653.751 201.485 677.792 178.482 727.745C155.478 777.699 172.561 834.648 216.637 854.945C260.714 875.243 315.093 851.202 338.097 801.248Z" fill="#B8CAF5"/>
<path d="M427.986 1012.5C490.207 964.792 506.524 881.613 464.431 826.712C422.338 771.811 337.775 765.978 275.554 813.684C213.333 861.389 197.016 944.568 239.109 999.469C281.201 1054.37 365.765 1060.2 427.986 1012.5Z" fill="#8FA6DB"/>
</svg>
