<svg width="264" height="708" viewBox="0 0 264 708" fill="none" xmlns="http://www.w3.org/2000/svg">
<path d="M97.1366 355.474C31.8043 416.148 22.2417 512.066 75.7778 569.712C129.314 627.358 225.676 624.903 291.008 564.228C356.34 503.554 365.903 407.636 312.367 349.99C258.831 292.344 162.469 294.799 97.1366 355.474Z" fill="#21386A"/>
<path d="M364.869 297.42C434.871 216.176 433.506 100.243 361.821 38.4766C290.135 -23.29 175.274 -7.50051 105.272 73.7435C35.2696 154.987 36.6342 270.92 108.32 332.687C180.006 394.454 294.866 378.664 364.869 297.42Z" fill="#778FC7"/>
<path d="M226.906 480.665C170.451 537.12 165.067 623.266 214.88 673.079C264.692 722.892 350.839 717.508 407.294 661.053C463.748 604.598 469.132 518.452 419.32 468.639C369.507 418.826 283.36 424.211 226.906 480.665Z" fill="#B8CAF5"/>
<path d="M210.76 147.77C102.03 181.435 37.9671 286.5 67.6719 382.437C97.3767 478.375 209.6 528.857 318.33 495.192C427.06 461.526 491.123 356.462 461.418 260.524C431.713 164.586 319.489 114.104 210.76 147.77Z" fill="#8FA6DB"/>
</svg>
