<svg width="637" height="584" viewBox="0 0 637 584" fill="none" xmlns="http://www.w3.org/2000/svg">
<path d="M742.574 494.043C852.799 427.447 894.519 294.617 835.757 197.36C776.996 100.103 640.006 75.2473 529.781 141.843C419.556 208.439 377.836 341.269 436.597 438.526C495.358 535.783 632.349 560.639 742.574 494.043Z" fill="#21386A"/>
<path d="M357.255 621.204C416.093 559.951 419.978 468.21 365.932 416.294C311.886 364.378 220.375 371.946 161.536 433.199C102.698 494.451 98.813 586.192 152.859 638.108C206.905 690.025 298.416 682.456 357.255 621.204Z" fill="#6483CC"/>
<path d="M410.304 548.133C329.674 648.823 336.332 788.122 425.176 859.266C514.019 930.41 651.405 906.459 732.035 805.769C812.666 705.079 806.007 565.78 717.164 494.636C628.32 423.492 490.934 447.443 410.304 548.133Z" fill="#778FC7"/>
<path d="M509.771 316.403C520.71 210.777 454.025 117.325 360.825 107.672C267.626 98.0199 183.204 175.822 172.265 281.449C161.325 387.075 228.01 480.527 321.21 490.18C414.41 499.832 498.831 422.03 509.771 316.403Z" fill="#B8CAF5"/>
<path d="M602.028 721.35C731.27 676.176 803.729 547.11 763.87 433.073C724.01 319.035 586.926 263.211 457.684 308.385C328.442 353.559 255.982 482.625 295.842 596.662C335.701 710.7 472.785 766.524 602.028 721.35Z" fill="#8FA6DB"/>
</svg>
