<svg width="1280" height="72" viewBox="0 0 1280 72" fill="none" xmlns="http://www.w3.org/2000/svg">
<line x1="1" y1="52" x2="1" y2="72" stroke="url(#paint0_linear_456_1489)" stroke-width="2"/>
<line x1="129" y1="32" x2="129" y2="72" stroke="url(#paint1_linear_456_1489)" stroke-width="2"/>
<line x1="257" y1="32" x2="257" y2="72" stroke="url(#paint2_linear_456_1489)" stroke-width="2"/>
<line x1="385" y1="-4.37114e-08" x2="385" y2="72" stroke="url(#paint3_linear_456_1489)" stroke-width="2"/>
<line x1="513" y1="45" x2="513" y2="72" stroke="url(#paint4_linear_456_1489)" stroke-width="2"/>
<line x1="641" y1="4.37114e-08" x2="641" y2="72" stroke="url(#paint5_linear_456_1489)" stroke-width="2"/>
<line x1="769" y1="32" x2="769" y2="72" stroke="url(#paint6_linear_456_1489)" stroke-width="2"/>
<line x1="897" y1="32" x2="897" y2="72" stroke="url(#paint7_linear_456_1489)" stroke-width="2"/>
<line x1="1025" y1="32" x2="1025" y2="72" stroke="url(#paint8_linear_456_1489)" stroke-width="2"/>
<line x1="1153" y1="32" x2="1153" y2="72" stroke="url(#paint9_linear_456_1489)" stroke-width="2"/>
<defs>
<linearGradient id="paint0_linear_456_1489" x1="-0.499997" y1="72" x2="-0.499997" y2="60.5" gradientUnits="userSpaceOnUse">
<stop stop-color="white"/>
<stop offset="1" stop-color="white" stop-opacity="0"/>
</linearGradient>
<linearGradient id="paint1_linear_456_1489" x1="127.5" y1="72" x2="127.5" y2="35" gradientUnits="userSpaceOnUse">
<stop stop-color="white"/>
<stop offset="1" stop-color="white" stop-opacity="0"/>
</linearGradient>
<linearGradient id="paint2_linear_456_1489" x1="255.5" y1="72" x2="255.5" y2="49" gradientUnits="userSpaceOnUse">
<stop stop-color="white"/>
<stop offset="1" stop-color="white" stop-opacity="0"/>
</linearGradient>
<linearGradient id="paint3_linear_456_1489" x1="383.5" y1="72" x2="383.5" y2="30.6" gradientUnits="userSpaceOnUse">
<stop stop-color="white"/>
<stop offset="1" stop-color="white" stop-opacity="0"/>
</linearGradient>
<linearGradient id="paint4_linear_456_1489" x1="511.5" y1="72" x2="511.5" y2="56.475" gradientUnits="userSpaceOnUse">
<stop stop-color="white"/>
<stop offset="1" stop-color="white" stop-opacity="0"/>
</linearGradient>
<linearGradient id="paint5_linear_456_1489" x1="639.5" y1="72" x2="639.5" y2="17" gradientUnits="userSpaceOnUse">
<stop stop-color="white"/>
<stop offset="1" stop-color="white" stop-opacity="0"/>
</linearGradient>
<linearGradient id="paint6_linear_456_1489" x1="767.5" y1="72" x2="767.5" y2="49" gradientUnits="userSpaceOnUse">
<stop stop-color="white"/>
<stop offset="1" stop-color="white" stop-opacity="0"/>
</linearGradient>
<linearGradient id="paint7_linear_456_1489" x1="895.5" y1="72" x2="895.5" y2="49" gradientUnits="userSpaceOnUse">
<stop stop-color="white"/>
<stop offset="1" stop-color="white" stop-opacity="0"/>
</linearGradient>
<linearGradient id="paint8_linear_456_1489" x1="1023.5" y1="72" x2="1023.5" y2="49" gradientUnits="userSpaceOnUse">
<stop stop-color="white"/>
<stop offset="1" stop-color="white" stop-opacity="0"/>
</linearGradient>
<linearGradient id="paint9_linear_456_1489" x1="1151.5" y1="72" x2="1151.5" y2="35" gradientUnits="userSpaceOnUse">
<stop stop-color="white"/>
<stop offset="1" stop-color="white" stop-opacity="0"/>
</linearGradient>
</defs>
</svg>
