<svg xmlns="http://www.w3.org/2000/svg" fill="none" viewBox="13.58 14.84 229.03 203.01">
<path d="M114.512 216.664C177.304 225.164 234.286 187.141 241.786 131.737C249.287 76.3327 204.464 24.5281 141.673 16.028C78.8811 7.5279 21.8985 45.5511 14.3984 100.955C6.89835 156.359 51.7209 208.164 114.512 216.664Z" fill="white"/>
<path d="M188.733 92.1376L184.766 87.2447C162.387 59.6483 120.809 54.0199 91.8989 74.6733L86.7729 78.3352C57.8627 98.9886 52.5678 138.103 74.9465 165.699L78.9143 170.592C101.293 198.188 142.871 203.817 171.781 183.163L176.907 179.501C205.817 158.848 211.112 119.734 188.733 92.1376Z" fill="#B8CAF5"/>
<path fill-rule="evenodd" clip-rule="evenodd" d="M128.638 67.454C130.063 66.9082 132.56 66.0939 133.789 64.9012C138.404 60.5033 130.307 38.1935 139.159 37.2942C144.448 36.7397 152.349 54.2365 156.862 55.7042C162.276 57.4711 172.09 43.4361 178.096 47.3219C182.513 50.1948 178.122 60.5912 177.406 64.483C176.621 68.6608 180.141 69.1077 182.936 69.5747C185.237 69.9749 189.925 70.6095 191.697 71.2039C194.703 72.2017 197.653 75.4669 194.978 78.0594C191.329 81.5836 178.146 80.5967 176.331 86.1124L173.515 94.6243C171.164 101.781 166.39 98.2985 162.122 95.032C157.083 91.1886 153.823 87.2018 148.683 85.0288C142.416 82.3781 134.381 81.4086 128.399 78.5011C118.912 73.8782 120.459 70.5717 128.638 67.454ZM108.134 158.603C106.01 158.05 104.716 156.013 105.287 154.111C105.828 152.205 108.017 151.112 110.141 151.666C115.174 152.997 119.943 153.495 124.264 152.898C128.199 152.367 131.777 150.99 134.899 148.576C136.549 147.293 139.063 147.515 140.517 149.071C141.974 150.598 141.822 152.882 140.172 154.165C135.895 157.457 130.989 159.363 125.646 160.087C120.145 160.82 114.223 160.255 108.13 158.632L108.134 158.603ZM180.624 103.121C180.187 100.787 181.923 98.6285 184.481 98.2952C187.035 97.9909 189.483 99.6224 189.917 101.986C192.266 114.565 192.758 127.632 187.596 139.549C179.11 159.082 162.2 173.102 140.326 178.088C129.178 180.627 117.073 180.731 105.025 177.859C94.6491 175.391 85.2888 170.992 77.3394 165.218C69.1052 159.229 62.3632 151.728 57.598 143.312C56.3808 141.168 57.2586 138.627 59.5673 137.581C61.8721 136.563 64.7352 137.453 65.9256 139.564C70.088 146.864 75.93 153.357 83.0748 158.579C89.9347 163.585 98.0586 167.373 107.093 169.542C117.622 172.031 128.12 171.974 137.747 169.762C156.673 165.44 171.447 153.051 178.793 136.141C179.021 135.611 179.246 135.109 179.444 134.575C176.385 135.135 173.046 134.743 169.682 133.608C166.075 132.41 162.363 130.371 158.914 127.777C152.043 122.622 145.81 115.072 142.882 107.466C131.071 117.922 109.756 125.968 91.0562 127.691C83.6155 128.368 76.4933 128.084 70.4194 126.552C63.7633 124.913 58.3063 121.84 54.8664 117.09C49.5163 109.748 49.2693 98.8119 57.3516 83.4197C62.8029 73.0781 71.5155 64.8621 82.0806 59.2014C92.916 53.4001 105.708 50.3158 118.819 50.4362C121.422 50.4635 123.577 52.4098 123.633 54.781C123.689 57.1522 121.64 59.0612 119.037 59.0338C107.619 58.9358 96.4823 61.6237 87.041 66.6388C77.9704 71.4677 70.5179 78.4952 65.8686 87.3204C59.4021 99.5927 59.1547 107.684 62.6753 112.533C64.7123 115.35 68.1978 117.211 72.5761 118.276C77.4978 119.504 83.467 119.721 89.8277 119.134C111.29 117.194 136.259 106.511 141.812 94.2622C142.661 92.3976 144.908 91.3427 147.163 91.8548C149.691 92.4334 151.324 94.7522 150.794 97.0441C149.06 104.521 156.354 114.903 164.796 121.217C167.448 123.201 170.163 124.72 172.656 125.56C174.698 126.25 176.526 126.439 177.903 126.005C184.005 124.083 181.558 107.827 180.694 103.071L180.624 103.121ZM163.767 81.2503C169.975 78.7815 168.924 71.6961 162.883 67.8351C158.636 65.1034 153.175 63.4483 148.666 65.4379C136.501 70.8524 151.724 86.0017 163.767 81.2503Z" fill="#21386A"/>
</svg>