<svg width="321" height="298" viewBox="0 0 321 298" fill="none" xmlns="http://www.w3.org/2000/svg">
<path d="M119.604 243.113C185.659 260.812 251.868 227.912 267.485 169.628C283.102 111.344 242.214 49.7473 176.159 32.0478C110.103 14.3483 43.8945 47.2485 28.2773 105.533C12.6602 163.817 53.5484 225.413 119.604 243.113Z" fill="white"/>
<g clip-path="url(#clip0_1228_4099)">
<path fill-rule="evenodd" clip-rule="evenodd" d="M198.917 99.982L203.325 104.432C228.193 129.538 228.193 170.616 203.325 195.722L198.917 200.172C174.048 225.278 133.358 225.278 108.489 200.172L104.08 195.722C79.2129 170.616 79.2129 129.538 104.08 104.432L108.489 99.982C133.358 74.8764 174.048 74.8764 198.917 99.982Z" fill="#B8CAF5"/>
<path fill-rule="evenodd" clip-rule="evenodd" d="M142.692 87.4801C143.977 86.7291 146.265 85.5378 147.297 84.1585C151.149 79.0186 140.527 57.2387 148.851 55.0723C153.845 53.7743 163.659 70.6159 168.167 71.4963C173.564 72.5501 181.146 56.7864 187.393 59.9507C191.973 62.2705 189.147 73.5693 188.958 77.654C188.753 82.0628 192.173 82.0188 194.893 82.1255C197.153 82.2135 201.717 82.2269 203.489 82.587C206.503 83.202 209.736 86.1208 207.499 89.1649C204.479 93.2776 191.747 94.1007 190.726 100.008L189.147 109.12C187.82 116.79 182.821 113.876 178.303 111.118C172.995 107.882 169.347 104.239 164.153 102.71C157.825 100.849 149.998 100.995 143.904 98.843C134.243 95.4306 135.274 91.8142 142.692 87.4801ZM134.891 183.84C132.782 183.554 131.299 181.663 131.578 179.621C131.856 177.577 133.793 176.155 135.9 176.442C140.875 177.124 145.503 176.945 149.566 175.756C153.246 174.68 156.507 172.744 159.186 169.836C160.594 168.304 163.027 168.178 164.619 169.557C166.211 170.935 166.362 173.297 164.954 174.831C161.295 178.802 156.848 181.443 151.831 182.911C146.667 184.422 140.94 184.668 134.891 183.84ZM197.002 116.862C196.285 114.519 197.656 112.067 200.068 111.389C202.479 110.711 205.019 112.064 205.738 114.408C209.606 126.989 211.779 140.321 208.371 153.278C202.79 174.499 188.444 191.221 168.167 199.384C157.829 203.546 146.292 205.315 134.373 204.057C124.128 202.976 114.617 199.766 106.266 194.933C97.6069 189.922 90.2111 183.16 84.5464 175.212C83.1101 173.193 83.6188 170.439 85.6867 169.063C87.7547 167.685 90.5983 168.203 92.036 170.22C96.9488 177.117 103.373 182.989 110.895 187.342C118.116 191.52 126.368 194.298 135.286 195.239C145.675 196.336 155.691 194.81 164.631 191.211C182.164 184.153 194.683 169.395 199.513 151.019C199.662 150.455 199.8 149.891 199.928 149.326C197.067 150.317 193.843 150.383 190.479 149.704C186.87 148.974 183.074 147.397 179.437 145.23C172.191 140.906 165.264 134.005 161.478 126.602C151.542 138.975 132.216 150.2 114.539 154.537C107.507 156.264 100.654 156.949 94.647 156.248C88.085 155.484 82.4705 153.099 78.5381 148.691C72.4875 141.908 70.8239 130.717 76.5626 113.812C80.425 102.438 87.7111 92.7934 97.0717 85.5365C106.69 78.0822 118.512 73.1438 131.059 71.4443C133.554 71.1121 135.873 72.8063 136.236 75.2288C136.601 77.6526 134.872 79.8857 132.379 80.2192C121.439 81.7013 111.146 85.9967 102.784 92.4772C94.7501 98.7042 88.5079 106.95 85.2163 116.641C80.6364 130.133 81.4227 138.457 85.4225 142.94C87.7362 145.534 91.3092 146.969 95.6275 147.472C100.501 148.04 106.23 147.443 112.228 145.971C132.493 140.998 154.997 126.566 158.707 113.227C159.27 111.196 161.276 109.798 163.515 110.007C166.02 110.243 167.871 112.404 167.65 114.832C166.949 122.732 175.277 132.379 184.173 137.685C186.974 139.355 189.757 140.542 192.237 141.044C194.288 141.457 196.061 141.416 197.315 140.779C202.896 137.953 198.465 121.613 197.002 116.862ZM178.056 96.7673C183.681 93.3856 181.75 86.2635 175.481 83.1286C171.065 80.9222 165.625 79.9684 161.581 82.6444C150.639 89.8813 167.179 103.306 178.056 96.7673Z" fill="#21386A"/>
</g>
<defs>
<clipPath id="clip0_1228_4099">
<rect width="149" height="164" fill="white" transform="translate(73 55)"/>
</clipPath>
</defs>
</svg>
