<svg width="317" height="317" viewBox="0 0 317 317" fill="none" xmlns="http://www.w3.org/2000/svg">
<path d="M266.376 171.434C266.393 171.434 266.407 171.42 266.407 171.402C266.4 139.201 255.49 99.7143 216.385 56.9332C192.378 30.6703 167.506 14.5077 160.462 10.1796C159.251 9.43514 157.751 9.43624 156.541 10.1822C149.499 14.5214 124.626 30.7218 100.616 56.9332C61.4985 99.7282 50.5938 139.226 50.5938 171.434V304.061C50.5938 306.27 52.3846 308.061 54.5937 308.061H262.344C264.553 308.061 266.344 306.27 266.344 304.061V171.465C266.344 171.448 266.358 171.434 266.376 171.434Z" fill="white"/>
<path d="M253.791 181.007C253.791 151.082 244.155 114.31 209.602 74.5584C184.559 45.7748 158.501 29.9882 158.501 29.9882C158.501 29.9882 132.444 45.7748 107.401 74.5584C72.8477 114.31 63.2109 151.082 63.2109 181.007V307.997H253.728V181.007H253.791Z" fill="#F9F9F9"/>
<path d="M208.458 76.5238C188.114 52.8071 167.07 37.9842 160.548 33.6578C159.292 32.8244 157.706 32.8244 156.45 33.6578C149.928 37.9842 128.883 52.8071 108.54 76.5238C74.684 116.022 65.3008 152.414 65.3008 182.085V303.997C65.3008 306.206 67.0916 307.997 69.3008 307.997H247.633C249.843 307.997 251.633 306.206 251.633 303.997V182.085C251.633 152.414 242.25 116.022 208.458 76.5238Z" fill="#8EC748"/>
<path d="M158.501 306.349H50.5938V307.997H158.501V306.349Z" fill="#F9F9F9"/>
<path d="M154.759 218.793V204.592C154.759 203.514 153.871 202.626 152.794 202.626C151.716 202.626 150.828 203.514 150.828 204.592V218.793C150.828 219.871 151.716 220.759 152.794 220.759C153.871 220.759 154.759 219.871 154.759 218.793Z" fill="white"/>
<path d="M93.1992 174.794L158.501 196.857V194.765L93.643 172.828C93.4528 173.526 93.326 174.16 93.1992 174.794Z" fill="white"/>
<path d="M158.501 123.567L123.948 111.901C123.504 112.472 123.06 112.979 122.68 113.549L158.501 125.659V123.567Z" fill="white"/>
<path d="M104.355 143.03L158.436 161.29V159.197L105.243 141.192C104.989 141.826 104.672 142.396 104.355 143.03Z" fill="white"/>
<path d="M90.0273 209.347L158.499 232.488V230.396L90.0273 207.255V209.347Z" fill="white"/>
<path d="M90.0273 280.545L158.499 303.623V301.53L90.0273 278.389V280.545Z" fill="white"/>
<path d="M90.0273 244.914L158.499 268.055V265.963L90.0273 242.822V244.914Z" fill="white"/>
<path d="M113.868 107.843C135.741 83.1174 158.502 69.6132 158.502 69.6132V44.8872C158.502 44.8872 134.283 59.7862 111.078 87.0482C78.998 124.708 70.0586 159.451 70.0586 187.791V307.997H75.3208V199.076C75.3208 173.399 83.6896 141.953 113.868 107.843Z" fill="white"/>
<path d="M93.1992 173.526L158.501 195.589V193.497L93.643 171.56C93.4528 172.194 93.326 172.828 93.1992 173.526Z" fill="white"/>
<path d="M158.501 122.299L123.948 110.633C123.504 111.204 123.06 111.711 122.68 112.281L158.501 124.391V122.299Z" fill="white"/>
<path d="M104.355 141.699L158.436 159.958V157.866L105.243 139.86C104.989 140.494 104.672 141.128 104.355 141.699Z" fill="white"/>
<path d="M90.0273 208.015L158.499 231.156V229.064L90.0273 205.923V208.015Z" fill="white"/>
<path d="M90.0273 279.214L158.499 302.355V300.262L90.0273 277.121V279.214Z" fill="white"/>
<path d="M90.0273 243.646L158.499 266.787V264.632L90.0273 241.491V243.646Z" fill="white"/>
<path d="M118.367 107.843C138.021 83.1174 158.5 69.6132 158.5 69.6132V44.8872C158.5 44.8872 136.753 59.7862 115.831 87.0482C86.9845 124.708 78.9961 159.451 78.9961 187.791V307.997H83.7511V199.076C83.6877 173.399 91.2323 141.953 118.367 107.843Z" fill="white"/>
<path d="M122.871 114.627C140.306 90.7889 158.502 77.6651 158.502 77.6651V53.8267C158.502 53.8267 139.165 68.2185 120.652 94.5929C95.0383 130.984 87.9375 164.586 87.9375 191.912V307.997H92.1219V202.817C92.1219 177.964 98.7789 147.532 122.871 114.627Z" fill="white"/>
<path d="M83.0547 157.169C95.5445 121.031 128.956 75.1924 155.14 56.8064C132.126 70.1838 94.2131 110.379 83.0547 157.169Z" fill="white"/>
<path d="M87.8711 166.869C100.171 130.731 133.075 84.8926 158.879 66.5066C136.182 79.884 98.8393 120.016 87.8711 166.869Z" fill="white"/>
<path d="M157.613 46.8526V307.997H158.501V45.2676C158.501 45.2676 157.994 46.2186 157.613 46.8526Z" fill="white"/>
<path d="M158.501 306.349H65.1133V307.997H158.501V306.349Z" fill="white"/>
<path d="M266.407 306.349H158.5V307.997H266.407V306.349Z" fill="#F9F9F9"/>
<path d="M166.173 218.793V204.592C166.173 203.514 165.285 202.626 164.208 202.626C163.13 202.626 162.242 203.514 162.242 204.592V218.793C162.242 219.871 163.13 220.759 164.208 220.759C165.285 220.759 166.173 219.871 166.173 218.793Z" fill="white"/>
<path d="M158.5 123.567V125.659L194.321 113.549C193.877 112.979 193.433 112.408 193.053 111.901L158.5 123.567Z" fill="white"/>
<path d="M158.5 196.857L223.802 174.794C223.675 174.16 223.548 173.526 223.358 172.828L158.5 194.765V196.857Z" fill="white"/>
<path d="M158.5 161.29L212.58 143.03C212.263 142.46 212.01 141.826 211.693 141.255L158.5 159.197V161.29Z" fill="white"/>
<path d="M158.5 303.623L226.972 280.545V278.389L158.5 301.53V303.623Z" fill="white"/>
<path d="M158.5 232.488L226.972 209.347V207.255L158.5 230.396V232.488Z" fill="white"/>
<path d="M158.5 268.055L226.972 244.914V242.822L158.5 265.963V268.055Z" fill="white"/>
<path d="M246.943 307.997V187.791C246.943 159.451 238.004 124.708 205.923 87.0482C182.719 59.7862 158.5 44.8872 158.5 44.8872V69.6132C158.5 69.6132 181.261 83.1174 203.134 107.843C233.312 141.953 241.681 173.462 241.681 199.139V308.061H246.943V307.997Z" fill="white"/>
<path d="M158.5 159.958L212.58 141.699C212.263 141.128 212.01 140.494 211.693 139.924L158.5 157.866V159.958Z" fill="white"/>
<path d="M158.5 195.589L223.802 173.526C223.675 172.892 223.548 172.258 223.358 171.56L158.5 193.497V195.589Z" fill="white"/>
<path d="M158.5 122.299V124.391L194.321 112.281C193.877 111.711 193.433 111.14 193.053 110.633L158.5 122.299Z" fill="white"/>
<path d="M158.5 231.156L226.972 208.015V205.923L158.5 229.064V231.156Z" fill="white"/>
<path d="M158.5 302.355L226.972 279.214V277.121L158.5 300.262V302.355Z" fill="white"/>
<path d="M158.5 266.787L226.972 243.646V241.491L158.5 264.632V266.787Z" fill="white"/>
<path d="M238.004 307.997V187.791C238.004 159.451 230.015 124.708 201.168 87.0482C180.31 59.7862 158.5 44.8872 158.5 44.8872V69.6132C158.5 69.6132 178.978 83.1174 198.632 107.843C225.767 141.953 233.312 173.462 233.312 199.139V308.061H238.004V307.997Z" fill="white"/>
<path d="M229.064 307.997V191.912C229.064 164.523 221.963 130.921 196.35 94.5929C177.837 68.2185 158.5 53.8267 158.5 53.8267V77.7285C158.5 77.7285 176.696 90.7889 194.131 114.691C218.223 147.659 224.943 178.091 224.943 202.88V308.061H229.064V307.997Z" fill="white"/>
<path d="M161.859 56.8064C188.107 75.1924 221.519 121.031 233.945 157.169C222.787 110.379 184.874 70.1838 161.859 56.8064Z" fill="white"/>
<path d="M158.121 66.5066C183.925 84.8926 216.829 130.731 229.129 166.869C218.161 120.016 180.818 79.884 158.121 66.5066Z" fill="white"/>
<path d="M158.5 45.2676V307.997H159.388V46.8526C159.007 46.2186 158.5 45.2676 158.5 45.2676Z" fill="white"/>
<path d="M251.888 306.349H158.5V307.997H251.888V306.349Z" fill="white"/>
</svg>
