<svg width="211" height="198" viewBox="0 0 211 198" fill="none" xmlns="http://www.w3.org/2000/svg">
<path d="M122.709 3.28361C121.892 2.56081 122.658 1.23772 123.692 1.58707L131.865 4.34924C131.992 4.39193 132.108 4.45946 132.208 4.54786L187.435 53.44C187.642 53.6232 187.651 53.9428 187.456 54.1381L184.965 56.9849C184.6 57.402 183.966 57.4427 183.55 57.0755L122.709 3.28361Z" fill="#B8CAF5"/>
<path d="M122.77 3.33639C121.95 2.61133 120.729 3.54154 121.21 4.52489L124.945 12.1629C125.002 12.2805 125.082 12.3856 125.18 12.4723L180.315 61.2826C180.583 61.5199 180.989 61.5075 181.242 61.2545L183.652 58.4899C184.013 58.0756 183.972 57.4476 183.561 57.0836L122.77 3.33639Z" fill="#8FA6DB"/>
<path d="M176.791 64.4866L190.28 49.2393C191.352 48.0283 193.202 47.9151 194.413 48.9865C195.624 50.0579 195.737 51.9081 194.666 53.119L181.176 68.3664C180.105 69.5773 178.254 69.6905 177.043 68.6191C175.832 67.5477 175.719 65.6975 176.791 64.4866Z" fill="white"/>
<path d="M189.213 59.1924L205 73.1595L202.016 76.5328L186.229 62.5657L189.213 59.1924Z" fill="#D9D9D9"/>
<path d="M189.213 59.1924L205 73.1595L202.016 76.5328L186.229 62.5657L189.213 59.1924Z" fill="#142039"/>
<path d="M207.79 78.2534C206.538 79.6693 204.374 79.8016 202.959 78.5489C201.543 77.2963 201.41 75.1329 202.663 73.717C203.916 72.3012 206.079 72.1688 207.495 73.4215C208.911 74.6742 209.043 76.8375 207.79 78.2534Z" fill="white"/>
<path d="M133.41 65.692C133.41 65.6768 133.405 65.6621 133.396 65.6503L118.063 46.4849C116.573 44.6225 114.467 43.3539 112.124 42.9081L82.1961 37.2131C75.7274 35.9822 70.2053 41.5984 74.5393 46.5558C76.8571 49.207 80.2015 51.5983 85.0209 52.8239C89.313 53.9154 93.4622 56.7817 96.9552 59.5041C97.9766 60.3001 99.2147 61.0863 100.711 61.7951C111.187 66.6894 127.8 65.8545 129.333 65.7656C129.417 65.7607 129.489 65.7587 129.573 65.7587H133.343C133.38 65.7587 133.41 65.7288 133.41 65.692Z" fill="#8FA6DB"/>
<path d="M137.629 103.592C141.767 103.592 143.182 109.107 139.554 111.098L41.7426 164.799C39.8609 165.832 37.4993 165.196 36.3914 163.357L3.67862 109.066C2.06703 106.391 4.00475 102.984 7.12732 103.002L111.7 103.592H137.629Z" fill="#8FA6DB"/>
<path d="M134.551 65.6681C138.903 65.6681 142.587 68.8795 143.181 73.1905L145.131 87.3537C145.933 93.1767 141.409 98.3672 135.531 98.3672C130.179 98.3672 125.84 94.0283 125.84 88.6761V74.3792C125.84 69.5682 129.74 65.6681 134.551 65.6681Z" fill="white"/>
<path d="M130.705 96.5662H140.434V109.358H130.705V96.5662Z" fill="white"/>
<path d="M161.242 95.6654L142.145 140.705L114.941 130.616L119.715 103.592L161.242 95.6654Z" fill="white"/>
<path d="M158.724 106.204L183.586 98.998L175.749 90.1702L156.112 94.4039L158.724 106.204Z" fill="white"/>
<path d="M115.932 98.4574H91.7002V107.555L125.57 107.646L115.932 98.4574Z" fill="white"/>
<path d="M161.242 95.6654C161.242 95.6654 156.108 111.61 142.235 111.61C128.363 111.61 119.715 103.683 119.715 103.683L161.242 95.7555V95.6654Z" fill="#8FA6DB"/>
<path d="M148.634 99.5389C148.634 103.953 152.237 107.466 156.561 107.466C160.885 107.466 164.488 103.863 164.488 99.5389C164.488 95.215 160.885 91.6118 156.561 91.6118C152.237 91.6118 148.634 95.215 148.634 99.5389Z" fill="white"/>
<path d="M111.701 103.592C111.701 108.006 115.304 111.52 119.628 111.52C123.951 111.52 127.555 107.916 127.555 103.592C127.555 99.2686 123.951 95.6654 119.628 95.6654C115.304 95.6654 111.701 99.2686 111.701 103.592Z" fill="white"/>
<path d="M139.727 113.666C138.355 115.038 136.13 115.038 134.758 113.666C133.387 112.294 133.387 110.069 134.758 108.697C136.13 107.325 138.355 107.325 139.727 108.697C141.099 110.069 141.099 112.294 139.727 113.666Z" fill="#8EC748"/>
<path d="M185.203 184.124L178.537 189.619L163.134 156.109L126.921 145.75L140.523 138.633L170.7 147.281L185.203 184.124Z" fill="white"/>
<path d="M66.842 176.467V169.531L90.9834 161.513L114.945 130.616L119.629 144.759L99.451 169.531L66.842 176.467Z" fill="white"/>
<path d="M189.709 73.4152L196.375 76.1176L183.584 98.9979L175.747 90.1701L189.709 73.4152Z" fill="white"/>
<path d="M190.537 63.5335C191.929 61.6336 194.652 61.3407 196.415 62.9013L200.67 66.6661C202.178 68.001 202.459 70.2492 201.324 71.9138L199.603 74.44C198.515 76.0376 196.44 76.6281 194.673 75.843L189.286 73.4489C186.955 72.4128 186.176 69.4886 187.684 67.4304L190.537 63.5335Z" fill="white"/>
<path d="M175.227 88.6307C175.666 88.1333 176.421 88.0748 176.931 88.4986L184.376 94.6821C185.689 95.7726 186.034 97.6466 185.194 99.1324L185.015 99.4488C184.568 100.24 183.766 100.767 182.863 100.865C181.719 100.989 180.614 100.405 180.072 99.3902L175.065 90.0204C174.824 89.5688 174.889 89.0147 175.227 88.6307Z" fill="white"/>
<path d="M186.043 183.159C186.615 182.671 187.312 182.354 188.056 182.245L191.359 181.758C195.512 181.147 197.682 186.529 194.267 188.97L186.002 194.878C184.215 196.155 181.733 195.753 180.441 193.977L179.907 193.243C178.678 191.553 178.957 189.203 180.546 187.847L186.043 183.159Z" fill="white"/>
<path d="M66.417 166.796C68.3938 167.377 69.6067 169.363 69.2192 171.387L68.4637 175.332C68.3436 175.959 68.075 176.549 67.6804 177.051L66.3974 178.684C63.7606 182.04 58.4044 179.486 59.352 175.324L60.6704 169.535C61.1824 167.287 63.4844 165.936 65.697 166.585L66.417 166.796Z" fill="white"/>
<path d="M111.407 148.453C110.306 150.533 111.229 153.108 113.399 154.015L121.765 157.513C123.742 158.339 126.019 157.461 126.929 155.521L133.599 141.304C134.637 139.091 133.465 136.473 131.123 135.773L123.041 133.358C121.213 132.811 119.253 133.632 118.361 135.319L111.407 148.453Z" fill="white"/>
<path d="M116.793 131.207C115.624 130.834 114.348 131.018 113.332 131.707L107.327 135.778C105.618 136.937 105.09 139.212 106.477 140.741C109.27 143.822 114.693 147.766 122.328 144.128C124.873 142.92 126.716 140.865 127.945 139.051C129.219 137.172 128.096 134.816 125.934 134.126L116.793 131.207Z" fill="white"/>
<path d="M140.469 138.595C141.842 139.009 142.888 140.125 143.212 141.522L144.599 147.499C145.012 149.279 144.158 151.116 142.398 151.609C138.438 152.721 131.321 153.352 126.834 145.749C125.347 143.226 125.123 140.341 125.269 138.088C125.412 135.91 127.61 134.724 129.7 135.353L140.469 138.595Z" fill="white"/>
<path d="M167.799 148.68C168.487 147.583 169.683 146.908 170.977 146.886L171.239 146.881C172.958 146.852 174.446 148.069 174.759 149.758C174.981 150.962 174.563 152.194 173.654 153.013L165.669 160.206C164.841 160.952 163.586 160.961 162.747 160.227C161.933 159.515 161.757 158.318 162.331 157.402L167.799 148.68Z" fill="white"/>
<path d="M168.925 146.943C168.91 146.928 168.899 146.91 168.894 146.89L168.156 144.152C167.453 141.548 164.458 140.494 162.826 142.641C161.902 143.858 161.037 145.353 160.525 147.101C159.803 149.556 159.627 151.668 159.721 153.405C159.876 156.246 163.006 156.448 164.53 154.045L168.941 147.091C168.971 147.044 168.964 146.983 168.925 146.943Z" fill="white"/>
<path d="M100.654 168.046C101.589 168.916 102.019 170.199 101.799 171.456L101.764 171.656C101.468 173.344 100.002 174.575 98.2878 174.575C97.0522 174.575 95.9066 173.929 95.2675 172.871L89.7239 163.698C89.1564 162.759 89.3774 161.544 90.2393 160.865C91.0816 160.201 92.2821 160.251 93.0669 160.982L100.654 168.046Z" fill="white"/>
<path d="M100.868 168.247C101.685 169.008 102.784 169.393 103.897 169.308L105.02 169.222C107.708 169.018 109.311 166.269 107.519 164.254C106.5 163.108 105.199 161.972 103.591 161.153C101.296 159.962 99.2437 159.389 97.5171 159.16C94.7121 158.788 93.9533 161.809 96.0242 163.737L100.868 168.247Z" fill="white"/>
<path d="M144.125 80.8918H136.513C135.692 80.8918 135.027 80.2264 135.027 79.4055C135.027 78.5846 135.692 77.9192 136.513 77.9192H143.765L144.125 80.8918Z" fill="#231F20"/>
<path d="M91.7031 107.555L84.4066 123.139L78.101 121.788L84.2265 98.1871L91.7031 98.4574V107.555Z" fill="white"/>
<path d="M86.0391 95.6654C87.6649 95.6654 89.1289 96.6494 89.7429 98.1547L94.0877 108.806C94.2292 109.153 94.199 109.547 94.0063 109.868C93.611 110.527 92.7041 110.644 92.1546 110.107L82.9945 101.155C82.0074 100.19 81.7499 98.7015 82.3556 97.4614C82.8923 96.3624 84.0084 95.6654 85.2314 95.6654H86.0391Z" fill="white"/>
<path d="M84.199 122.731C85.4583 122.987 86.5177 123.833 87.0466 125.004L88.4572 128.128C88.6347 128.521 88.7266 128.947 88.7266 129.379C88.7266 131.057 87.366 132.418 85.6877 132.418H79.3434C76.9844 132.418 75.1377 130.387 75.3614 128.038L75.6036 125.495C75.8289 123.129 78.0548 121.481 80.3834 121.955L84.199 122.731Z" fill="white"/>
</svg>
