<svg width="580" height="286" viewBox="0 0 580 286" fill="none" xmlns="http://www.w3.org/2000/svg">
<path d="M525.497 283.12V238H402.617V217.2L513.337 56.88H553.337V212.72H579.897V238H553.337V283.12H525.497ZM436.217 212.72H525.497V82.16L436.217 212.72Z" fill="white"/>
<path d="M289.324 285.68C273.537 285.68 259.991 282.8 248.684 277.04C237.591 271.067 228.524 262.853 221.484 252.4C214.444 241.733 209.217 229.467 205.804 215.6C202.604 201.52 201.004 186.373 201.004 170.16C201.004 153.947 202.604 138.907 205.804 125.04C209.004 110.96 214.124 98.6933 221.164 88.24C228.204 77.5733 237.271 69.2533 248.364 63.2799C259.671 57.3066 273.324 54.3199 289.324 54.3199C306.177 54.3199 320.257 57.6266 331.564 64.24C343.084 70.6399 352.151 79.3866 358.764 90.4799C365.591 101.573 370.391 114.053 373.164 127.92C376.151 141.573 377.644 155.653 377.644 170.16C377.644 184.667 376.151 198.853 373.164 212.72C370.391 226.373 365.591 238.747 358.764 249.84C352.151 260.72 343.084 269.467 331.564 276.08C320.257 282.48 306.177 285.68 289.324 285.68ZM289.324 260.4C301.911 260.4 312.044 257.733 319.724 252.4C327.617 246.853 333.697 239.6 337.964 230.64C342.231 221.68 345.111 211.973 346.604 201.52C348.097 190.853 348.844 180.4 348.844 170.16C348.844 160.133 348.097 149.893 346.604 139.44C345.111 128.773 342.231 118.96 337.964 110C333.697 100.827 327.617 93.4666 319.724 87.92C312.044 82.3733 301.911 79.5999 289.324 79.5999C276.524 79.5999 266.177 82.3733 258.284 87.92C250.391 93.4666 244.311 100.827 240.044 110C235.991 118.96 233.217 128.773 231.724 139.44C230.231 149.893 229.484 160.133 229.484 170.16C229.484 180.4 230.231 190.853 231.724 201.52C233.217 211.973 235.991 221.68 240.044 230.64C244.311 239.6 250.391 246.853 258.284 252.4C266.177 257.733 276.524 260.4 289.324 260.4Z" fill="white"/>
<path d="M122.985 283.12V238H0.105469V217.2L110.825 56.88H150.825V212.72H177.385V238H150.825V283.12H122.985ZM33.7055 212.72H122.985V82.16L33.7055 212.72Z" fill="white"/>
<path fill-rule="evenodd" clip-rule="evenodd" d="M306.509 29.2249C307.734 28.5504 309.9 27.4982 310.868 26.2572C314.515 21.6706 304.43 2.29943 312.35 0.383888C317.079 -0.776227 326.396 14.2243 330.669 15.0067C335.797 15.951 342.977 1.92171 348.903 4.72757C353.262 6.80499 350.555 16.8413 350.384 20.4836C350.185 24.3956 353.433 24.3686 356.025 24.4495C358.162 24.5305 362.493 24.5305 364.173 24.8542C367.023 25.3938 370.099 28.0108 367.991 30.7088C365.114 34.378 353.034 35.1064 352.065 40.3674L350.555 48.4882C349.302 55.314 344.544 52.724 340.27 50.2688C335.227 47.382 331.78 44.1445 326.851 42.7955C320.84 41.1498 313.433 41.2577 307.649 39.3422C298.475 36.2935 299.472 33.0829 306.509 29.2249ZM340.071 37.4806C345.398 34.4589 343.575 28.1187 337.621 25.3399C333.433 23.3704 328.276 22.534 324.43 24.9082C314.059 31.3563 329.729 43.3081 340.071 37.4806Z" fill="white"/>
</svg>
