<svg width="125" height="202" viewBox="0 0 125 202" fill="none" xmlns="http://www.w3.org/2000/svg">
<path d="M28.3019 70.7032L0.00195312 201.03H124.302L70.3019 70.7032H28.3019Z" fill="#8FA6DB"/>
<path d="M48.9023 41.033C48.9576 41.033 49.0023 40.9882 49.0023 40.933V10.325C49.0023 4.80212 53.4795 0.324951 59.0023 0.324951H89.5968C95.4244 0.324951 99.9287 5.52407 96.6756 10.3592C94.2753 13.9268 90.3506 17.4283 83.9508 18.918C79.8594 19.8704 75.9199 22.3968 72.7371 25.1383C71.6363 26.0865 70.2751 27.0598 68.6024 27.97C63.0241 30.9891 54.4858 30.2615 53.8411 30.2015C53.8124 30.1988 53.7879 30.1978 53.7591 30.1978C53.2859 30.1978 52.9023 30.5813 52.9023 31.0545V37.033C52.9023 39.2422 51.1115 41.033 48.9023 41.033Z" fill="#B8CAF5"/>
<path d="M50.9411 31.9194C46.5633 31.9194 42.8576 35.1513 42.2624 39.4884L40.2263 54.3248C39.4198 60.2013 43.9867 65.4377 49.9183 65.4377C55.3212 65.4377 59.7012 61.0578 59.7012 55.6549V40.6795C59.7012 35.8414 55.7792 31.9194 50.9411 31.9194Z" fill="white"/>
<path d="M54.8019 63.4126H45.002V76.5769H54.8019V63.4126Z" fill="white"/>
<path d="M28.3008 70.7032L37.2008 108.677H66.5008L70.3008 70.7032H28.3008Z" fill="white"/>
<path d="M34.1004 77.2854L23.8004 97.3356H10.9004L27.2004 69.083L34.1004 77.2854Z" fill="white"/>
<path d="M28.3008 70.7032C28.3008 70.7032 33.5008 78.8044 47.6008 78.8044C61.7008 78.8044 70.4008 70.7032 70.4008 70.7032H28.4008H28.3008Z" fill="white"/>
<path d="M36.3008 70.7033C36.3008 75.1589 32.7008 78.8044 28.3008 78.8044C23.9008 78.8044 20.3008 75.1589 20.3008 70.7033C20.3008 66.2477 23.9008 62.6022 28.3008 62.6022C32.7008 62.6022 36.3008 66.2477 36.3008 70.7033Z" fill="white"/>
<path d="M49.0478 73.7368L44.0273 78.8207L49.0478 83.9046L54.0683 78.8207L49.0478 73.7368Z" fill="#8EC748"/>
<path d="M79.4019 192.22H70.3019L53.002 112.525L66.502 108.677L79.4019 192.22Z" fill="white"/>
<path d="M24.3008 192.22H33.4008L50.7008 112.525L37.2008 108.677L24.3008 192.22Z" fill="white"/>
<path d="M31.6004 114.146L36.3004 108.475L22.5004 97.741L13.4004 102.399L31.6004 114.146Z" fill="white"/>
<path d="M24.505 96.9661C24.4446 96.354 23.9667 95.8661 23.3559 95.7931L12.6985 94.5191C11.0848 94.3262 9.52652 95.1788 8.81886 96.6418C8.09447 98.1395 8.42626 99.934 9.63825 101.074L9.8461 101.269C11.0382 102.39 12.7732 102.716 14.2907 102.104L23.6909 98.3108C24.2307 98.093 24.5623 97.5454 24.505 96.9661Z" fill="white"/>
<path d="M23.2563 192.22C22.4356 192.22 21.6313 192.449 20.934 192.882C17.1669 195.219 18.823 201.03 23.2563 201.03H30.6958C33.1286 201.03 35.1008 199.058 35.1008 196.625C35.1008 194.192 33.1286 192.22 30.6958 192.22H23.2563Z" fill="white"/>
<path d="M72.8069 192.22C70.4131 192.22 68.4574 194.132 68.4031 196.525C68.347 198.996 70.335 201.03 72.8069 201.03H78.6812C82.1561 201.03 84.2629 197.194 82.3988 194.262C81.5904 192.99 80.1881 192.22 78.6812 192.22H72.8069Z" fill="white"/>
<path d="M56.9004 130.55H46.6004L42.4004 108.677H62.7004L56.9004 130.55Z" fill="white"/>
<path d="M64.1008 108.677C65.6178 108.677 67.0528 109.366 68.0018 110.55L71.9013 115.413C73.495 117.401 73.3164 120.289 71.0912 121.53C67.4025 123.586 61.3821 125.267 55.4006 119.715C53.4553 117.924 52.4092 115.559 51.8473 113.478C51.1422 110.866 53.3538 108.677 56.0595 108.677H64.1008Z" fill="white"/>
<path d="M39.6018 108.677C38.0848 108.677 36.6498 109.366 35.7008 110.55L31.8012 115.413C30.2076 117.401 30.3861 120.289 32.6114 121.53C36.3 123.586 42.3204 125.267 48.3019 119.715C50.2472 117.924 51.2934 115.559 51.8552 113.478C52.5604 110.866 50.3487 108.677 47.643 108.677H39.6018Z" fill="white"/>
<path d="M60.1021 153.031C60.1021 153.031 52.9021 141.892 65.2021 139.765C78.4021 137.436 74.7021 150.499 74.7021 150.499L60.2021 153.031H60.1021Z" fill="white"/>
<path d="M31.6197 148.528C30.4225 148.052 29.0658 148.213 28.0135 148.957L27.9178 149.024C26.4621 150.053 25.9556 151.979 26.7167 153.59C27.2653 154.752 28.381 155.542 29.6586 155.674L40.3132 156.775C41.4492 156.892 42.4953 156.147 42.7554 155.035C43.0112 153.941 42.4282 152.825 41.3845 152.41L31.6197 148.528Z" fill="white"/>
<path d="M60.1369 154.284C60.1154 153.52 60.5411 152.815 61.2263 152.478L65.7713 150.242C66.6395 149.815 67.6129 149.649 68.5734 149.764L73.4778 150.352C74.2193 150.441 74.8354 150.966 75.0413 151.684C75.3421 152.733 74.6769 153.815 73.6045 154.019L62.4532 156.146C61.2724 156.371 60.1708 155.485 60.1369 154.284Z" fill="white"/>
<path d="M31.6508 148.561C30.4079 148.054 29.4332 147.05 28.9618 145.794C27.8328 142.783 30.0017 139.663 33.0185 140.776C34.2446 141.228 35.5164 141.876 36.7012 142.803C38.2622 144.013 39.4425 145.254 40.3349 146.438C42.4731 149.274 39.5009 151.764 36.212 150.422L31.6508 148.561Z" fill="white"/>
<path d="M41.1016 45.4887H56.6826C57.5215 45.4887 58.2016 44.8087 58.2016 43.9698C58.2016 43.1309 57.5215 42.4508 56.6826 42.4508H41.6016L41.1016 45.4887Z" fill="#D9D9D9"/>
<path d="M41.1016 45.4887H56.6826C57.5215 45.4887 58.2016 44.8087 58.2016 43.9698C58.2016 43.1309 57.5215 42.4508 56.6826 42.4508H41.6016L41.1016 45.4887Z" fill="#142039"/>
<path d="M32.3922 103.918C29.3066 103.918 26.9574 106.685 27.4585 109.73L27.9582 112.766C28.2866 114.761 29.7967 116.356 31.7712 116.791C34.3187 117.354 36.8646 115.84 37.5874 113.333L38.4609 110.303C39.3826 107.107 36.9835 103.918 33.6566 103.918H32.3922Z" fill="white"/>
<path d="M64.4023 77.2854L74.7024 97.3356H87.7024L71.3023 69.083L64.4023 77.2854Z" fill="white"/>
<path d="M66.9012 114.146L62.2012 108.475L76.0012 97.741L85.1012 102.399L66.9012 114.146Z" fill="white"/>
<path d="M73.9989 96.9661C74.0593 96.354 74.5372 95.8661 75.148 95.7931L85.8054 94.5191C87.4191 94.3262 88.9774 95.1788 89.685 96.6418C90.4094 98.1395 90.0776 99.934 88.8657 101.074L88.6578 101.269C87.4657 102.39 85.7307 102.716 84.2132 102.104L74.8131 98.3108C74.2732 98.093 73.9416 97.5454 73.9989 96.9661Z" fill="white"/>
<path d="M72.0012 103.918L70.0012 116.07L62.2012 117.791L58.2012 103.918H72.0012Z" fill="white"/>
<path d="M78.3008 70.7033C78.3008 75.1589 74.7008 78.8044 70.3008 78.8044C65.9008 78.8044 62.3008 75.1589 62.3008 70.7033C62.3008 66.2477 65.9008 62.6022 70.3008 62.6022C74.7008 62.6022 78.3008 66.2477 78.3008 70.7033Z" fill="white"/>
</svg>
