<svg width="172" height="169" viewBox="0 0 172 169" fill="none" xmlns="http://www.w3.org/2000/svg">
<path d="M97.9012 62.1919L107.701 62.1919L107.701 75.1919L97.9012 75.1919L97.9012 62.1919Z" fill="white"/>
<path d="M125.701 71.8921L117.601 168.992L0.00117447 168.992L83.6012 71.8921L125.701 71.8921Z" fill="#8FA6DB"/>
<path d="M93.298 32.067C97.4762 30.5939 102.099 32.4479 104.101 36.3998L110.643 49.3107C113.32 54.5939 110.727 61.0254 105.135 62.9744C100.034 64.752 94.4577 62.0605 92.6763 56.9612L87.9026 43.2973C86.2989 38.7067 88.712 33.6839 93.298 32.067Z" fill="white"/>
<path d="M97.0286 38.4651C97.0732 38.4204 97.0884 38.3542 97.0677 38.2946L87.184 9.84151C85.3713 4.62325 79.6709 1.86325 74.4532 3.67762L45.4625 13.7588C39.9748 15.667 37.4263 22.0376 42.0926 25.4991C45.4978 28.025 50.3069 29.9821 56.7918 29.2768C60.9693 28.8224 65.5267 29.9154 69.4465 31.4299C70.7782 31.9444 72.3568 32.3969 74.2016 32.6921C80.4976 33.6607 88.3887 30.2197 88.8777 30.0028C88.8937 29.9957 88.9098 29.989 88.9262 29.9829C89.3512 29.8235 89.8241 30.0456 89.9727 30.4746L92.1349 36.7141C92.7247 38.416 94.5796 39.3207 96.2838 38.7377L96.9654 38.5045C96.9892 38.4963 97.0108 38.4829 97.0286 38.4651Z" fill="white"/>
<path d="M125.701 71.8921L116.701 109.492L87.4012 109.492L83.6012 71.8921L125.701 71.8921Z" fill="white"/>
<path d="M122.901 78.3919L148.701 73.8919L141.701 64.1919L121.501 66.2919L122.901 78.3919Z" fill="white"/>
<path d="M79.8016 66.1919L61.6016 84.3919L67.6016 90.6919L89.6016 75.8919L79.8016 66.1919Z" fill="white"/>
<path d="M125.701 71.8921C125.701 71.8921 120.501 79.8921 106.401 79.8921C92.3012 79.8921 83.6012 71.8921 83.6012 71.8921L125.601 71.8921L125.701 71.8921Z" fill="white"/>
<path d="M117.602 71.8921C117.602 76.2921 121.202 79.8921 125.602 79.8921C130.002 79.8921 133.602 76.2921 133.602 71.8921C133.602 67.4921 130.002 63.8921 125.602 63.8921C121.202 63.8921 117.602 67.4921 117.602 71.8921Z" fill="white"/>
<path d="M75.6016 71.8921C75.6016 76.2921 79.2016 79.8921 83.6016 79.8921C88.0016 79.8921 91.6016 76.2921 91.6016 71.8921C91.6016 67.4921 88.0016 63.8921 83.6016 63.8921C79.2016 63.8921 75.6016 67.4921 75.6016 71.8921Z" fill="white"/>
<path d="M106.421 74.9854L111.441 80.0059L106.421 85.0263L101.4 80.0059L106.421 74.9854Z" fill="#D9D9D9"/>
<path d="M106.421 74.9854L111.441 80.0059L106.421 85.0263L101.4 80.0059L106.421 74.9854Z" fill="#142039"/>
<path d="M157.502 48.792L164.002 52.192L148.702 73.892L141.702 64.192L157.502 48.792Z" fill="white"/>
<path d="M141.32 62.515C141.81 62.0578 142.575 62.0768 143.042 62.5577L149.93 69.6564C151.129 70.8924 151.271 72.81 150.267 74.209L150.059 74.4982C149.521 75.2476 148.655 75.6919 147.732 75.6919C146.566 75.6919 145.515 74.984 145.078 73.9024L141.019 63.8756C140.828 63.4035 140.948 62.8625 141.32 62.515Z" fill="white"/>
<path d="M137.101 161.492L151.201 168.992L124.001 168.992L125.501 161.492L137.101 161.492Z" fill="white"/>
<path d="M60.3008 148.392L63.3008 168.992L56.8008 168.992L48.8008 148.392L60.3008 148.392Z" fill="white"/>
<path d="M107.602 43.3919L98.8016 46.4919L97.9016 43.5919L106.202 40.6919L107.602 43.3919Z" fill="#D9D9D9"/>
<path d="M107.602 43.3919L98.8016 46.4919L97.9016 43.5919L106.202 40.6919L107.602 43.3919Z" fill="#142039"/>
<path d="M113.601 109.492L146.301 121.292L135.201 161.492L127.101 161.492L131.901 128.692L107.601 119.092L113.601 109.492Z" fill="white"/>
<path d="M99.1016 115.392L91.2016 163.792L57.5016 155.692L56.0016 149.792L83.4016 149.792L86.7016 113.292L99.1016 115.392Z" fill="white"/>
<path d="M142.339 119.694C143.323 119.189 144.487 119.173 145.484 119.651L145.572 119.693C147.296 120.519 148.017 122.592 147.177 124.309C146.747 125.189 145.962 125.844 145.02 126.11L132.04 129.773C130.991 130.069 129.886 129.535 129.466 128.529C129.034 127.492 129.472 126.297 130.471 125.784L142.339 119.694Z" fill="white"/>
<path d="M96.6019 130.992L97.4193 130.992C103.16 130.992 108.096 126.927 109.197 121.293L111.502 109.492L91.202 109.492L96.6019 130.992Z" fill="white"/>
<path d="M157.649 32.7883C158.465 32.8511 159.16 33.4047 159.404 34.1858L160.799 38.6481C161.062 39.4898 160.186 40.2352 159.397 39.8408L156.061 38.1728C155.696 37.9902 155.395 37.7001 155.2 37.3416L152.5 32.3921L157.649 32.7883Z" fill="#8EC748"/>
<path d="M156.602 27.2922L158.002 25.4922L164.402 25.4922L166.002 27.2922L162.202 29.6922L162.202 59.6422C162.202 60.1668 161.777 60.5922 161.252 60.5922C160.727 60.5922 160.302 60.1668 160.302 59.6422L160.302 37.7922L160.302 29.6922L156.602 27.2922Z" fill="#D9D9D9"/>
<path d="M156.602 27.2922L158.002 25.4922L164.402 25.4922L166.002 27.2922L162.202 29.6922L162.202 59.6422C162.202 60.1668 161.777 60.5922 161.252 60.5922C160.727 60.5922 160.302 60.1668 160.302 59.6422L160.302 37.7922L160.302 29.6922L156.602 27.2922Z" fill="#142039"/>
<path d="M87.8779 109.492C87.5767 109.492 87.2915 109.628 87.1016 109.862L81.4866 116.778C80.19 118.375 80.3341 120.695 82.0903 121.766C85.6791 123.956 92.1125 126.249 98.5017 120.392C101.894 117.308 102.552 112.5 102.676 110.46C102.708 109.92 102.271 109.492 101.73 109.492L87.8779 109.492Z" fill="white"/>
<path d="M116.601 109.492C116.667 109.492 116.733 109.502 116.797 109.521L120.635 110.693C123.563 111.587 124.932 114.897 122.772 117.067C119.81 120.041 114.926 122.887 108.101 120.292C105.338 119.25 103.682 116.936 102.698 114.715C101.514 112.043 103.807 109.492 106.73 109.492L116.601 109.492Z" fill="white"/>
<path d="M161.62 40.6984C165.011 40.7475 167.544 43.8327 166.933 47.1684L166.511 49.4665C166.144 51.4717 164.583 53.0458 162.581 53.4308C160.051 53.9174 157.571 52.3795 156.882 49.8965L156.258 47.6451C155.28 44.1206 157.963 40.6453 161.62 40.6984Z" fill="white"/>
<path d="M63.3012 110.292L56.9012 110.292L60.2012 83.6919L68.7012 89.8919L63.3012 110.292Z" fill="white"/>
<path d="M70.6986 92.1579C70.3687 92.7847 69.5935 93.026 68.9662 92.6971L60.3285 88.1693C58.8025 87.3694 58.0564 85.601 58.5483 83.9497L58.6587 83.579C58.9352 82.6508 59.6592 81.9233 60.5862 81.6424C61.6879 81.3085 62.8827 81.6619 63.6256 82.5414L70.5433 90.7313C70.8807 91.1309 70.9422 91.6951 70.6986 92.1579Z" fill="white"/>
<path d="M60.1927 119.165C58.1722 119.756 56.187 118.137 56.3602 116.039L56.9008 109.492L63.9008 108.792L64.6982 110.242C66.5474 113.604 64.809 117.814 61.1263 118.892L60.1927 119.165Z" fill="white"/>
<path d="M91.502 163.092L89.4019 167.892L84.7019 165.992L79.4019 149.892L82.9019 148.292L91.502 163.092Z" fill="white"/>
<path d="M91.5008 163.092L98.8008 161.992C98.8008 161.992 97.1008 157.192 92.9008 153.692C86.8008 148.492 82.9008 148.292 82.9008 148.292L91.5008 163.092Z" fill="white"/>
<path d="M163.529 10.3353C163.821 9.26214 164.87 8.61318 165.871 8.88579C166.873 9.15841 167.448 10.2494 167.156 11.3225C166.864 12.3957 165.815 13.0446 164.813 12.772C163.812 12.4994 163.237 11.4084 163.529 10.3353Z" fill="#D9D9D9"/>
<path d="M163.529 10.3353C163.821 9.26214 164.87 8.61318 165.871 8.88579C166.873 9.15841 167.448 10.2494 167.156 11.3225C166.864 12.3957 165.815 13.0446 164.813 12.772C163.812 12.4994 163.237 11.4084 163.529 10.3353Z" fill="#142039"/>
<path d="M166.333 31.9099C165.913 31.3719 165.98 30.6185 166.482 30.2272C166.985 29.8358 167.732 29.9547 168.151 30.4927C168.57 31.0307 168.503 31.7841 168.001 32.1754C167.499 32.5668 166.752 32.4479 166.333 31.9099Z" fill="#D9D9D9"/>
<path d="M166.333 31.9099C165.913 31.3719 165.98 30.6185 166.482 30.2272C166.985 29.8358 167.732 29.9547 168.151 30.4927C168.57 31.0307 168.503 31.7841 168.001 32.1754C167.499 32.5668 166.752 32.4479 166.333 31.9099Z" fill="#142039"/>
<path d="M152.758 26.9099C152.339 26.3719 152.406 25.6185 152.908 25.2272C153.41 24.8358 154.157 24.9547 154.577 25.4927C154.996 26.0307 154.929 26.7841 154.427 27.1754C153.925 27.5668 153.178 27.4479 152.758 26.9099Z" fill="#D9D9D9"/>
<path d="M152.758 26.9099C152.339 26.3719 152.406 25.6185 152.908 25.2272C153.41 24.8358 154.157 24.9547 154.577 25.4927C154.996 26.0307 154.929 26.7841 154.427 27.1754C153.925 27.5668 153.178 27.4479 152.758 26.9099Z" fill="#142039"/>
<path d="M151.178 27.1662C149.423 23.7606 150.437 19.7444 153.442 18.1957C156.447 16.6471 160.305 18.1526 162.06 21.5582C163.815 24.9638 162.802 28.98 159.797 30.5286C156.792 32.0772 152.934 30.5718 151.178 27.1662Z" fill="#B8CAF5"/>
<path d="M156.158 15.6285C157.246 11.6318 161.152 9.21484 164.882 10.2301C168.613 11.2455 170.755 15.3085 169.667 19.3053C168.579 23.302 164.673 25.7189 160.943 24.7036C157.213 23.6883 155.071 19.6253 156.158 15.6285Z" fill="#6483CC"/>
<path d="M165.828 21.5946C168.887 21.7063 171.283 24.1113 171.179 26.9664C171.074 29.8215 168.51 32.0454 165.451 31.9337C162.392 31.822 159.997 29.417 160.101 26.5619C160.205 23.7068 162.769 21.4829 165.828 21.5946Z" fill="#8FA6DB"/>
</svg>
