<svg width="200" height="73" viewBox="0 0 200 73" fill="none" xmlns="http://www.w3.org/2000/svg">
<path d="M57.9931 21.7482L56.023 19.7827C44.9118 8.69738 26.8968 8.69738 15.7856 19.7827L13.8155 21.7482C2.70423 32.8335 2.70423 50.8064 13.8155 61.8917L15.7856 63.8572C26.8968 74.9426 44.9118 74.9426 56.023 63.8572L57.9931 61.8917C69.1044 50.8064 69.1044 32.8335 57.9931 21.7482Z" fill="#495059"/>
<path fill-rule="evenodd" clip-rule="evenodd" d="M31.8947 14.7139C32.4878 14.3751 33.5328 13.8387 33.9988 13.2034C35.7639 10.8742 30.9062 1.00683 34.7048 0.0327969C36.9925 -0.560093 41.4831 7.07689 43.5448 7.47215C46.016 7.95211 49.4757 0.8092 52.3424 2.24907C54.4323 3.29369 53.1473 8.41795 53.0625 10.2672C52.9637 12.2576 54.5312 12.2435 55.7738 12.2858C56.8047 12.3282 58.8946 12.3282 59.6995 12.4976C61.0834 12.7799 62.5521 14.0928 61.5353 15.4762C60.1514 17.3395 54.3335 17.7066 53.8675 20.3887L53.1473 24.5107C52.54 27.9833 50.2524 26.6705 48.1907 25.4141C45.7618 23.946 44.0955 22.2944 41.7231 21.6027C38.8283 20.7557 35.2415 20.8263 32.4596 19.8523C28.0396 18.2994 28.5056 16.6619 31.9088 14.6998L31.8947 14.7139ZM28.322 58.3618C27.3618 58.2348 26.6839 57.3737 26.811 56.4561C26.9381 55.5244 27.8278 54.8892 28.788 55.0163C31.0615 55.3268 33.1797 55.2421 35.0438 54.7057C36.7242 54.2116 38.221 53.3364 39.4496 52.0236C40.0992 51.3319 41.2006 51.2754 41.9349 51.8965C42.6693 52.5176 42.7257 53.5905 42.0903 54.2822C40.424 56.075 38.3764 57.2749 36.0887 57.9384C33.7305 58.6159 31.1039 58.7289 28.3361 58.3618H28.322ZM56.7341 28.0257C56.4093 26.9669 57.0306 25.8517 58.1321 25.5412C59.2336 25.2306 60.3915 25.8517 60.7304 26.9105C62.4956 32.6135 63.4982 38.6412 61.9307 44.5136C59.3748 54.1269 52.8083 61.7074 43.5448 65.3918C38.8141 67.2834 33.5328 68.0739 28.082 67.5093C23.3937 67.0152 19.0443 65.5612 15.2174 63.3732C11.2635 61.1004 7.87437 58.0372 5.27605 54.4375C4.61235 53.5199 4.85241 52.2777 5.79854 51.6565C6.74466 51.0354 8.04382 51.2613 8.70753 52.1789C10.9528 55.2986 13.89 57.9666 17.3356 59.9288C20.64 61.8204 24.4104 63.0767 28.4915 63.5002C33.2503 63.9943 37.8256 63.3026 41.9208 61.6792C49.9417 58.4889 55.675 51.7977 57.8779 43.469C57.9485 43.2149 58.005 42.9608 58.0615 42.7067C56.7482 43.1585 55.2796 43.1867 53.7404 42.8761C52.0882 42.5515 50.3512 41.8315 48.6849 40.8434C45.3664 38.8812 42.2033 35.7615 40.4663 32.4017C35.9193 38.006 27.0793 43.0879 18.9878 45.0501C15.7682 45.8265 12.6332 46.137 9.89371 45.8265C6.88588 45.4736 4.32992 44.4007 2.52239 42.4103C-0.245381 39.3329 -1.00793 34.2651 1.61863 26.614C3.38379 21.4615 6.71642 17.0995 10.9952 13.8104C15.401 10.4366 20.7954 8.19209 26.5427 7.4298C27.6866 7.27452 28.7457 8.05092 28.9151 9.13789C29.0846 10.239 28.2938 11.2412 27.1499 11.3965C22.151 12.0741 17.4345 14.0081 13.6076 16.9443C9.93608 19.7676 7.08358 23.4943 5.5726 27.8845C3.48264 33.9969 3.83568 37.766 5.67145 39.7988C6.73054 40.9704 8.36861 41.6198 10.3456 41.8456C12.5768 42.0997 15.1892 41.8315 17.9429 41.168C27.2064 38.9094 37.5009 32.3735 39.2095 26.3317C39.4637 25.4141 40.3816 24.7789 41.4125 24.8777C42.5563 24.9906 43.4036 25.9647 43.3047 27.0657C42.9799 30.6372 46.7927 35.0133 50.8596 37.4131C52.1447 38.1754 53.4156 38.7118 54.5453 38.9376C55.4773 39.1212 56.2963 39.107 56.8612 38.8247C59.4171 37.5401 57.3837 30.1431 56.72 27.9974L56.7341 28.0257ZM48.0636 18.9206C50.6337 17.3819 49.7582 14.1633 46.8915 12.7376C44.8722 11.7353 42.3868 11.3118 40.5369 12.5117C35.538 15.7867 43.0929 21.8709 48.0777 18.9065L48.0636 18.9206Z" fill="white"/>
<path fill-rule="evenodd" clip-rule="evenodd" d="M80.8875 37.3197C81.0798 37.3197 81.2722 37.2785 81.4782 37.2098C81.6843 37.1274 81.8628 36.9489 82.0414 36.6605C82.22 36.3722 82.3986 35.9328 82.5634 35.3698C82.7283 34.8068 82.8794 34.0241 83.003 33.0354C83.1266 32.0467 83.2228 30.8246 83.2915 29.3553C83.3602 27.886 83.3876 26.1146 83.3876 24.0274H93.5392V38.8439H90.833V25.7301H85.5306C85.5168 28.5177 85.3932 30.7971 85.1734 32.541C84.9536 34.285 84.6514 35.6444 84.2531 36.6193C83.8547 37.5943 83.3464 38.2534 82.742 38.5967C82.1376 38.9537 81.4233 39.1185 80.5991 39.1185C79.5138 39.1185 78.6484 38.8713 77.989 38.3907C77.3297 37.9101 77 37.2235 77 36.331C77 36.0426 77.0137 35.7405 77.0549 35.411C77.0962 35.0814 77.2198 34.7656 77.4258 34.4909H80.1869C80.0358 34.8754 79.9397 35.1775 79.8985 35.3972C79.8573 35.6307 79.8435 35.8504 79.8435 36.0838C79.8435 36.4683 79.9259 36.7704 80.1045 36.9901C80.2694 37.2235 80.5304 37.3334 80.8738 37.3334L80.8875 37.3197ZM97.1107 38.8301V24.0137H99.8169V35.6993L106.809 24.0137H109.515V38.8301H106.809V27.1445L99.8169 38.8301H97.1107ZM128.046 38.8301V24.0137H130.752V35.6993L137.744 24.0137H140.45V38.8301H137.744V27.1445L130.752 38.8301H128.046ZM88.6763 45.49V47.2065H81.437V60.3202H78.7308V45.5037H88.6763V45.49ZM156.33 60.3065V45.49H159.036V57.1756L166.028 45.49H168.735V60.3065H166.028V48.6208L159.036 60.3065H156.33ZM187.266 60.3065V45.49H189.972V57.1756L196.964 45.49H199.67V60.3065H196.964V48.6208L189.972 60.3065H187.266Z" fill="white"/>
<path fill-rule="evenodd" clip-rule="evenodd" d="M113.087 24H115.793V30.8384L123.06 24H125.477L118.238 30.8384L126.329 38.8165H122.771L115.779 31.9506V38.8165H113.073V24H113.087ZM97.5779 60.5812C96.5339 60.5812 95.5723 60.3889 94.6794 60.0044C93.8003 59.62 93.031 59.0981 92.3991 58.4116C91.7672 57.725 91.2727 56.9148 90.9156 55.9811C90.5584 55.0473 90.3936 54.0037 90.3936 52.8914C90.3936 51.7654 90.5721 50.7356 90.9156 49.8018C91.2727 48.8681 91.7672 48.0442 92.3991 47.3713C93.031 46.6847 93.8003 46.1492 94.6794 45.7784C95.5586 45.3939 96.5339 45.2017 97.5779 45.2017C98.6494 45.2017 99.611 45.3939 100.504 45.7784C101.383 46.1629 102.139 46.6847 102.77 47.3713C103.402 48.0579 103.883 48.8681 104.24 49.8018C104.597 50.7356 104.762 51.7792 104.762 52.8914C104.762 54.0174 104.584 55.0473 104.24 55.9811C103.883 56.9285 103.402 57.7387 102.77 58.4116C102.139 59.0981 101.383 59.6337 100.504 60.0044C99.6247 60.3889 98.6494 60.5812 97.5779 60.5812ZM97.5779 58.9608C98.2785 58.9608 98.9104 58.8098 99.4461 58.5214C99.9819 58.2331 100.435 57.8074 100.806 57.2856C101.163 56.75 101.438 56.1184 101.63 55.3769C101.823 54.6354 101.919 53.8115 101.919 52.8914C101.919 51.9989 101.823 51.175 101.63 50.4472C101.438 49.7057 101.163 49.0603 100.806 48.5248C100.449 47.9892 99.9956 47.5635 99.4461 47.2752C98.9104 46.9868 98.2785 46.8358 97.5779 46.8358C96.8773 46.8358 96.2592 46.9868 95.7097 47.2752C95.174 47.5635 94.7207 47.9892 94.3498 48.5248C93.9926 49.0603 93.7179 49.7057 93.5256 50.4472C93.3332 51.1887 93.2371 51.9989 93.2371 52.8914C93.2371 53.7977 93.3332 54.6354 93.5256 55.3769C93.7179 56.1184 93.9926 56.75 94.3498 57.2856C94.7069 57.8211 95.1602 58.2331 95.7097 58.5214C96.2454 58.8098 96.8773 58.9608 97.5779 58.9608ZM109.501 58.7961C109.694 58.7961 109.886 58.7549 110.092 58.6862C110.298 58.6038 110.477 58.4253 110.669 58.1369C110.848 57.8486 111.026 57.4092 111.191 56.8462C111.356 56.2832 111.507 55.5005 111.631 54.5118C111.754 53.5231 111.85 52.301 111.919 50.8317C111.988 49.3624 112.015 47.591 112.015 45.5038H122.167V60.3203H119.461V47.2065H114.158C114.145 49.9941 114.021 52.2735 113.801 54.0174C113.581 55.7614 113.279 57.1208 112.881 58.0957C112.482 59.0707 111.974 59.7298 111.37 60.0731C110.765 60.4301 110.051 60.5949 109.227 60.5949C108.142 60.5949 107.276 60.3477 106.617 59.8671C105.957 59.3865 105.628 58.6999 105.628 57.8074C105.628 57.519 105.641 57.2169 105.683 56.8873C105.724 56.5578 105.848 56.242 106.054 55.9673H108.815C108.664 56.3518 108.567 56.6539 108.526 56.8736C108.485 57.1071 108.471 57.3268 108.471 57.5602C108.471 57.9447 108.554 58.2468 108.732 58.4665C108.897 58.6999 109.158 58.8098 109.501 58.8098V58.7961ZM130.862 60.3065L124.159 45.4901H126.865L132.057 57.0109L136.275 45.4901H138.266L131.796 63.1627C131.535 63.9042 131.261 64.5634 131 65.1538C130.739 65.7443 130.423 66.2523 130.052 66.678C129.695 67.1037 129.269 67.4333 128.788 67.6667C128.307 67.9001 127.703 68.01 126.975 68.01C126.219 68.01 125.574 67.9276 125.052 67.7491C124.53 67.5843 124.104 67.3509 123.774 67.0488C123.444 66.7604 123.197 66.4171 123.06 66.0464C122.922 65.6756 122.84 65.2911 122.84 64.8929C122.84 64.4947 122.881 64.1377 122.95 63.8081C123.032 63.4785 123.17 63.0803 123.376 62.6135H126.343C126.096 63.0254 125.931 63.4099 125.862 63.7394C125.78 64.069 125.752 64.4123 125.752 64.7556C125.752 65.2499 125.876 65.6344 126.137 65.8953C126.398 66.1562 126.755 66.2935 127.236 66.2935C127.565 66.2935 127.84 66.2386 128.06 66.1425C128.293 66.0326 128.5 65.8541 128.692 65.607C128.884 65.3461 129.076 64.989 129.283 64.5359C129.489 64.0827 129.708 63.506 129.956 62.792L130.862 60.3065ZM172.32 45.4901H175.026V52.3284L182.293 45.4901H184.711L177.471 52.3284L185.562 60.3065H182.005L175.012 53.4407V60.3065H172.306V45.4901H172.32ZM146.289 60.5949C145.355 60.5949 144.448 60.4301 143.569 60.1006C142.69 59.771 141.907 59.2492 141.234 58.5489C140.561 57.8486 140.011 56.9423 139.613 55.8575C139.201 54.7589 138.994 53.4544 138.994 51.944C138.994 49.6782 139.146 47.8244 139.448 46.3552C139.75 44.8859 140.245 43.7049 140.945 42.7987C141.632 41.8924 142.539 41.1921 143.651 40.7389C144.764 40.272 146.124 39.915 147.745 39.6678C149.022 39.4619 150.025 39.2696 150.753 39.0774C151.481 38.8989 152.086 38.6654 152.567 38.3771V41.1371C152.306 41.3431 151.866 41.4941 151.275 41.5903C150.671 41.6864 149.86 41.81 148.844 41.961C147.305 42.1945 146.042 42.4416 145.052 42.7025C144.063 42.9634 143.28 43.3479 142.717 43.8423C142.14 44.3366 141.742 44.9957 141.508 45.8196C141.275 46.6435 141.137 47.7558 141.124 49.1427C141.453 48.4149 141.838 47.8244 142.278 47.3438C142.731 46.8632 143.198 46.4925 143.72 46.2178C144.228 45.9432 144.764 45.751 145.313 45.6548C145.863 45.545 146.399 45.5038 146.907 45.5038C147.662 45.5038 148.432 45.6411 149.215 45.9295C149.998 46.2178 150.698 46.671 151.344 47.2889C151.976 47.9068 152.498 48.6895 152.91 49.637C153.322 50.5845 153.528 51.7242 153.528 53.0287C153.528 54.2783 153.322 55.3906 152.924 56.3381C152.525 57.2856 151.99 58.082 151.316 58.7137C150.643 59.3453 149.874 59.8259 149.009 60.1418C148.143 60.4576 147.25 60.6086 146.316 60.6086L146.289 60.5949ZM146.399 47.1104C145.643 47.1104 144.984 47.2614 144.421 47.5498C143.857 47.8382 143.404 48.2501 143.033 48.7719C142.676 49.2937 142.401 49.9117 142.236 50.6394C142.072 51.3672 141.975 52.1499 141.975 53.0013C141.975 53.8801 142.072 54.6765 142.25 55.3906C142.429 56.1184 142.703 56.7363 143.047 57.2718C143.404 57.8074 143.844 58.2193 144.393 58.5077C144.929 58.7961 145.561 58.9471 146.289 58.9471C147.717 58.9471 148.803 58.3978 149.544 57.313C150.286 56.2145 150.657 54.7864 150.657 53.0013C150.657 52.1637 150.561 51.381 150.382 50.6669C150.204 49.9391 149.929 49.3212 149.572 48.7994C149.215 48.2776 148.761 47.8656 148.226 47.5635C147.69 47.2614 147.085 47.1104 146.399 47.1104Z" fill="white"/>
</svg>
