<svg width="177" height="60" viewBox="0 0 177 60" fill="none" xmlns="http://www.w3.org/2000/svg">
<g clip-path="url(#clip0_456_1127)">
<path d="M51.3129 18.091L49.5698 16.4561C39.7384 7.23495 23.7987 7.23495 13.9673 16.4561L12.2242 18.091C2.39284 27.3121 2.39284 42.2625 12.2242 51.4836L13.9673 53.1186C23.7987 62.3397 39.7384 62.3397 49.5698 53.1186L51.3129 51.4836C61.1443 42.2625 61.1443 27.3121 51.3129 18.091Z" fill="#B8CAF5"/>
<path fill-rule="evenodd" clip-rule="evenodd" d="M27.4306 11.8798C27.939 11.6025 28.8376 11.17 29.2396 10.6599C30.7531 8.77463 26.5675 0.81219 29.8545 0.0248179C31.8172 -0.452041 35.6835 5.71386 37.4571 6.03546C39.5853 6.4236 42.5649 0.656934 45.0242 1.81027C46.8332 2.66418 45.71 6.78957 45.639 8.28668C45.5563 9.8947 46.9042 9.88361 47.9801 9.91688C48.8669 9.95015 50.6641 9.95015 51.3617 10.0832C52.544 10.305 53.821 11.3807 52.9461 12.4897C51.7519 13.9979 46.7386 14.2973 46.3366 16.4598L45.71 19.7978C45.1897 22.6036 43.2152 21.5389 41.4416 20.5298C39.3489 19.3432 37.9182 18.0124 35.8727 17.4579C33.3779 16.7814 30.3038 16.8258 27.9036 16.0384C24.0964 14.7853 24.5102 13.4656 27.4306 11.8798ZM24.3565 47.1341C23.5288 47.0343 22.9376 46.3356 23.0559 45.5926C23.1623 44.8496 23.9308 44.3284 24.7585 44.4282C26.7212 44.6722 28.542 44.6167 30.1382 44.1731C31.5925 43.7739 32.8695 43.0752 33.9218 42.0106C34.4775 41.445 35.4352 41.4007 36.0619 41.9108C36.6885 42.4099 36.7477 43.2748 36.1919 43.8404C34.7495 45.2932 32.9996 46.258 31.025 46.8014C28.9913 47.3559 26.733 47.4446 24.3565 47.1452V47.1341ZM48.8196 22.6257C48.5358 21.7718 49.0797 20.8736 50.0256 20.6185C50.9715 20.3745 51.9765 20.8625 52.2603 21.7275C53.7855 26.3297 54.6368 31.2092 53.3008 35.9445C51.1016 43.7074 45.4499 49.8289 37.4689 52.812C33.4016 54.3313 28.8495 54.9856 24.1673 54.5199C20.1354 54.1206 16.3873 52.9451 13.1004 51.1818C9.69515 49.352 6.77471 46.879 4.55187 43.9624C3.98433 43.2194 4.18534 42.2213 5.00117 41.7112C5.817 41.2122 6.94025 41.4007 7.49596 42.1326C9.43503 44.6611 11.9653 46.8014 14.9212 48.3983C17.7589 49.9287 21.0104 50.9379 24.522 51.2927C28.613 51.692 32.5621 51.1375 36.0737 49.8178C42.9787 47.2339 47.9092 41.8332 49.8128 35.1128C49.8719 34.9021 49.931 34.7025 49.9783 34.4918C48.8551 34.8577 47.5781 34.8799 46.2539 34.6248C44.835 34.3587 43.3334 33.782 41.9028 32.9836C39.0533 31.3977 36.322 28.8804 34.8322 26.1745C30.9186 30.6991 23.3042 34.8023 16.3519 36.3992C13.5851 37.0313 10.8893 37.2864 8.52461 37.0202C5.93524 36.743 3.72421 35.8669 2.18714 34.2589C-0.201238 31.7748 -0.851539 27.6827 1.40678 21.4946C2.93203 17.3359 5.79335 13.8094 9.48233 11.1478C13.2659 8.41976 17.9244 6.61213 22.8667 5.9911C23.8481 5.86912 24.7585 6.49014 24.9004 7.37732C25.0422 8.2645 24.3683 9.08515 23.3869 9.20713C19.0831 9.75053 15.0276 11.3253 11.7288 13.6874C8.56008 15.9608 6.11259 18.9772 4.81199 22.5259C3.00297 27.4609 3.32221 30.5105 4.89475 32.1518C5.80517 33.1055 7.21219 33.6268 8.91479 33.8042C10.8302 34.0149 13.0885 33.7931 15.4533 33.2497C23.4342 31.431 32.2901 26.1523 33.7563 21.2728C33.9809 20.5298 34.7731 20.0196 35.6481 20.0973C36.6294 20.186 37.3625 20.9734 37.2797 21.8605C37.0078 24.755 40.2829 28.2815 43.7827 30.2222C44.8823 30.8321 45.9819 31.2647 46.9633 31.4532C47.7673 31.6084 48.4649 31.5863 48.9615 31.3534C51.1607 30.322 49.4108 24.3446 48.8433 22.6036L48.8196 22.6257ZM41.3589 15.2732C43.5699 14.0312 42.8132 11.4251 40.342 10.2828C38.604 9.47329 36.4639 9.1295 34.8677 10.1054C30.5639 12.7559 37.0669 17.6686 41.3589 15.2732Z" fill="white"/>
<path fill-rule="evenodd" clip-rule="evenodd" d="M74.7611 30.1444C74.9267 30.1444 75.0922 30.1111 75.2695 30.0557C75.4469 29.9892 75.6006 29.845 75.7543 29.6121C75.908 29.3792 76.0617 29.0243 76.2036 28.5697C76.3455 28.115 76.4756 27.4829 76.582 26.6844C76.6884 25.8859 76.7712 24.899 76.8303 23.7123C76.8894 22.5257 76.913 21.0952 76.913 19.4095H85.6507V31.3754H83.3215V20.7847H78.7575C78.7457 23.0359 78.6393 24.8768 78.4501 26.2852C78.2609 27.6936 78.0008 28.7915 77.6579 29.5788C77.315 30.3662 76.8776 30.8985 76.3573 31.1758C75.8371 31.4641 75.2223 31.5972 74.5128 31.5972C73.5788 31.5972 72.8339 31.3975 72.2663 31.0094C71.6988 30.6213 71.415 30.0668 71.415 29.3459C71.415 29.1131 71.4269 28.8691 71.4623 28.6029C71.4978 28.3368 71.6042 28.0817 71.7816 27.8599H74.1581C74.0281 28.1704 73.9453 28.4144 73.9098 28.5918C73.8744 28.7804 73.8625 28.9578 73.8625 29.1463C73.8625 29.4568 73.9335 29.7008 74.0872 29.8783C74.2291 30.0668 74.4537 30.1555 74.7493 30.1555L74.7611 30.1444ZM88.7249 31.3643V19.3984H91.0541V28.8358L97.0723 19.3984H99.4016V31.3643H97.0723V21.9269L91.0541 31.3643H88.7249ZM115.352 31.3643V19.3984H117.681V28.8358L123.699 19.3984H126.028V31.3643H123.699V21.9269L117.681 31.3643H115.352ZM81.4651 36.7428V38.129H75.2341V48.7197H72.9048V36.7539H81.4651V36.7428ZM139.697 48.7086V36.7428H142.026V46.1802L148.044 36.7428H150.373V48.7086H148.044V39.2713L142.026 48.7086H139.697ZM166.323 48.7086V36.7428H168.653V46.1802L174.671 36.7428H177V48.7086H174.671V39.2713L168.653 48.7086H166.323Z" fill="white"/>
<path fill-rule="evenodd" clip-rule="evenodd" d="M102.476 19.3872H104.805V24.9099L111.06 19.3872H113.141L106.91 24.9099L113.874 31.3531H110.812L104.793 25.8082V31.3531H102.464V19.3872H102.476ZM89.1271 48.9303C88.2285 48.9303 87.4009 48.7751 86.6323 48.4645C85.8756 48.154 85.2135 47.7326 84.6696 47.1781C84.1257 46.6236 83.7001 45.9693 83.3927 45.2152C83.0852 44.4611 82.9434 43.6183 82.9434 42.72C82.9434 41.8107 83.0971 40.979 83.3927 40.2249C83.7001 39.4707 84.1257 38.8054 84.6696 38.262C85.2135 37.7075 85.8756 37.275 86.6323 36.9756C87.389 36.665 88.2285 36.5098 89.1271 36.5098C90.0494 36.5098 90.877 36.665 91.6456 36.9756C92.4023 37.2861 93.0526 37.7075 93.5965 38.262C94.1404 38.8165 94.5542 39.4707 94.8616 40.2249C95.169 40.979 95.3109 41.8218 95.3109 42.72C95.3109 43.6294 95.1572 44.4611 94.8616 45.2152C94.5542 45.9804 94.1404 46.6347 93.5965 47.1781C93.0526 47.7326 92.4023 48.1651 91.6456 48.4645C90.8889 48.7751 90.0494 48.9303 89.1271 48.9303ZM89.1271 47.6217C89.7301 47.6217 90.274 47.4997 90.7351 47.2668C91.1963 47.034 91.5864 46.6902 91.9057 46.2688C92.2131 45.8363 92.4496 45.3261 92.6151 44.7273C92.7806 44.1284 92.8634 43.4631 92.8634 42.72C92.8634 41.9992 92.7806 41.3338 92.6151 40.7461C92.4496 40.1472 92.2131 39.626 91.9057 39.1935C91.5983 38.761 91.2081 38.4172 90.7351 38.1843C90.274 37.9515 89.7301 37.8295 89.1271 37.8295C88.5241 37.8295 87.9921 37.9515 87.5191 38.1843C87.058 38.4172 86.6678 38.761 86.3486 39.1935C86.0412 39.626 85.8047 40.1472 85.6391 40.7461C85.4736 41.3449 85.3909 41.9992 85.3909 42.72C85.3909 43.452 85.4736 44.1284 85.6391 44.7273C85.8047 45.3261 86.0412 45.8363 86.3486 46.2688C86.656 46.7013 87.0462 47.034 87.5191 47.2668C87.9802 47.4997 88.5241 47.6217 89.1271 47.6217ZM99.39 47.4886C99.5556 47.4886 99.7211 47.4554 99.8985 47.3999C100.076 47.3334 100.23 47.1892 100.395 46.9563C100.549 46.7234 100.702 46.3686 100.844 45.9139C100.986 45.4592 101.116 44.8271 101.223 44.0286C101.329 43.2302 101.412 42.2432 101.471 41.0566C101.53 39.87 101.554 38.4394 101.554 36.7538H110.291V48.7196H107.962V38.1289H103.398C103.386 40.3801 103.28 42.221 103.091 43.6294C102.902 45.0378 102.642 46.1357 102.299 46.9231C101.956 47.7104 101.518 48.2427 100.998 48.52C100.478 48.8083 99.863 48.9414 99.1536 48.9414C98.2195 48.9414 97.4746 48.7418 96.9071 48.3536C96.3395 47.9655 96.0558 47.411 96.0558 46.6902C96.0558 46.4573 96.0676 46.2133 96.1031 45.9472C96.1385 45.681 96.245 45.4259 96.4223 45.2041H98.7989C98.6688 45.5147 98.586 45.7586 98.5506 45.9361C98.5151 46.1246 98.5033 46.302 98.5033 46.4906C98.5033 46.8011 98.5742 47.045 98.7279 47.2225C98.8698 47.411 99.0945 47.4997 99.39 47.4997V47.4886ZM117.776 48.7085L112.006 36.7427H114.335L118.804 46.047L122.434 36.7427H124.149L118.58 51.0152C118.355 51.614 118.119 52.1463 117.894 52.6232C117.669 53.1001 117.397 53.5104 117.078 53.8542C116.771 54.1979 116.404 54.4641 115.99 54.6526C115.577 54.8411 115.056 54.9299 114.43 54.9299C113.779 54.9299 113.224 54.8633 112.774 54.7192C112.325 54.5861 111.959 54.3976 111.675 54.1536C111.391 53.9207 111.178 53.6434 111.06 53.344C110.942 53.0446 110.871 52.7341 110.871 52.4125C110.871 52.0909 110.906 51.8026 110.965 51.5364C111.036 51.2702 111.155 50.9486 111.332 50.5716H113.886C113.673 50.9043 113.531 51.2148 113.472 51.4809C113.401 51.7471 113.377 52.0243 113.377 52.3016C113.377 52.7008 113.484 53.0113 113.708 53.222C113.933 53.4327 114.241 53.5436 114.654 53.5436C114.938 53.5436 115.175 53.4993 115.364 53.4217C115.565 53.3329 115.742 53.1888 115.908 52.9892C116.073 52.7785 116.239 52.4901 116.416 52.1242C116.593 51.7582 116.783 51.2924 116.995 50.7158L117.776 48.7085ZM153.46 36.7427H155.789V42.2654L162.044 36.7427H164.125L157.893 42.2654L164.858 48.7085H161.795L155.777 43.1636V48.7085H153.448V36.7427H153.46ZM131.054 48.9414C130.25 48.9414 129.469 48.8083 128.713 48.5422C127.956 48.276 127.282 47.8546 126.703 47.289C126.123 46.7234 125.65 45.9915 125.307 45.1154C124.953 44.2283 124.775 43.1747 124.775 41.9549C124.775 40.125 124.905 38.6279 125.166 37.4413C125.426 36.2547 125.851 35.301 126.454 34.5691C127.046 33.8372 127.826 33.2716 128.784 32.9056C129.741 32.5286 130.912 32.2402 132.307 32.0406C133.407 31.8743 134.27 31.719 134.896 31.5638C135.523 31.4196 136.043 31.2311 136.457 30.9982V33.2272C136.233 33.3936 135.854 33.5156 135.346 33.5932C134.826 33.6708 134.128 33.7706 133.253 33.8926C131.929 34.0811 130.841 34.2807 129.99 34.4914C129.138 34.7022 128.464 35.0127 127.98 35.4119C127.483 35.8111 127.14 36.3434 126.939 37.0088C126.738 37.6742 126.62 38.5725 126.608 39.6925C126.892 39.1048 127.223 38.6279 127.601 38.2398C127.991 37.8516 128.393 37.5522 128.843 37.3304C129.28 37.1086 129.741 36.9534 130.214 36.8757C130.687 36.787 131.148 36.7538 131.586 36.7538C132.236 36.7538 132.898 36.8647 133.572 37.0975C134.246 37.3304 134.849 37.6964 135.405 38.1954C135.949 38.6945 136.398 39.3266 136.753 40.0918C137.107 40.857 137.285 41.7774 137.285 42.8309C137.285 43.8401 137.107 44.7384 136.765 45.5036C136.422 46.2688 135.961 46.912 135.381 47.4221C134.802 47.9322 134.14 48.3204 133.395 48.5754C132.65 48.8305 131.881 48.9525 131.077 48.9525L131.054 48.9414ZM131.148 38.0513C130.498 38.0513 129.931 38.1732 129.446 38.4061C128.961 38.639 128.571 38.9717 128.252 39.3931C127.944 39.8145 127.708 40.3136 127.566 40.9013C127.424 41.4891 127.341 42.1212 127.341 42.8088C127.341 43.5185 127.424 44.1617 127.578 44.7384C127.731 45.3261 127.968 45.8252 128.263 46.2577C128.571 46.6902 128.949 47.0229 129.422 47.2558C129.883 47.4886 130.427 47.6106 131.054 47.6106C132.283 47.6106 133.217 47.167 133.856 46.2909C134.494 45.4038 134.814 44.2504 134.814 42.8088C134.814 42.1323 134.731 41.5002 134.577 40.9235C134.424 40.3358 134.187 39.8367 133.88 39.4153C133.572 38.9939 133.182 38.6612 132.721 38.4172C132.26 38.1732 131.74 38.0513 131.148 38.0513Z" fill="white"/>
</g>
<defs>
<clipPath id="clip0_456_1127">
<rect width="177" height="60" fill="white"/>
</clipPath>
</defs>
</svg>
