<svg width="177" height="60" viewBox="0 0 177 60" fill="none" xmlns="http://www.w3.org/2000/svg">
<path fill-rule="evenodd" clip-rule="evenodd" d="M27.8565 12.9803C28.3685 12.685 29.2829 12.2053 29.6974 11.6517C31.2334 9.59725 26.991 0.887466 30.3191 0.0263297C32.3184 -0.490352 36.2439 6.23881 38.0481 6.59557C40.2059 7.01384 43.2415 0.715239 45.7406 1.98234C47.5692 2.90499 46.4355 7.4198 46.3623 9.05596C46.277 10.8151 47.6424 10.8028 48.7396 10.8397C49.6417 10.8766 51.4703 10.8766 52.1774 11.0243C53.3843 11.2703 54.6766 12.439 53.7866 13.6569C52.5797 15.3053 47.4839 15.6252 47.0816 17.9872L46.4477 21.6285C45.9113 24.6917 43.912 23.523 42.1077 22.4282C39.9865 21.1365 38.5236 19.6725 36.4511 19.0697C33.9154 18.3316 30.7945 18.3808 28.3564 17.5197C24.4918 16.1542 24.9063 14.7149 27.8687 12.9803H27.8565ZM49.5686 24.7286C49.276 23.7937 49.8246 22.8095 50.7998 22.5389C51.7629 22.2682 52.7748 22.8095 53.0674 23.7445C54.6156 28.776 55.4812 34.1027 54.1158 39.2818C51.8848 47.7579 46.1429 54.4501 38.0359 57.7102C33.9032 59.3709 29.2951 60.0844 24.5284 59.5801C20.4323 59.1495 16.6287 57.8701 13.2884 55.9387C9.82615 53.9335 6.86376 51.2393 4.60844 48.0531C4.03547 47.2412 4.24271 46.1463 5.0595 45.5927C5.88849 45.0392 7.02224 45.2483 7.59522 46.0602C9.55795 48.8158 12.1302 51.1655 15.1414 52.9001C18.0306 54.5732 21.3222 55.6803 24.8941 56.0617C29.0512 56.5046 33.0499 55.8895 36.6218 54.4501C43.6316 51.633 48.642 45.7281 50.5682 38.3838C50.6292 38.1624 50.6779 37.9286 50.7389 37.7072C49.5929 38.1009 48.3007 38.1255 46.9597 37.8548C45.5212 37.5596 43.9973 36.9322 42.5466 36.071C39.6452 34.3488 36.8778 31.5808 35.3661 28.6284C31.3919 33.5737 23.6629 38.0639 16.5921 39.7985C13.776 40.4874 11.0452 40.7581 8.64364 40.4874C6.02259 40.1799 3.77946 39.2326 2.20683 37.4612C-0.206974 34.7547 -0.877475 30.2768 1.41442 23.5231C2.96267 18.9713 5.8763 15.1208 9.61891 12.2176C13.4591 9.24049 18.1891 7.25987 23.2118 6.58327C24.2114 6.44795 25.138 7.12455 25.2842 8.09641C25.4305 9.06826 24.7357 9.954 23.736 10.0893C19.3595 10.6798 15.2511 12.4021 11.8986 14.9855C8.68021 17.4705 6.19326 20.7674 4.87664 24.6425C3.048 30.0308 3.36497 33.3646 4.96198 35.1484C5.88849 36.1818 7.31483 36.7599 9.04594 36.9568C10.9965 37.1782 13.2884 36.9445 15.6778 36.354C23.7848 34.3611 32.7817 28.6038 34.2568 23.2647C34.4762 22.4528 35.2808 21.8992 36.1829 21.973C37.1826 22.0714 37.9262 22.9326 37.8409 23.9044C37.5605 27.066 40.8886 30.9165 44.4484 33.0325C45.5699 33.6968 46.6793 34.1765 47.679 34.3734C48.4958 34.5333 49.2028 34.521 49.7149 34.2626C51.9458 33.1309 50.1781 26.5985 49.5929 24.704L49.5686 24.7286ZM24.7357 51.4977C23.8945 51.387 23.2971 50.6242 23.4068 49.8123C23.5166 49.0004 24.2968 48.4222 25.138 48.5452C27.1251 48.8158 28.9781 48.742 30.5995 48.2746C32.0746 47.844 33.379 47.069 34.4518 45.9126C35.0126 45.2975 35.9879 45.2483 36.6218 45.8019C37.2557 46.3555 37.3167 47.2904 36.7559 47.9055C35.293 49.4925 33.5131 50.5504 31.5138 51.1409C29.4535 51.7437 27.1616 51.8421 24.7357 51.51V51.4977ZM41.998 16.6955C44.2533 15.3423 43.4731 12.5005 40.974 11.2457C39.2063 10.36 37.0363 9.9786 35.4149 11.0489C31.0384 13.9398 37.658 19.3035 41.998 16.6955Z" fill="white"/>
<path fill-rule="evenodd" clip-rule="evenodd" d="M63.6973 7.18604C61.6249 7.18604 60.0645 8.76068 60.0645 10.852C60.0645 12.9433 61.6249 14.518 63.6973 14.518C65.7698 14.518 67.3302 12.9433 67.3302 10.852C67.3302 8.76068 65.7698 7.18604 63.6973 7.18604ZM63.6973 13.8537C62.0881 13.8537 60.7715 12.5866 60.7715 10.852C60.7715 9.11744 62.0881 7.85034 63.6973 7.85034C65.3065 7.85034 66.6232 9.11744 66.6232 10.852C66.6232 12.5866 65.3065 13.8537 63.6973 13.8537ZM65.2578 10.1877C65.2578 9.4742 64.7092 8.92061 64.0021 8.92061H62.3442V12.7342H63.0025V11.4671H63.3072L64.5629 12.7342H65.3675L64.1118 11.4671C64.7701 11.4302 65.27 10.9135 65.27 10.2L65.2578 10.1877ZM62.9903 9.52341H64.0021C64.3557 9.52341 64.6117 9.78175 64.6117 10.1877C64.6117 10.5937 64.3557 10.852 64.0021 10.852H62.9903V9.52341Z" fill="white"/>
<path fill-rule="evenodd" clip-rule="evenodd" d="M73.1943 32.9217C73.3649 32.9217 73.5356 32.8848 73.7063 32.8233C73.877 32.7618 74.0476 32.5895 74.2061 32.3312C74.3646 32.0729 74.5231 31.6915 74.6694 31.1871C74.8157 30.6827 74.9498 29.9938 75.0595 29.1204C75.1692 28.247 75.2545 27.1644 75.3033 25.8727C75.3643 24.581 75.3886 23.0186 75.3886 21.1733H84.2636V34.2503H81.8986V22.6865H77.266C77.2538 25.1469 77.1441 27.1521 76.9491 28.7021C76.754 30.2399 76.4858 31.4455 76.1445 32.2943C75.7909 33.1431 75.3521 33.7336 74.8279 34.0412C74.2915 34.3487 73.6697 34.5087 72.9626 34.5087C72.0117 34.5087 71.2559 34.2995 70.6829 33.869C70.11 33.4384 69.8174 32.8356 69.8174 32.0483C69.8174 31.8022 69.8296 31.5193 69.8661 31.2363C69.9027 30.9411 70.0124 30.6704 70.1953 30.4244H72.6091C72.475 30.7566 72.3897 31.0272 72.3653 31.224C72.3287 31.4209 72.3165 31.63 72.3165 31.8268C72.3165 32.159 72.3897 32.4296 72.536 32.6265C72.6822 32.8233 72.9139 32.934 73.2065 32.934L73.1943 32.9217ZM87.3723 34.2503V21.1733H89.7374V31.4824L95.845 21.1733H98.21V34.2503H95.845V23.9413L89.7374 34.2503H87.3723ZM114.412 34.2503V21.1733H116.777V31.4824L122.884 21.1733H125.25V34.2503H122.884V23.9413L116.777 34.2503H114.412ZM79.9968 40.1306V41.6438H73.6697V53.2076H71.3047V40.1306H79.9968ZM139.123 53.2076V40.1306H141.488V50.4397L147.595 40.1306H149.961V53.2076H147.595V42.8986L141.488 53.2076H139.123ZM166.162 53.2076V40.1306H168.527V50.4397L174.635 40.1306H177V53.2076H174.635V42.8986L168.527 53.2076H166.162Z" fill="white"/>
<path fill-rule="evenodd" clip-rule="evenodd" d="M101.319 21.1855H103.684V27.2258L110.036 21.1855H112.157L105.83 27.2258L112.9 34.2625H109.792L103.684 28.1977V34.2625H101.319V21.1855ZM87.7627 53.4659C86.8484 53.4659 86.0072 53.2936 85.2392 52.9615C84.4712 52.6293 83.8007 52.1618 83.2399 51.5591C82.6791 50.9563 82.2524 50.2427 81.9476 49.4062C81.6429 48.582 81.4844 47.6716 81.4844 46.6752C81.4844 45.691 81.6429 44.7807 81.9476 43.9442C82.2524 43.1199 82.6913 42.3941 83.2399 41.7913C83.8007 41.1885 84.459 40.721 85.2392 40.3889C86.0072 40.0567 86.8606 39.8845 87.7627 39.8845C88.6892 39.8845 89.5426 40.0567 90.3228 40.3889C91.0908 40.721 91.7613 41.1885 92.3099 41.7913C92.8585 42.3941 93.2852 43.1076 93.59 43.9442C93.8947 44.7684 94.0532 45.6787 94.0532 46.6752C94.0532 47.6593 93.8947 48.5697 93.59 49.4062C93.2852 50.2304 92.8585 50.9563 92.3099 51.5591C91.7613 52.1618 91.103 52.6293 90.3228 52.9615C89.5548 53.2936 88.7014 53.4659 87.7627 53.4659ZM87.7627 52.0265C88.3722 52.0265 88.9208 51.8912 89.3963 51.6329C89.8717 51.3745 90.2618 51.0055 90.5788 50.538C90.8958 50.0705 91.1396 49.5046 91.2981 48.8526C91.4687 48.2006 91.5419 47.4748 91.5419 46.6629C91.5419 45.8756 91.4566 45.1497 91.2981 44.4977C91.1274 43.8457 90.8958 43.2798 90.5788 42.8001C90.2618 42.3203 89.8717 41.9512 89.3963 41.6929C88.9208 41.4346 88.3844 41.2992 87.7627 41.2992C87.1532 41.2992 86.6046 41.4346 86.1291 41.6929C85.6537 41.9512 85.2636 42.3203 84.9466 42.8001C84.6296 43.2798 84.3858 43.8457 84.2273 44.4977C84.0567 45.1497 83.9835 45.8756 83.9835 46.6629C83.9835 47.4625 84.0689 48.2006 84.2273 48.8526C84.398 49.5046 84.6296 50.0705 84.9466 50.538C85.2636 51.0055 85.6537 51.3745 86.1291 51.6329C86.6046 51.8912 87.141 52.0265 87.7627 52.0265ZM98.1737 51.8789C98.3444 51.8789 98.5151 51.842 98.6858 51.7805C98.8564 51.719 99.0271 51.5468 99.1856 51.2884C99.3441 51.0301 99.5026 50.6487 99.6489 50.1443C99.7951 49.6399 99.9292 48.951 100.039 48.0776C100.149 47.2042 100.234 46.1216 100.283 44.8299C100.344 43.5382 100.368 41.9758 100.368 40.1305H109.243V53.2075H106.878V41.6437H102.246C102.233 44.1041 102.124 46.1093 101.929 47.6593C101.734 49.1971 101.465 50.4027 101.124 51.2515C100.77 52.1003 100.332 52.6908 99.8073 52.9984C99.2709 53.3059 98.6492 53.4659 97.9421 53.4659C96.9912 53.4659 96.2354 53.2567 95.6624 52.8262C95.0895 52.3956 94.7969 51.7928 94.7969 51.0055C94.7969 50.7594 94.8091 50.4765 94.8456 50.1935C94.8822 49.8983 94.9919 49.6276 95.1748 49.3816H97.5886C97.4545 49.7138 97.3691 49.9844 97.3448 50.1812C97.3082 50.3781 97.296 50.5872 97.296 50.784C97.296 51.1162 97.3691 51.3868 97.5154 51.5837C97.6617 51.7805 97.8934 51.8912 98.1859 51.8912L98.1737 51.8789ZM116.838 53.2075L110.986 40.1305H113.351L117.886 50.292L121.58 40.1305H123.324L117.667 55.7171C117.435 56.3691 117.204 56.9596 116.972 57.4763C116.741 57.993 116.46 58.4481 116.155 58.8172C115.838 59.1986 115.473 59.4815 115.046 59.6906C114.619 59.8875 114.095 59.9982 113.461 59.9982C112.791 59.9982 112.23 59.9244 111.779 59.7768C111.316 59.6291 110.95 59.42 110.657 59.1617C110.365 58.9033 110.157 58.6081 110.036 58.2759C109.914 57.9438 109.853 57.6116 109.853 57.2549C109.853 56.8981 109.889 56.5782 109.95 56.2953C110.011 56.0124 110.145 55.6556 110.328 55.2373H112.925C112.705 55.6064 112.571 55.9385 112.498 56.2338C112.437 56.529 112.401 56.8243 112.401 57.1318C112.401 57.5624 112.51 57.9069 112.742 58.1406C112.961 58.3743 113.29 58.4974 113.705 58.4974C113.985 58.4974 114.229 58.4481 114.424 58.362C114.619 58.2636 114.802 58.116 114.973 57.8823C115.144 57.6608 115.314 57.341 115.485 56.935C115.656 56.529 115.851 56.0247 116.07 55.3973L116.862 53.2075H116.838ZM153.069 40.1305H155.435V46.1708L161.786 40.1305H163.907L157.58 46.1708L164.651 53.2075H161.542L155.435 47.1427V53.2075H153.069V40.1305ZM130.321 53.4536C129.504 53.4536 128.712 53.3059 127.944 53.0107C127.176 52.7154 126.493 52.2603 125.896 51.6452C125.311 51.0301 124.835 50.2304 124.482 49.2709C124.128 48.3113 123.945 47.155 123.945 45.814C123.945 43.8211 124.079 42.1727 124.348 40.881C124.616 39.5893 125.055 38.5436 125.652 37.744C126.262 36.9443 127.042 36.3292 128.017 35.9233C128.992 35.5173 130.187 35.1975 131.589 34.976C132.698 34.7915 133.576 34.6193 134.222 34.4593C134.856 34.2994 135.393 34.0903 135.807 33.8443V36.28C135.576 36.4646 135.198 36.5999 134.673 36.686C134.149 36.7721 133.442 36.8828 132.54 37.0182C131.199 37.215 130.09 37.4364 129.224 37.6702C128.358 37.9039 127.676 38.236 127.176 38.6789C126.676 39.1095 126.323 39.7 126.115 40.4258C125.908 41.1516 125.798 42.1358 125.774 43.3537C126.054 42.714 126.396 42.185 126.786 41.7667C127.176 41.3484 127.59 41.0163 128.042 40.7702C128.493 40.5242 128.956 40.3643 129.431 40.2659C129.919 40.1675 130.382 40.1305 130.821 40.1305C131.492 40.1305 132.162 40.2536 132.845 40.5119C133.527 40.7579 134.149 41.1639 134.698 41.7052C135.259 42.2465 135.71 42.9477 136.063 43.7842C136.417 44.6208 136.6 45.6172 136.6 46.7736C136.6 47.8808 136.429 48.8526 136.075 49.6892C135.722 50.5257 135.259 51.2269 134.673 51.7928C134.088 52.3587 133.406 52.7769 132.65 53.0476C131.894 53.3305 131.114 53.4659 130.297 53.4659L130.321 53.4536ZM130.419 41.5576C129.748 41.5576 129.175 41.6929 128.688 41.9512C128.2 42.2096 127.798 42.5663 127.481 43.0338C127.164 43.489 126.932 44.0426 126.786 44.6823C126.64 45.322 126.566 46.0109 126.566 46.7736C126.566 47.5486 126.64 48.2498 126.798 48.8895C126.957 49.5292 127.188 50.0828 127.493 50.5503C127.798 51.0178 128.188 51.3868 128.663 51.6452C129.139 51.9035 129.687 52.0388 130.321 52.0388C131.565 52.0388 132.516 51.5591 133.162 50.5872C133.808 49.6276 134.137 48.3482 134.137 46.7736C134.137 46.0355 134.064 45.3466 133.905 44.7069C133.747 44.0672 133.515 43.5259 133.198 43.0584C132.881 42.6032 132.491 42.2342 132.028 41.9635C131.565 41.6929 131.028 41.5576 130.431 41.5576H130.419Z" fill="white"/>
</svg>
