<svg width="200" height="68" viewBox="0 0 200 68" fill="none" xmlns="http://www.w3.org/2000/svg">
<g clip-path="url(#clip0_456_997)">
<path d="M57.9805 20.503L56.0109 18.65C44.902 8.19942 26.891 8.19942 15.7821 18.65L13.8125 20.503C2.70359 30.9535 2.70359 47.8973 13.8125 58.3479L15.7821 60.2008C26.891 70.6514 44.902 70.6514 56.0109 60.2008L57.9805 58.3479C69.0894 47.8973 69.0894 30.9535 57.9805 20.503Z" fill="#8FA6DB"/>
<path fill-rule="evenodd" clip-rule="evenodd" d="M30.9952 13.4634C31.5697 13.1492 32.5851 12.6591 33.0393 12.0809C34.7494 9.94429 30.02 0.920189 33.734 0.027834C35.9518 -0.512607 40.3206 6.47542 42.3246 6.8399C44.7294 7.27979 48.0961 0.744232 50.875 2.05134C52.9191 3.01911 51.6499 7.69455 51.5697 9.39128C51.4762 11.2137 52.9992 11.2011 54.215 11.2388C55.217 11.2765 57.2477 11.2765 58.036 11.4274C59.372 11.6787 60.8149 12.8979 59.8262 14.1547C58.4769 15.864 52.8122 16.2033 52.358 18.6542L51.6499 22.4373C51.062 25.6171 48.8309 24.4105 46.8269 23.2668C44.4622 21.922 42.8456 20.4138 40.5343 19.7853C37.7153 19.0187 34.2417 19.0689 31.5296 18.1766C27.2277 16.7564 27.6953 15.2607 30.9952 13.4634ZM27.5216 53.4183C26.5864 53.3052 25.9184 52.5134 26.052 51.6713C26.1723 50.8292 27.0407 50.2385 27.9759 50.3516C30.1936 50.6282 32.2511 50.5653 34.0547 50.0626C35.698 49.6101 37.1409 48.8183 38.3299 47.6117C38.9578 46.9708 40.04 46.9205 40.7481 47.4986C41.4562 48.0642 41.523 49.0445 40.895 49.6855C39.2651 51.332 37.2878 52.4254 35.0567 53.0413C32.7588 53.6697 30.207 53.7702 27.5216 53.4309V53.4183ZM55.1636 25.6422C54.8429 24.6744 55.4575 23.6564 56.5263 23.3673C57.5951 23.0908 58.7307 23.6438 59.0513 24.6242C60.7748 29.84 61.7367 35.3701 60.227 40.7368C57.7421 49.5347 51.356 56.4724 42.3379 59.8533C37.7421 61.5752 32.5984 62.3167 27.3079 61.7889C22.7521 61.3364 18.5169 60.0042 14.8029 58.0058C10.9552 55.932 7.65522 53.1293 5.14353 49.8238C4.50225 48.9817 4.72937 47.8505 5.65121 47.2724C6.57306 46.7068 7.84226 46.9205 8.47019 47.75C10.6612 50.6156 13.5203 53.0413 16.8603 54.8511C20.0667 56.5856 23.7407 57.7293 27.7087 58.1315C32.3312 58.5839 36.7935 57.9555 40.7614 56.4599C48.5637 53.5314 54.1348 47.4106 56.2858 39.7942C56.3526 39.5554 56.4194 39.3292 56.4729 39.0904C55.2037 39.5051 53.7608 39.5303 52.2644 39.2412C50.6612 38.9396 48.9645 38.286 47.3479 37.3811C44.1282 35.5838 41.042 32.7308 39.3586 29.6641C34.9365 34.792 26.3326 39.4423 18.4769 41.2521C15.3506 41.9685 12.3045 42.2576 9.63251 41.956C6.70666 41.6418 4.20833 40.6489 2.47152 38.8264C-0.227211 36.0111 -0.962014 31.3734 1.58976 24.3602C3.3132 19.6471 6.54634 15.6503 10.7147 12.6339C14.9899 9.5421 20.2538 7.49345 25.8383 6.78963C26.9471 6.65137 27.9759 7.3552 28.1362 8.36067C28.2965 9.36614 27.535 10.2962 26.4261 10.4345C21.563 11.0503 16.9805 12.835 13.2531 15.5121C9.67259 18.0886 6.90706 21.5072 5.43745 25.5291C3.39336 31.122 3.75409 34.5783 5.53097 36.4384C6.5597 37.5193 8.14954 38.11 10.0734 38.3111C12.2377 38.5499 14.7895 38.2986 17.4615 37.6827C26.4795 35.6215 36.4862 29.6389 38.1429 24.1089C38.3967 23.2668 39.2918 22.6886 40.2805 22.7766C41.3894 22.8772 42.2177 23.7695 42.1242 24.775C41.8169 28.0553 45.5176 32.0521 49.4722 34.2515C50.7147 34.9428 51.9572 35.433 53.066 35.6466C53.9745 35.8226 54.7628 35.7975 55.3239 35.5335C57.8089 34.3647 55.8316 27.5903 55.1903 25.6171L55.1636 25.6422ZM46.7334 17.3094C49.2317 15.9017 48.3767 12.9481 45.5844 11.6536C43.6205 10.7361 41.2023 10.3465 39.3987 11.4525C34.5357 14.4563 41.8837 20.0241 46.7334 17.3094Z" fill="#21386A"/>
<path fill-rule="evenodd" clip-rule="evenodd" d="M84.4752 34.1636C84.6623 34.1636 84.8493 34.1259 85.0497 34.0631C85.2501 33.9877 85.4238 33.8243 85.5975 33.5603C85.7712 33.2964 85.9448 32.8942 86.1052 32.3789C86.2655 31.8636 86.4124 31.1472 86.5327 30.2423C86.6529 29.3374 86.7464 28.2188 86.8132 26.874C86.88 25.5291 86.9068 23.9078 86.9068 21.9974H96.7798V35.5587H94.1479V23.5559H88.9909C88.9776 26.1073 88.8573 28.1936 88.6436 29.7898C88.4298 31.386 88.1359 32.6303 87.7484 33.5226C87.361 34.415 86.8667 35.0183 86.2788 35.3325C85.691 35.6593 84.9963 35.8101 84.1947 35.8101C83.1392 35.8101 82.2975 35.5839 81.6563 35.144C81.015 34.7041 80.6943 34.0756 80.6943 33.2587C80.6943 32.9948 80.7077 32.7183 80.7478 32.4166C80.7879 32.115 80.9081 31.8259 81.1085 31.5745H83.7939C83.6469 31.9265 83.5534 32.203 83.5133 32.4041C83.4732 32.6177 83.4599 32.8188 83.4599 33.0325C83.4599 33.3844 83.54 33.6609 83.7137 33.862C83.874 34.0757 84.1279 34.1762 84.4619 34.1762L84.4752 34.1636ZM100.253 35.5462V21.9849H102.885V32.6806L109.686 21.9849H112.318V35.5462H109.686V24.8505L102.885 35.5462H100.253ZM130.34 35.5462V21.9849H132.972V32.6806L139.772 21.9849H142.404V35.5462H139.772V24.8505L132.972 35.5462H130.34ZM92.0504 41.6418V43.2129H85.0096V55.2157H82.3777V41.6544H92.0504V41.6418ZM157.849 55.2031V41.6418H160.481V52.3375L167.281 41.6418H169.913V55.2031H167.281V44.5074L160.481 55.2031H157.849ZM187.935 55.2031V41.6418H190.567V52.3375L197.368 41.6418H200V55.2031H197.368V44.5074L190.567 55.2031H187.935Z" fill="#21386A"/>
<path fill-rule="evenodd" clip-rule="evenodd" d="M115.792 21.9722H118.423V28.2312L125.491 21.9722H127.842L120.802 28.2312L128.671 35.5335H125.21L118.41 29.2493V35.5335H115.778V21.9722H115.792ZM100.708 55.4543C99.6926 55.4543 98.7574 55.2784 97.889 54.9265C97.034 54.5746 96.2858 54.097 95.6713 53.4685C95.0567 52.8401 94.5757 52.0986 94.2284 51.2439C93.881 50.3893 93.7207 49.4341 93.7207 48.4161C93.7207 47.3854 93.8944 46.4428 94.2284 45.5882C94.5757 44.7335 95.0567 43.9794 95.6713 43.3636C96.2858 42.7351 97.034 42.245 97.889 41.9056C98.7441 41.5537 99.6926 41.3778 100.708 41.3778C101.75 41.3778 102.685 41.5537 103.554 41.9056C104.409 42.2575 105.144 42.7351 105.758 43.3636C106.373 43.992 106.84 44.7335 107.188 45.5882C107.535 46.4428 107.695 47.398 107.695 48.4161C107.695 49.4467 107.522 50.3893 107.188 51.2439C106.84 52.1112 106.373 52.8527 105.758 53.4685C105.144 54.097 104.409 54.5871 103.554 54.9265C102.699 55.2784 101.75 55.4543 100.708 55.4543ZM100.708 53.9713C101.389 53.9713 102.004 53.833 102.525 53.5691C103.046 53.3052 103.487 52.9155 103.848 52.4379C104.195 51.9478 104.462 51.3696 104.649 50.6909C104.836 50.0122 104.93 49.2581 104.93 48.4161C104.93 47.5991 104.836 46.845 104.649 46.1789C104.462 45.5002 104.195 44.9095 103.848 44.4193C103.5 43.9291 103.059 43.5395 102.525 43.2756C102.004 43.0116 101.389 42.8734 100.708 42.8734C100.027 42.8734 99.4254 43.0116 98.891 43.2756C98.37 43.5395 97.9291 43.9291 97.5684 44.4193C97.221 44.9095 96.9538 45.5002 96.7668 46.1789C96.5798 46.8576 96.4862 47.5991 96.4862 48.4161C96.4862 49.2456 96.5798 50.0122 96.7668 50.6909C96.9538 51.3696 97.221 51.9478 97.5684 52.4379C97.9158 52.9281 98.3566 53.3052 98.891 53.5691C99.4121 53.833 100.027 53.9713 100.708 53.9713ZM112.305 53.8205C112.492 53.8205 112.679 53.7828 112.879 53.7199C113.079 53.6445 113.253 53.4811 113.44 53.2172C113.614 52.9532 113.788 52.5511 113.948 52.0357C114.108 51.5204 114.255 50.804 114.375 49.8991C114.496 48.9942 114.589 47.8756 114.656 46.5308C114.723 45.186 114.749 43.5647 114.749 41.6543H124.623V55.2155H121.991V43.2127H116.834C116.82 45.7641 116.7 47.8505 116.486 49.4467C116.272 51.0428 115.979 52.2871 115.591 53.1795C115.204 54.0718 114.709 54.6751 114.122 54.9893C113.534 55.3161 112.839 55.4669 112.037 55.4669C110.982 55.4669 110.14 55.2407 109.499 54.8008C108.858 54.3609 108.537 53.7325 108.537 52.9155C108.537 52.6516 108.55 52.3751 108.59 52.0735C108.631 51.7718 108.751 51.4827 108.951 51.2314H111.637C111.49 51.5833 111.396 51.8598 111.356 52.0609C111.316 52.2745 111.303 52.4756 111.303 52.6893C111.303 53.0412 111.383 53.3177 111.556 53.5188C111.717 53.7325 111.971 53.833 112.305 53.833V53.8205ZM133.079 55.203L126.56 41.6417H129.192L134.242 52.1866L138.343 41.6417H140.28L133.988 57.8172C133.734 58.4959 133.467 59.0992 133.213 59.6396C132.959 60.1801 132.652 60.6451 132.291 61.0347C131.944 61.4243 131.53 61.726 131.062 61.9396C130.594 62.1533 130.007 62.2538 129.299 62.2538C128.564 62.2538 127.936 62.1784 127.428 62.015C126.92 61.8642 126.506 61.6506 126.186 61.3741C125.865 61.1101 125.625 60.7959 125.491 60.4566C125.357 60.1172 125.277 59.7653 125.277 59.4008C125.277 59.0363 125.317 58.7096 125.384 58.4079C125.464 58.1063 125.598 57.7418 125.798 57.3145H128.684C128.443 57.6915 128.283 58.0434 128.216 58.3451C128.136 58.6467 128.109 58.9609 128.109 59.2751C128.109 59.7276 128.23 60.0795 128.484 60.3183C128.737 60.5571 129.085 60.6828 129.552 60.6828C129.873 60.6828 130.14 60.6325 130.354 60.5445C130.581 60.444 130.781 60.2806 130.969 60.0544C131.156 59.8156 131.343 59.4888 131.543 59.074C131.743 58.6593 131.957 58.1314 132.198 57.4779L133.079 55.203ZM173.4 41.6417H176.032V47.9007L183.099 41.6417H185.451L178.41 47.9007L186.279 55.203H182.819L176.019 48.9188V55.203H173.387V41.6417H173.4ZM148.083 55.4669C147.174 55.4669 146.293 55.3161 145.437 55.0145C144.582 54.7128 143.821 54.2352 143.166 53.5942C142.512 52.9532 141.977 52.1237 141.59 51.1308C141.189 50.1254 140.989 48.9314 140.989 47.5488C140.989 45.4751 141.136 43.7783 141.429 42.4335C141.723 41.0887 142.204 40.0078 142.886 39.1783C143.554 38.3488 144.435 37.7078 145.518 37.293C146.6 36.8657 147.922 36.5389 149.499 36.3127C150.741 36.1242 151.717 35.9482 152.425 35.7723C153.133 35.6089 153.721 35.3952 154.188 35.1313V37.6575C153.934 37.846 153.507 37.9843 152.932 38.0723C152.345 38.1602 151.556 38.2734 150.568 38.4116C149.071 38.6253 147.842 38.8515 146.88 39.0903C145.918 39.3291 145.157 39.681 144.609 40.1335C144.048 40.5859 143.661 41.1892 143.433 41.9433C143.206 42.6974 143.073 43.7155 143.059 44.9849C143.38 44.3188 143.754 43.7783 144.182 43.3384C144.623 42.8985 145.077 42.5592 145.584 42.3078C146.079 42.0564 146.6 41.8805 147.134 41.7925C147.669 41.692 148.19 41.6543 148.684 41.6543C149.419 41.6543 150.167 41.7799 150.928 42.0439C151.69 42.3078 152.371 42.7226 152.999 43.2881C153.614 43.8537 154.122 44.5701 154.522 45.4373C154.923 46.3046 155.124 47.3477 155.124 48.5417C155.124 49.6855 154.923 50.7035 154.536 51.5707C154.148 52.4379 153.627 53.1669 152.973 53.745C152.318 54.3232 151.57 54.7631 150.728 55.0522C149.886 55.3412 149.018 55.4795 148.109 55.4795L148.083 55.4669ZM148.19 43.1248C147.455 43.1248 146.814 43.263 146.266 43.527C145.718 43.7909 145.277 44.1679 144.916 44.6455C144.569 45.1231 144.302 45.6887 144.142 46.3548C143.981 47.021 143.888 47.7374 143.888 48.5166C143.888 49.321 143.981 50.0499 144.155 50.7035C144.329 51.3696 144.596 51.9352 144.93 52.4254C145.277 52.9155 145.705 53.2926 146.239 53.5565C146.76 53.8205 147.375 53.9587 148.083 53.9587C149.472 53.9587 150.528 53.456 151.249 52.4631C151.971 51.4576 152.331 50.1505 152.331 48.5166C152.331 47.7499 152.238 47.0335 152.064 46.38C151.89 45.7139 151.623 45.1483 151.276 44.6707C150.928 44.1931 150.488 43.816 149.967 43.5395C149.445 43.263 148.858 43.1248 148.19 43.1248Z" fill="#21386A"/>
</g>
<defs>
<clipPath id="clip0_456_997">
<rect width="200" height="68" fill="white"/>
</clipPath>
</defs>
</svg>
