<svg width="824" height="134" viewBox="0 0 824 134" fill="none" xmlns="http://www.w3.org/2000/svg">
<path d="M767.396 98.56V32H779.555V84.48L810.916 32H823.076V98.56H810.916V46.08L779.555 98.56H767.396Z" fill="white"/>
<path d="M702.08 32H714.24V62.72L746.88 32H757.76L725.248 62.72L761.6 98.56H745.6L714.24 67.712V98.56H702.08V32Z" fill="white"/>
<path d="M632.265 98.56V32H644.425V84.48L675.785 32H687.945V98.56H675.785V46.08L644.425 98.56H632.265Z" fill="white"/>
<path d="M589.018 99.84C584.837 99.84 580.741 99.1147 576.73 97.664C572.805 96.128 569.306 93.7813 566.234 90.624C563.247 87.4667 560.815 83.456 558.938 78.592C557.146 73.6427 556.25 67.7547 556.25 60.928C556.25 50.7733 556.933 42.4107 558.298 35.84C559.663 29.2693 561.882 23.936 564.954 19.84C568.111 15.744 572.165 12.672 577.114 10.624C582.149 8.49067 588.293 6.86934 595.546 5.76C601.263 4.82133 605.743 3.968 608.986 3.2C612.314 2.34666 615.045 1.28 617.178 0V12.416C615.983 13.3547 614.021 14.0373 611.29 14.464C608.645 14.8907 605.018 15.4453 600.41 16.128C593.498 17.152 587.823 18.2613 583.386 19.456C578.949 20.6507 575.45 22.3573 572.89 24.576C570.33 26.7947 568.495 29.7813 567.386 33.536C566.362 37.2053 565.807 42.1547 565.722 48.384C567.173 45.1413 568.879 42.4533 570.842 40.32C572.89 38.1867 575.066 36.5227 577.37 35.328C579.674 34.048 582.063 33.1947 584.538 32.768C587.013 32.256 589.402 32 591.706 32C595.119 32 598.575 32.64 602.074 33.92C605.573 35.2 608.73 37.248 611.546 40.064C614.447 42.7947 616.794 46.2933 618.586 50.56C620.463 54.8267 621.402 59.904 621.402 65.792C621.402 71.424 620.506 76.3733 618.714 80.64C616.922 84.9067 614.49 88.4907 611.418 91.392C608.431 94.208 604.975 96.3413 601.05 97.792C597.21 99.1573 593.199 99.84 589.018 99.84ZM589.53 39.296C586.117 39.296 583.13 39.9787 580.57 41.344C578.095 42.624 576.047 44.4587 574.426 46.848C572.805 49.152 571.61 51.9253 570.842 55.168C570.074 58.4107 569.69 61.952 569.69 65.792C569.69 69.7173 570.074 73.3013 570.842 76.544C571.695 79.7867 572.89 82.6027 574.426 84.992C576.047 87.3813 578.053 89.2587 580.442 90.624C582.917 91.904 585.775 92.544 589.018 92.544C595.418 92.544 600.282 90.112 603.61 85.248C606.938 80.2987 608.602 73.8133 608.602 65.792C608.602 62.0373 608.175 58.5387 607.322 55.296C606.554 52.0533 605.359 49.28 603.738 46.976C602.117 44.5867 600.111 42.7093 597.722 41.344C595.333 39.9787 592.602 39.296 589.53 39.296Z" fill="white"/>
<path d="M521.675 98.56L491.595 32H503.755L527.051 83.712L545.995 32H554.955L525.899 111.36C524.704 114.688 523.51 117.675 522.315 120.32C521.12 122.965 519.712 125.227 518.091 127.104C516.47 129.067 514.55 130.56 512.331 131.584C510.198 132.608 507.51 133.12 504.267 133.12C500.854 133.12 497.952 132.736 495.563 131.968C493.259 131.2 491.382 130.133 489.931 128.768C488.395 127.488 487.328 125.995 486.731 124.288C486.048 122.667 485.707 120.96 485.707 119.168C485.707 117.376 485.878 115.755 486.219 114.304C486.56 112.853 487.2 111.061 488.139 108.928H501.451C500.342 110.805 499.616 112.469 499.275 113.92C498.934 115.456 498.763 116.992 498.763 118.528C498.763 120.747 499.318 122.453 500.427 123.648C501.622 124.843 503.286 125.44 505.419 125.44C506.87 125.44 508.107 125.184 509.131 124.672C510.155 124.245 511.094 123.435 511.947 122.24C512.8 121.131 513.654 119.552 514.507 117.504C515.446 115.456 516.47 112.853 517.579 109.696L521.675 98.56Z" fill="white"/>
<path d="M427.673 91.776C428.526 91.776 429.379 91.6053 430.233 91.264C431.171 90.9227 432.025 90.112 432.793 88.832C433.646 87.4667 434.457 85.504 435.225 82.944C435.993 80.384 436.633 76.8853 437.145 72.448C437.742 68.0107 438.169 62.5067 438.425 55.936C438.766 49.3653 438.937 41.3867 438.937 32H484.505V98.56H472.345V39.68H448.537C448.451 52.224 447.897 62.4213 446.873 70.272C445.934 78.1227 444.569 84.224 442.777 88.576C440.985 92.928 438.723 95.9147 435.993 97.536C433.262 99.072 430.062 99.84 426.393 99.84C421.529 99.84 417.603 98.7733 414.617 96.64C411.715 94.4213 410.265 91.3067 410.265 87.296C410.265 86.016 410.35 84.6507 410.521 83.2C410.691 81.664 411.246 80.256 412.185 78.976H424.601C423.918 80.6827 423.491 82.048 423.321 83.072C423.15 84.096 423.065 85.12 423.065 86.144C423.065 87.8507 423.449 89.216 424.217 90.24C424.985 91.264 426.137 91.776 427.673 91.776Z" fill="white"/>
<path d="M376.061 99.84C371.367 99.84 367.015 98.9866 363.005 97.28C359.079 95.5733 355.666 93.184 352.765 90.112C349.949 87.04 347.73 83.4133 346.109 79.232C344.573 74.9653 343.805 70.3146 343.805 65.28C343.805 60.2453 344.573 55.6373 346.109 51.456C347.73 47.1893 349.949 43.52 352.765 40.448C355.666 37.376 359.079 34.9866 363.005 33.28C367.015 31.5733 371.367 30.72 376.061 30.72C380.839 30.72 385.191 31.5733 389.117 33.28C393.127 34.9866 396.541 37.376 399.357 40.448C402.173 43.52 404.349 47.1893 405.885 51.456C407.506 55.6373 408.317 60.2453 408.317 65.28C408.317 70.3146 407.506 74.9653 405.885 79.232C404.349 83.4133 402.173 87.04 399.357 90.112C396.541 93.184 393.127 95.5733 389.117 97.28C385.191 98.9866 380.839 99.84 376.061 99.84ZM376.061 92.544C379.218 92.544 381.991 91.904 384.381 90.624C386.855 89.2586 388.903 87.3813 390.525 84.992C392.146 82.6026 393.383 79.744 394.237 76.416C395.09 73.088 395.517 69.376 395.517 65.28C395.517 61.2693 395.09 57.6 394.237 54.272C393.383 50.944 392.146 48.0853 390.525 45.696C388.903 43.2213 386.855 41.344 384.381 40.064C381.991 38.6986 379.218 38.016 376.061 38.016C372.903 38.016 370.087 38.6986 367.613 40.064C365.223 41.344 363.218 43.2213 361.597 45.696C359.975 48.0853 358.738 50.944 357.885 54.272C357.031 57.6 356.605 61.2693 356.605 65.28C356.605 69.376 357.031 73.088 357.885 76.416C358.738 79.744 359.975 82.6026 361.597 84.992C363.218 87.3813 365.223 89.2586 367.613 90.624C370.087 91.904 372.903 92.544 376.061 92.544Z" fill="white"/>
<path d="M337.987 32V39.68H305.475V98.56H293.315V32H337.987Z" fill="white"/>
<path d="M223.5 98.56V32H235.66V84.48L267.02 32H279.18V98.56H267.02V46.08L235.66 98.56H223.5Z" fill="white"/>
<path d="M158.185 32H170.345V62.72L202.985 32H213.865L181.353 62.72L217.705 98.56H201.705L170.345 67.712V98.56H158.185V32Z" fill="white"/>
<path d="M88.3701 98.56V32H100.53V84.48L131.89 32H144.05V98.56H131.89V46.08L100.53 98.56H88.3701Z" fill="white"/>
<path d="M17.408 91.776C18.2613 91.776 19.1147 91.6053 19.968 91.264C20.9067 90.9227 21.76 90.112 22.528 88.832C23.3813 87.4667 24.192 85.504 24.96 82.944C25.728 80.384 26.368 76.8853 26.88 72.448C27.4773 68.0107 27.904 62.5067 28.16 55.936C28.5013 49.3653 28.672 41.3867 28.672 32H74.24V98.56H62.08V39.68H38.272C38.1867 52.224 37.632 62.4213 36.608 70.272C35.6693 78.1227 34.304 84.224 32.512 88.576C30.72 92.928 28.4587 95.9147 25.728 97.536C22.9973 99.072 19.7973 99.84 16.128 99.84C11.264 99.84 7.33867 98.7733 4.352 96.64C1.45067 94.4213 0 91.3067 0 87.296C0 86.016 0.0853333 84.6507 0.256 83.2C0.426667 81.664 0.981333 80.256 1.92 78.976H14.336C13.6533 80.6827 13.2267 82.048 13.056 83.072C12.8853 84.096 12.8 85.12 12.8 86.144C12.8 87.8507 13.184 89.216 13.952 90.24C14.72 91.264 15.872 91.776 17.408 91.776Z" fill="white"/>
</svg>
