<svg width="200" height="68" viewBox="0 0 200 68" fill="none" xmlns="http://www.w3.org/2000/svg">
<path fill-rule="evenodd" clip-rule="evenodd" d="M31.8722 14.71C32.4653 14.3712 33.5103 13.8347 33.9763 13.1995C35.7415 10.8703 30.8838 1.00292 34.6824 0.0288906C36.97 -0.563999 41.4606 7.07298 43.5223 7.46824C45.9935 7.9482 49.4533 0.805294 52.3199 2.24517C54.4098 3.28978 53.1248 8.41404 53.0401 10.2633C52.9412 12.2537 54.5087 12.2396 55.7514 12.2819C56.7822 12.3243 58.8722 12.3243 59.6771 12.4937C61.061 12.776 62.5296 14.0888 61.5129 15.4723C60.129 17.3356 54.311 17.7026 53.845 20.3848L53.1248 24.5068C52.5176 27.9794 50.2299 26.6666 48.1682 25.4102C45.7394 23.9421 44.073 22.2905 41.7007 21.5988C38.8058 20.7518 35.219 20.8224 32.4371 19.8483C28.0171 18.2955 28.4831 16.658 31.8864 14.6959L31.8722 14.71ZM28.2996 58.3579C27.3393 58.2309 26.6615 57.3698 26.7886 56.4522C26.9157 55.5205 27.8053 54.8853 28.7656 55.0123C31.0391 55.3229 33.1573 55.2382 35.0213 54.7018C36.7017 54.2077 38.1986 53.3325 39.4271 52.0197C40.0767 51.328 41.1782 51.2715 41.9125 51.8926C42.6468 52.5137 42.7033 53.5866 42.0678 54.2783C40.4015 56.0711 38.3539 57.271 36.0663 57.9344C33.708 58.612 31.0814 58.725 28.3137 58.3579H28.2996ZM56.7116 28.0218C56.3868 26.963 57.0082 25.8478 58.1096 25.5373C59.2111 25.2267 60.369 25.8478 60.7079 26.9066C62.4731 32.6096 63.4757 38.6373 61.9083 44.5097C59.3523 54.123 52.7859 61.7035 43.5223 65.3879C38.7917 67.2795 33.5103 68.07 28.0595 67.5054C23.3712 67.0113 19.0219 65.5573 15.195 63.3693C11.241 61.0965 7.85191 58.0333 5.25359 54.4336C4.58989 53.516 4.82995 52.2738 5.77608 51.6526C6.7222 51.0315 8.02136 51.2574 8.68506 52.1749C10.9304 55.2947 13.8676 57.9627 17.3132 59.9249C20.6176 61.8165 24.388 63.0728 28.469 63.4963C33.2279 63.9904 37.8032 63.2987 41.8984 61.6753C49.9193 58.485 55.6525 51.7938 57.8554 43.4651C57.926 43.211 57.9825 42.9569 58.039 42.7028C56.7257 43.1546 55.2571 43.1828 53.7179 42.8722C52.0657 42.5475 50.3288 41.8276 48.6625 40.8395C45.344 38.8773 42.1808 35.7575 40.4439 32.3978C35.8968 38.0021 27.0569 43.084 18.9654 45.0462C15.7457 45.8226 12.6108 46.1331 9.87125 45.8226C6.86342 45.4696 4.30746 44.3968 2.49993 42.4064C-0.267842 39.329 -1.03039 34.2612 1.59617 26.6101C3.36133 21.4576 6.69396 17.0956 10.9727 13.8065C15.3786 10.4327 20.7729 8.18818 26.5203 7.42589C27.6641 7.27061 28.7232 8.04702 28.8926 9.13398C29.0621 10.2351 28.2713 11.2373 27.1275 11.3926C22.1285 12.0702 17.412 14.0041 13.5852 16.9404C9.91362 19.7636 7.06111 23.4904 5.55014 27.8806C3.46018 33.993 3.81322 37.7621 5.64898 39.7948C6.70808 40.9665 8.34615 41.6159 10.3231 41.8417C12.5543 42.0958 15.1667 41.8276 17.9204 41.1641C27.184 38.9055 37.4784 32.3696 39.1871 26.3278C39.4413 25.4102 40.3591 24.775 41.39 24.8738C42.5338 24.9867 43.3811 25.9608 43.2823 27.0618C42.9575 30.6333 46.7702 35.0094 50.8372 37.4092C52.1222 38.1715 53.3931 38.7079 54.5228 38.9337C55.4548 39.1173 56.2739 39.1031 56.8387 38.8208C59.3947 37.5362 57.3612 30.1392 56.6975 27.9935L56.7116 28.0218ZM48.0411 18.9167C50.6112 17.378 49.7357 14.1594 46.8691 12.7337C44.8497 11.7314 42.3644 11.3079 40.5145 12.5078C35.5155 15.7828 43.0704 21.867 48.0553 18.9025L48.0411 18.9167Z" fill="white"/>
<path fill-rule="evenodd" clip-rule="evenodd" d="M81.2407 37.3103C81.4243 37.3103 81.622 37.268 81.8197 37.1974C82.0174 37.1268 82.2151 36.9433 82.3845 36.6468C82.5681 36.3504 82.7376 35.9269 82.907 35.3481C83.0765 34.7835 83.2318 33.993 83.3448 33.0048C83.4719 32.0167 83.5566 30.7885 83.6272 29.3345C83.6978 27.8664 83.7261 26.1019 83.7261 23.9985H93.8793V38.8208H91.168V25.7066H85.8584C85.8442 28.5017 85.7172 30.7744 85.5053 32.5249C85.2935 34.2753 84.9828 35.6305 84.5733 36.6045C84.1779 37.5785 83.6696 38.2279 83.0624 38.5808C82.4551 38.9337 81.735 39.1031 80.93 39.1031C79.8427 39.1031 78.9813 38.8631 78.3176 38.3832C77.668 37.9032 77.3291 37.2115 77.3291 36.3222C77.3291 36.0398 77.3432 35.7293 77.3856 35.3905C77.428 35.0517 77.5409 34.7552 77.7527 34.4588H80.5205C80.3652 34.8399 80.2805 35.1364 80.2381 35.3764C80.1957 35.6022 80.1816 35.8281 80.1816 36.054C80.1816 36.4351 80.2663 36.7315 80.4358 36.9715C80.6052 37.1974 80.8594 37.3103 81.2125 37.3103H81.2407ZM97.4661 38.8208V23.9985H100.177V35.6869L107.167 23.9985H109.879V38.8208H107.167V27.1324L100.177 38.8208H97.4661ZM128.392 38.8208V23.9985H131.103V35.6869L138.093 23.9985H140.804V38.8208H138.093V27.1324L131.103 38.8208H128.392ZM89.0215 45.4837V47.1918H81.7773V60.306H79.066V45.4837H89.0215ZM156.663 60.306V45.4837H159.374V57.1721L166.364 45.4837H169.075V60.306H166.364V48.6176L159.374 60.306H156.663ZM187.588 60.306V45.4837H190.3V57.1721L197.29 45.4837H200.001V60.306H197.29V48.6176L190.3 60.306H187.588Z" fill="white"/>
<path fill-rule="evenodd" clip-rule="evenodd" d="M113.423 24.0127H116.135V30.8592L123.407 24.0127H125.836L118.592 30.8592L126.683 38.8349H123.125L116.135 31.9602V38.8349H113.423V24.0127ZM97.9182 60.6025C96.8732 60.6025 95.913 60.4189 95.0233 60.0378C94.1337 59.6567 93.3853 59.1202 92.7357 58.4426C92.1002 57.7651 91.606 56.9463 91.253 56.0005C90.8999 55.0547 90.7305 54.0242 90.7305 52.909C90.7305 51.7938 90.8999 50.7633 91.253 49.8175C91.606 48.8717 92.1002 48.0671 92.7357 47.3754C93.3711 46.6978 94.1337 46.1614 95.0233 45.7802C95.913 45.3991 96.8732 45.2156 97.9182 45.2156C98.9773 45.2156 99.9517 45.3991 100.841 45.7802C101.731 46.1614 102.479 46.6978 103.101 47.3754C103.722 48.053 104.216 48.8717 104.569 49.8175C104.922 50.7633 105.092 51.7938 105.092 52.909C105.092 54.0242 104.922 55.0547 104.569 56.0005C104.216 56.9463 103.722 57.7509 103.101 58.4426C102.479 59.1202 101.717 59.6567 100.841 60.0378C99.9517 60.4189 98.9773 60.6025 97.9182 60.6025ZM97.9182 58.9791C98.6243 58.9791 99.2456 58.8379 99.7822 58.5415C100.319 58.245 100.771 57.8356 101.138 57.2992C101.505 56.7628 101.773 56.1276 101.971 55.3935C102.155 54.6594 102.253 53.8266 102.253 52.909C102.253 52.0197 102.155 51.2009 101.971 50.4528C101.787 49.7187 101.505 49.0693 101.138 48.5329C100.771 47.9965 100.319 47.573 99.7822 47.2766C99.2456 46.9801 98.6243 46.8389 97.9182 46.8389C97.2121 46.8389 96.5908 46.9801 96.0542 47.2766C95.5176 47.573 95.0657 47.9824 94.6986 48.5329C94.3314 49.0693 94.0631 49.7187 93.8654 50.4528C93.6818 51.1868 93.583 52.0056 93.583 52.909C93.583 53.8266 93.6818 54.6453 93.8654 55.3935C94.049 56.1276 94.3314 56.7769 94.6986 57.2992C95.0657 57.8356 95.5176 58.245 96.0542 58.5415C96.5908 58.8379 97.2121 58.9791 97.9182 58.9791ZM109.837 58.8097C110.02 58.8097 110.218 58.7673 110.416 58.6967C110.613 58.6262 110.811 58.4426 110.98 58.1462C111.164 57.8498 111.333 57.4263 111.503 56.8475C111.672 56.2828 111.828 55.4923 111.941 54.5042C112.068 53.516 112.152 52.2879 112.223 50.8339C112.294 49.3658 112.322 47.6012 112.322 45.4979H122.475V60.3201H119.764V47.206H114.454C114.44 50.001 114.313 52.2738 114.101 54.0242C113.889 55.7746 113.579 57.1298 113.169 58.1038C112.774 59.0779 112.265 59.7272 111.658 60.0802C111.051 60.4331 110.331 60.6025 109.526 60.6025C108.439 60.6025 107.577 60.3625 106.913 59.8825C106.264 59.4026 105.925 58.7109 105.925 57.8215C105.925 57.5392 105.939 57.2286 105.981 56.8898C106.024 56.551 106.137 56.2546 106.349 55.9582H109.116C108.961 56.3393 108.876 56.6357 108.834 56.8757C108.792 57.1016 108.777 57.3274 108.777 57.5533C108.777 57.9345 108.862 58.2309 109.032 58.4709C109.201 58.6967 109.455 58.8097 109.808 58.8097H109.837ZM131.188 60.3201L124.495 45.4979H127.206L132.388 57.0169L136.611 45.4979H138.602L132.134 63.1716C131.866 63.9057 131.598 64.5833 131.329 65.1621C131.061 65.7549 130.75 66.2631 130.383 66.6866C130.016 67.1101 129.592 67.4489 129.112 67.6748C128.632 67.9006 128.025 68.0136 127.305 68.0136C126.542 68.0136 125.907 67.9289 125.384 67.7595C124.862 67.5901 124.438 67.3501 124.099 67.0678C123.76 66.7713 123.534 66.4467 123.393 66.0655C123.252 65.6985 123.181 65.3173 123.181 64.908C123.181 64.5127 123.224 64.1457 123.294 63.821C123.365 63.4963 123.506 63.1011 123.718 62.6211H126.683C126.443 63.0446 126.274 63.4116 126.203 63.7504C126.133 64.0892 126.09 64.4139 126.09 64.7668C126.09 65.2609 126.217 65.642 126.471 65.9102C126.726 66.1784 127.093 66.3055 127.573 66.3055C127.898 66.3055 128.166 66.249 128.406 66.1502C128.632 66.0514 128.844 65.8679 129.027 65.6138C129.211 65.3597 129.409 65.0068 129.606 64.5409C129.804 64.0892 130.03 63.5104 130.27 62.8046L131.188 60.3201ZM172.634 45.4979H175.345V52.3444L182.618 45.4979H185.047L177.802 52.3444L185.894 60.3201H182.335L175.345 53.4454V60.3201H172.634V45.4979ZM146.608 60.6025C145.676 60.6025 144.773 60.4331 143.883 60.1084C142.993 59.7696 142.217 59.2614 141.539 58.5556C140.861 57.8498 140.324 56.9604 139.915 55.8593C139.505 54.7724 139.308 53.4595 139.308 51.935C139.308 49.6763 139.463 47.813 139.76 46.3449C140.07 44.8768 140.565 43.691 141.256 42.7875C141.948 41.87 142.852 41.1924 143.968 40.7265C145.083 40.2607 146.439 39.9078 148.063 39.6537C149.334 39.4419 150.336 39.2443 151.071 39.0749C151.805 38.8914 152.412 38.6655 152.878 38.3832V41.15C152.61 41.3618 152.186 41.5171 151.579 41.6018C150.986 41.7006 150.167 41.8135 149.136 41.9688C147.597 42.1946 146.326 42.4487 145.338 42.7028C144.349 42.971 143.572 43.3522 142.993 43.8463C142.429 44.3403 142.019 45.0038 141.779 45.8226C141.539 46.6554 141.412 47.7565 141.398 49.1399C141.722 48.42 142.104 47.813 142.556 47.3471C143.008 46.8672 143.488 46.5002 143.996 46.2178C144.504 45.9355 145.041 45.752 145.592 45.6532C146.142 45.5544 146.679 45.4979 147.187 45.4979C147.95 45.4979 148.713 45.639 149.503 45.9214C150.28 46.2037 150.986 46.6554 151.622 47.2766C152.257 47.8977 152.779 48.6741 153.189 49.634C153.599 50.5798 153.796 51.7091 153.796 53.0219C153.796 54.2783 153.599 55.3794 153.203 56.3252C152.808 57.271 152.271 58.0615 151.593 58.7109C150.915 59.3461 150.153 59.826 149.277 60.1366C148.416 60.4472 147.512 60.6025 146.58 60.6025H146.608ZM146.721 47.1213C145.959 47.1213 145.295 47.2624 144.744 47.5589C144.18 47.8553 143.728 48.2647 143.361 48.787C142.993 49.3093 142.739 49.9304 142.556 50.6504C142.386 51.3703 142.301 52.1608 142.301 53.0219C142.301 53.8972 142.386 54.6877 142.57 55.4217C142.753 56.1417 143.022 56.7769 143.375 57.2992C143.728 57.8356 144.18 58.245 144.716 58.5415C145.253 58.8379 145.888 58.9791 146.608 58.9791C148.035 58.9791 149.122 58.4285 149.856 57.3416C150.591 56.2546 150.972 54.8147 150.972 53.0219C150.972 52.1891 150.887 51.4127 150.704 50.6786C150.52 49.9587 150.252 49.3376 149.885 48.8152C149.517 48.2929 149.08 47.8836 148.543 47.573C148.006 47.2624 147.399 47.1213 146.721 47.1213Z" fill="white"/>
</svg>
