<svg width="70" height="70" viewBox="0 0 70 70" fill="none" xmlns="http://www.w3.org/2000/svg">
<path d="M59.2823 21.503L57.3126 19.65C46.2038 9.19942 28.1927 9.19942 17.0839 19.65L15.1142 21.503C4.00535 31.9535 4.00535 48.8973 15.1142 59.3479L17.0839 61.2008C28.1927 71.6514 46.2038 71.6514 57.3126 61.2008L59.2823 59.3479C70.3911 48.8973 70.3911 31.9535 59.2823 21.503Z" fill="#8FA6DB"/>
<path fill-rule="evenodd" clip-rule="evenodd" d="M32.297 14.4634C32.8715 14.1492 33.8868 13.6591 34.3411 13.0809C36.0512 10.9443 31.3217 1.92019 35.0358 1.02783C37.2536 0.487393 41.6223 7.47542 43.6263 7.8399C46.0311 8.27979 49.3979 1.74423 52.1768 3.05134C54.2208 4.01911 52.9516 8.69455 52.8715 10.3913C52.778 12.2137 54.301 12.2011 55.5168 12.2388C56.5188 12.2765 58.5495 12.2765 59.3377 12.4274C60.6737 12.6787 62.1166 13.8979 61.128 15.1547C59.7786 16.864 54.114 17.2033 53.6597 19.6542L52.9516 23.4373C52.3638 26.6171 50.1327 25.4105 48.1287 24.2668C45.7639 22.922 44.1474 21.4138 41.8361 20.7853C39.0171 20.0187 35.5435 20.0689 32.8314 19.1766C28.5295 17.7564 28.9971 16.2607 32.297 14.4634ZM28.8234 54.4183C27.8882 54.3052 27.2202 53.5134 27.3538 52.6713C27.474 51.8292 28.3424 51.2385 29.2776 51.3516C31.4954 51.6282 33.5528 51.5653 35.3564 51.0626C36.9997 50.6101 38.4426 49.8183 39.6317 48.6117C40.2596 47.9708 41.3418 47.9205 42.0498 48.4986C42.7579 49.0642 42.8247 50.0445 42.1968 50.6855C40.5669 52.332 38.5896 53.4254 36.3585 54.0413C34.0605 54.6697 31.5088 54.7702 28.8234 54.4309V54.4183ZM56.4653 26.6422C56.1447 25.6744 56.7593 24.6564 57.8281 24.3673C58.8969 24.0908 60.0325 24.6438 60.3531 25.6242C62.0766 30.84 63.0385 36.3701 61.5288 41.7368C59.0438 50.5347 52.6577 57.4724 43.6397 60.8533C39.0438 62.5752 33.9002 63.3167 28.6096 62.7889C24.0538 62.3364 19.8187 61.0042 16.1046 59.0058C12.2569 56.932 8.95698 54.1293 6.44529 50.8238C5.80401 49.9817 6.03113 48.8505 6.95297 48.2724C7.87481 47.7068 9.14402 47.9205 9.77194 48.75C11.963 51.6156 14.822 54.0413 18.1621 55.8511C21.3685 57.5856 25.0425 58.7293 29.0104 59.1315C33.633 59.5839 38.0953 58.9555 42.0632 57.4599C49.8655 54.5314 55.4366 48.4106 57.5876 40.7942C57.6544 40.5554 57.7212 40.3292 57.7746 40.0904C56.5054 40.5051 55.0625 40.5303 53.5662 40.2412C51.963 39.9396 50.2663 39.286 48.6497 38.3811C45.4299 36.5838 42.3438 33.7308 40.6604 30.6641C36.2382 35.792 27.6343 40.4423 19.7786 42.2521C16.6524 42.9685 13.6063 43.2576 10.9343 42.956C8.00842 42.6418 5.51008 41.6489 3.77328 39.8264C1.07455 37.0111 0.339744 32.3734 2.89151 25.3602C4.61496 20.6471 7.8481 16.6503 12.0164 13.6339C16.2916 10.5421 21.5555 8.49345 27.14 7.78963C28.2489 7.65137 29.2776 8.3552 29.4379 9.36067C29.5983 10.3661 28.8367 11.2962 27.7279 11.4345C22.8648 12.0503 18.2823 13.835 14.5548 16.5121C10.9743 19.0886 8.20882 22.5072 6.73921 26.5291C4.69512 32.122 5.05584 35.5783 6.83273 37.4384C7.86145 38.5193 9.4513 39.11 11.3751 39.3111C13.5395 39.5499 16.0912 39.2986 18.7633 38.6827C27.7813 36.6215 37.788 30.6389 39.4446 25.1089C39.6985 24.2668 40.5936 23.6886 41.5822 23.7766C42.6911 23.8772 43.5194 24.7695 43.4259 25.775C43.1186 29.0553 46.8194 33.0521 50.7739 35.2515C52.0164 35.9428 53.2589 36.433 54.3678 36.6466C55.2763 36.8226 56.0645 36.7975 56.6257 36.5335C59.1106 35.3647 57.1333 28.5903 56.4921 26.6171L56.4653 26.6422ZM48.0351 18.3094C50.5335 16.9017 49.6784 13.9481 46.8862 12.6536C44.9222 11.7361 42.5041 11.3465 40.7005 12.4525C35.8374 15.4563 43.1854 21.0241 48.0351 18.3094Z" fill="#21386A"/>
</svg>
