<svg width="28" height="28" viewBox="0 0 28 28" fill="none" xmlns="http://www.w3.org/2000/svg">
<rect x="3.5" y="4.6665" width="21" height="19.8333" rx="4" fill="#6483CC"/>
<path d="M18.6862 2.3335H9.27117C7.43152 2.33566 5.66785 3.0675 4.36713 4.36844C3.0664 5.66938 2.33486 7.43317 2.33301 9.27283L2.33301 18.6878C2.33517 20.5275 3.06701 22.2912 4.36795 23.5919C5.66889 24.8926 7.43269 25.6241 9.27234 25.626H18.6873C20.527 25.6238 22.2907 24.892 23.5914 23.5911C24.8921 22.2901 25.6237 20.5263 25.6255 18.6867V9.27166C25.6233 7.43201 24.8915 5.66834 23.5906 4.36761C22.2896 3.06689 20.5258 2.33535 18.6862 2.3335V2.3335ZM23.2828 18.6867C23.2828 19.2903 23.1639 19.888 22.9329 20.4457C22.7019 21.0034 22.3633 21.5102 21.9365 21.937C21.5097 22.3638 21.0029 22.7024 20.4452 22.9334C19.8875 23.1644 19.2898 23.2833 18.6862 23.2833H9.27117C8.05226 23.283 6.88338 22.7986 6.02159 21.9366C5.1598 21.0746 4.67567 19.9056 4.67567 18.6867V9.27166C4.67598 8.05275 5.16041 6.88387 6.02242 6.02208C6.88443 5.16029 8.05343 4.67616 9.27234 4.67616H18.6873C19.9062 4.67647 21.0751 5.1609 21.9369 6.02291C22.7987 6.88492 23.2828 8.05392 23.2828 9.27283V18.6878V18.6867Z" fill="#6483CC"/>
<path d="M13.9794 7.95557C12.3827 7.95804 10.8522 8.59348 9.72325 9.72261C8.59434 10.8517 7.95919 12.3824 7.95703 13.9791C7.95888 15.5761 8.59406 17.1073 9.72325 18.2367C10.8524 19.3661 12.3835 20.0016 13.9805 20.0037C15.5778 20.0019 17.1091 19.3665 18.2386 18.2371C19.368 17.1077 20.0033 15.5763 20.0052 13.9791C20.0027 12.382 19.367 10.8511 18.2373 9.72213C17.1077 8.59315 15.5764 7.95828 13.9794 7.95673V7.95557ZM13.9794 17.6611C13.0031 17.6611 12.0669 17.2733 11.3766 16.583C10.6863 15.8927 10.2985 14.9565 10.2985 13.9802C10.2985 13.004 10.6863 12.0678 11.3766 11.3775C12.0669 10.6872 13.0031 10.2994 13.9794 10.2994C14.9556 10.2994 15.8918 10.6872 16.5821 11.3775C17.2724 12.0678 17.6602 13.004 17.6602 13.9802C17.6602 14.9565 17.2724 15.8927 16.5821 16.583C15.8918 17.2733 14.9556 17.6611 13.9794 17.6611Z" fill="white"/>
<path d="M20.0154 9.44395C20.8125 9.44395 21.4586 8.79782 21.4586 8.00078C21.4586 7.20374 20.8125 6.55762 20.0154 6.55762C19.2184 6.55762 18.5723 7.20374 18.5723 8.00078C18.5723 8.79782 19.2184 9.44395 20.0154 9.44395Z" fill="white"/>
</svg>
