<svg width="20" height="20" viewBox="0 0 20 20" fill="none" xmlns="http://www.w3.org/2000/svg">
<path opacity="0.4" d="M14.6171 7.34154C15.9794 7.34154 17.0837 6.23717 17.0837 4.87487C17.0837 3.51257 15.9794 2.4082 14.6171 2.4082C13.2548 2.4082 12.1504 3.51257 12.1504 4.87487C12.1504 6.23717 13.2548 7.34154 14.6171 7.34154Z" fill="white"/>
<path d="M5.38268 7.34154C6.74498 7.34154 7.84935 6.23717 7.84935 4.87487C7.84935 3.51257 6.74498 2.4082 5.38268 2.4082C4.02038 2.4082 2.91602 3.51257 2.91602 4.87487C2.91602 6.23717 4.02038 7.34154 5.38268 7.34154Z" fill="white"/>
<path d="M14.6171 17.5915C15.9794 17.5915 17.0837 16.4872 17.0837 15.1249C17.0837 13.7626 15.9794 12.6582 14.6171 12.6582C13.2548 12.6582 12.1504 13.7626 12.1504 15.1249C12.1504 16.4872 13.2548 17.5915 14.6171 17.5915Z" fill="white"/>
<path opacity="0.4" d="M5.38268 17.5915C6.74498 17.5915 7.84935 16.4872 7.84935 15.1249C7.84935 13.7626 6.74498 12.6582 5.38268 12.6582C4.02038 12.6582 2.91602 13.7626 2.91602 15.1249C2.91602 16.4872 4.02038 17.5915 5.38268 17.5915Z" fill="white"/>
</svg>
