<svg width="20" height="21" viewBox="0 0 20 21" fill="none" xmlns="http://www.w3.org/2000/svg">
<path d="M8.0166 13.8333L9.2666 15.0833L11.9749 12.5833" fill="currentColor"/>
<path d="M8.0166 13.8333L9.2666 15.0833L11.9749 12.5833" stroke="currentColor" stroke-width="1.5" stroke-linecap="round" stroke-linejoin="round"/>
<path d="M7.34186 2.16675L4.3252 5.19175" stroke="currentColor" stroke-width="1.5" stroke-miterlimit="10" stroke-linecap="round" stroke-linejoin="round"/>
<path d="M12.6582 2.16675L15.6749 5.19175" stroke="currentColor" stroke-width="1.5" stroke-miterlimit="10" stroke-linecap="round" stroke-linejoin="round"/>
<path d="M1.66699 7.04167C1.66699 5.5 2.49199 5.375 3.51699 5.375H16.4837C17.5087 5.375 18.3337 5.5 18.3337 7.04167C18.3337 8.83333 17.5087 8.70833 16.4837 8.70833H3.51699C2.49199 8.70833 1.66699 8.83333 1.66699 7.04167Z" stroke="currentColor" stroke-width="1.5"/>
<path d="M2.91699 8.83325L4.09199 16.0333C4.35866 17.6499 5.00033 18.8333 7.38366 18.8333H12.4087C15.0003 18.8333 15.3837 17.6999 15.6837 16.1333L17.0837 8.83325" stroke="currentColor" stroke-width="1.5" stroke-linecap="round"/>
</svg>
