<svg width="20" height="20" viewBox="0 0 20 20" fill="none" xmlns="http://www.w3.org/2000/svg">
<path opacity="0.4" d="M17.8243 6.50704V6.50841V13.4917C17.8243 14.909 17.4038 15.9802 16.6875 16.6965C15.9711 17.4129 14.8999 17.8334 13.4827 17.8334H6.50768C5.09046 17.8334 4.01944 17.4129 3.30312 16.6957C2.58674 15.9784 2.16602 14.9052 2.16602 13.4834V6.50841C2.16602 5.09118 2.58653 4.02001 3.3029 3.30363C4.01928 2.58726 5.09045 2.16675 6.50768 2.16675H13.491C14.9083 2.16675 15.9793 2.5873 16.6945 3.30341C17.4096 4.01942 17.8282 5.09013 17.8243 6.50704Z" fill="white" stroke="white"/>
<path d="M13.4917 9.87492H14.6988L13.8452 9.02137L11.3369 6.51303C11.3154 6.4915 11.3021 6.46077 11.3021 6.42492C11.3021 6.38907 11.3154 6.35833 11.3369 6.33681L10.9932 5.99316L11.3369 6.33681C11.3584 6.31528 11.3891 6.302 11.425 6.302C11.4609 6.302 11.4916 6.31528 11.5131 6.33681L15.0881 9.91181C15.1121 9.93577 15.125 9.96737 15.125 9.99992C15.125 10.0325 15.1121 10.0641 15.0881 10.088L11.5131 13.663C11.4984 13.6777 11.4844 13.6862 11.4715 13.6913C11.4582 13.6967 11.4427 13.6999 11.425 13.6999C11.4073 13.6999 11.3918 13.6967 11.3785 13.6913C11.3656 13.6862 11.3516 13.6777 11.3369 13.663C11.3154 13.6415 11.3021 13.6108 11.3021 13.5749C11.3021 13.5391 11.3154 13.5083 11.3369 13.4868L13.8452 10.9785L14.6988 10.1249H13.4917H5C4.96985 10.1249 4.93857 10.1126 4.91293 10.087C4.88728 10.0613 4.875 10.0301 4.875 9.99992C4.875 9.96977 4.88728 9.93849 4.91293 9.91285C4.93857 9.8872 4.96985 9.87492 5 9.87492H13.4917Z" fill="#292D32" stroke="white"/>
</svg>
