<svg width="20" height="20" viewBox="0 0 20 20" fill="none" xmlns="http://www.w3.org/2000/svg">
<path opacity="0.4" d="M16.0327 4.64997H15.6993L12.8827 1.8333C12.6577 1.6083 12.291 1.6083 12.0577 1.8333C11.8327 2.0583 11.8327 2.42497 12.0577 2.6583L14.0493 4.64997H5.94935L7.94102 2.6583C8.16602 2.4333 8.16602 2.06663 7.94102 1.8333C7.71602 1.6083 7.34935 1.6083 7.11602 1.8333L4.30768 4.64997H3.97435C3.22435 4.64997 1.66602 4.64997 1.66602 6.7833C1.66602 7.59163 1.83268 8.12497 2.18268 8.47497C2.38268 8.6833 2.62435 8.79163 2.88268 8.84997C3.12435 8.9083 3.38268 8.91663 3.63268 8.91663H16.366C16.6243 8.91663 16.866 8.89997 17.0993 8.84997C17.7994 8.6833 18.3327 8.1833 18.3327 6.7833C18.3327 4.64997 16.7743 4.64997 16.0327 4.64997Z" fill="white"/>
<path d="M16.3745 8.91676H3.63281C3.38281 8.91676 3.12448 8.90843 2.88281 8.8501L3.93281 15.2501C4.16615 16.6834 4.79115 18.3334 7.56615 18.3334H12.2411C15.0495 18.3334 15.5495 16.9251 15.8495 15.3501L17.1078 8.8501C16.8745 8.9001 16.6245 8.91676 16.3745 8.91676ZM8.84115 14.3001C8.84115 14.6251 8.58281 14.8834 8.25781 14.8834C7.93281 14.8834 7.67448 14.6251 7.67448 14.3001V11.5501C7.67448 11.2251 7.93281 10.9668 8.25781 10.9668C8.58281 10.9668 8.84115 11.2251 8.84115 11.5501V14.3001ZM12.4078 14.3001C12.4078 14.6251 12.1495 14.8834 11.8245 14.8834C11.4995 14.8834 11.2411 14.6251 11.2411 14.3001V11.5501C11.2411 11.2251 11.4995 10.9668 11.8245 10.9668C12.1495 10.9668 12.4078 11.2251 12.4078 11.5501V14.3001Z" fill="white"/>
</svg>
