<svg width="20" height="20" viewBox="0 0 20 20" fill="none" xmlns="http://www.w3.org/2000/svg">
<path opacity="0.4" d="M16.0337 4.64997H15.7003L12.8837 1.8333C12.6587 1.6083 12.292 1.6083 12.0587 1.8333C11.8337 2.0583 11.8337 2.42497 12.0587 2.6583L14.0503 4.64997H5.95033L7.94199 2.6583C8.16699 2.4333 8.16699 2.06663 7.94199 1.8333C7.71699 1.6083 7.35033 1.6083 7.11699 1.8333L4.30866 4.64997H3.97533C3.22533 4.64997 1.66699 4.64997 1.66699 6.7833C1.66699 7.59163 1.83366 8.12497 2.18366 8.47497C2.38366 8.6833 2.62533 8.79163 2.88366 8.84997C3.12533 8.9083 3.38366 8.91663 3.63366 8.91663H16.367C16.6253 8.91663 16.867 8.89997 17.1003 8.84997C17.8003 8.6833 18.3337 8.1833 18.3337 6.7833C18.3337 4.64997 16.7753 4.64997 16.0337 4.64997Z" fill="#6483CC"/>
<path d="M16.3755 8.91676H3.63379C3.38379 8.91676 3.12546 8.90843 2.88379 8.8501L3.93379 15.2501C4.16712 16.6834 4.79212 18.3334 7.56712 18.3334H12.2421C15.0505 18.3334 15.5505 16.9251 15.8505 15.3501L17.1088 8.8501C16.8755 8.9001 16.6255 8.91676 16.3755 8.91676ZM8.84212 14.3001C8.84212 14.6251 8.58379 14.8834 8.25879 14.8834C7.93379 14.8834 7.67546 14.6251 7.67546 14.3001V11.5501C7.67546 11.2251 7.93379 10.9668 8.25879 10.9668C8.58379 10.9668 8.84212 11.2251 8.84212 11.5501V14.3001ZM12.4088 14.3001C12.4088 14.6251 12.1505 14.8834 11.8255 14.8834C11.5005 14.8834 11.2421 14.6251 11.2421 14.3001V11.5501C11.2421 11.2251 11.5005 10.9668 11.8255 10.9668C12.1505 10.9668 12.4088 11.2251 12.4088 11.5501V14.3001Z" fill="currentColor"/>
</svg>
