<svg width="37" height="37" viewBox="0 0 37 37" fill="none" xmlns="http://www.w3.org/2000/svg">
<path opacity="0.4" d="M3.08268 18.4999C3.08268 27.0143 9.98496 33.9166 18.4993 33.9166C27.0137 33.9166 33.916 27.0143 33.916 18.4999C33.916 9.98553 27.0137 3.08325 18.4993 3.08325C9.98496 3.08325 3.08268 9.98553 3.08268 18.4999Z" fill="white"/>
<path d="M11.9009 20.4424C11.9009 20.1495 12.0089 19.8565 12.2401 19.6253L17.6822 14.1832C18.1293 13.7361 18.8693 13.7361 19.3164 14.1832L24.7584 19.6253C25.2055 20.0724 25.2055 20.8124 24.7584 21.2595C24.3114 21.7065 23.5714 21.7065 23.1243 21.2595L18.4993 16.6345L13.8743 21.2595C13.4272 21.7065 12.6872 21.7065 12.2401 21.2595C12.0089 21.0436 11.9009 20.7507 11.9009 20.4424Z" fill="white"/>
</svg>
