<svg width="28" height="28" viewBox="0 0 28 28" fill="none" xmlns="http://www.w3.org/2000/svg">
<path d="M25.6663 6.89145C24.7918 7.27339 23.8655 7.52382 22.9177 7.63461C23.9126 7.05039 24.6607 6.1239 25.0223 5.02828C24.0797 5.577 23.0515 5.96348 21.9808 6.17161C21.53 5.69935 20.9876 5.3239 20.3869 5.06816C19.7861 4.81241 19.1396 4.68174 18.4867 4.68411C15.843 4.68411 13.6998 6.79578 13.6998 9.39745C13.6998 9.76611 13.7418 10.1266 13.8235 10.4708C11.9272 10.3806 10.0705 9.89609 8.37187 9.04819C6.67326 8.2003 5.17006 7.00762 3.95817 5.54628C3.5333 6.26308 3.30999 7.08136 3.31184 7.91461C3.31265 8.69391 3.50764 9.46072 3.87918 10.1457C4.25072 10.8308 4.7871 11.4124 5.43984 11.8381C4.68091 11.8136 3.93837 11.611 3.27217 11.2466V11.3049C3.27217 13.5893 4.92301 15.4944 7.11051 15.9284C6.69939 16.0375 6.27585 16.0928 5.85051 16.0929C5.54134 16.0929 5.24151 16.0638 4.94867 16.0054C5.26144 16.948 5.85997 17.7698 6.66113 18.3567C7.46229 18.9435 8.42633 19.2664 9.41934 19.2803C7.71609 20.5923 5.62513 21.301 3.47517 21.2951C3.08784 21.2951 2.70751 21.2718 2.33301 21.2298C4.5278 22.6189 7.0727 23.3546 9.67017 23.3508C18.475 23.3508 23.2887 16.1676 23.2887 9.93878L23.2723 9.32861C24.2113 8.6679 25.0225 7.8421 25.6663 6.89145Z" fill="#6483CC"/>
</svg>
