<svg width="25" height="24" viewBox="0 0 25 24" fill="none" xmlns="http://www.w3.org/2000/svg">
<path opacity="0.4" d="M12.5 22C18.0228 22 22.5 17.5228 22.5 12C22.5 6.47715 18.0228 2 12.5 2C6.97715 2 2.5 6.47715 2.5 12C2.5 17.5228 6.97715 22 12.5 22Z" fill="#B8CAF5"/>
<path d="M11.2397 16.2799C11.0497 16.2799 10.8597 16.2099 10.7097 16.0599C10.4197 15.7699 10.4197 15.2899 10.7097 14.9999L13.7097 11.9999L10.7097 8.99991C10.4197 8.70991 10.4197 8.22991 10.7097 7.93991C10.9997 7.64991 11.4797 7.64991 11.7697 7.93991L15.2997 11.4699C15.5897 11.7599 15.5897 12.2399 15.2997 12.5299L11.7697 16.0599C11.6197 16.2099 11.4297 16.2799 11.2397 16.2799Z" fill="#6483CC"/>
</svg>
