<svg width="64" height="64" viewBox="0 0 64 64" fill="none" xmlns="http://www.w3.org/2000/svg">
<path opacity="0.4" d="M58.1673 32.0002C58.1673 46.4516 46.4521 58.1668 32.0007 58.1668C17.5492 58.1668 5.83398 46.4516 5.83398 32.0002C5.83398 17.5487 17.5492 5.8335 32.0007 5.8335C46.4521 5.8335 58.1673 17.5487 58.1673 32.0002Z" fill="white" stroke="white"/>
<path d="M36.506 31.0002H38.9202L37.2131 29.2931L32.6265 24.7064C32.2436 24.3236 32.2436 23.6768 32.6265 23.2939C33.0093 22.9111 33.6561 22.9111 34.0389 23.2939L42.0389 31.2939C42.4217 31.6768 42.4217 32.3236 42.0389 32.7064L34.0389 40.7064C33.8363 40.909 33.5884 41.0002 33.3327 41.0002C33.0769 41.0002 32.829 40.909 32.6265 40.7064C32.2436 40.3236 32.2436 39.6768 32.6265 39.2939L37.2131 34.7073L38.9202 33.0002H36.506H22.666C22.125 33.0002 21.666 32.5412 21.666 32.0002C21.666 31.4591 22.125 31.0002 22.666 31.0002H36.506Z" fill="currentColor" stroke="currentColor" stroke-width="2"/>
</svg>
