<svg width="48" height="48" viewBox="0 0 48 48" fill="none" xmlns="http://www.w3.org/2000/svg">
<path opacity="0.4" d="M6.99961 45.5999H40.9996C41.7996 45.5999 42.5996 44.9999 42.5996 43.9999C42.5996 42.9999 41.9996 42.3999 40.9996 42.3999H6.99961C6.19961 42.3999 5.39961 42.9999 5.39961 43.9999C5.39961 44.9999 6.19961 45.5999 6.99961 45.5999Z" fill="white"/>
<path d="M9.99921 36.3998C10.3992 36.3998 10.7992 36.1998 10.9992 35.9998L38.9992 7.9998C39.5992 7.3998 39.5992 6.5998 38.9992 5.9998C38.3992 5.3998 37.3992 5.3998 36.7992 5.9998L8.79921 33.9998C8.19921 34.5998 8.19921 35.5998 8.79921 36.1998C9.19921 36.3998 9.59921 36.3998 9.99921 36.3998Z" fill="white"/>
<path d="M37.9996 28.9999C38.7996 28.9999 39.5996 28.3999 39.5996 27.3999V6.9999C39.5996 6.1999 38.9996 5.3999 37.9996 5.3999H17.3996C16.5996 5.3999 15.7996 5.9999 15.7996 6.9999C15.7996 7.9999 16.3996 8.5999 17.3996 8.5999H36.3996V27.5999C36.3996 28.3999 37.1996 28.9999 37.9996 28.9999Z" fill="white"/>
</svg>
