<svg width="28" height="28" viewBox="0 0 28 28" fill="none" xmlns="http://www.w3.org/2000/svg">
<path d="M20.7803 5.85322H7.16884C4.49717 5.85322 2.33301 7.99405 2.33301 10.6354V17.3647C2.33301 20.0061 4.49834 22.1481 7.16884 22.1481H20.7803C23.452 22.1481 25.6162 20.0061 25.6162 17.3647V10.6354C25.6162 7.99405 23.4508 5.85205 20.7803 5.85205V5.85322ZM17.5102 14.3267L11.1437 17.3309C11.1048 17.3496 11.0619 17.3582 11.0189 17.3558C10.9758 17.3534 10.9341 17.3402 10.8975 17.3174C10.861 17.2946 10.8308 17.2629 10.8098 17.2253C10.7888 17.1876 10.7776 17.1453 10.7773 17.1022V10.9084C10.7781 10.8651 10.7898 10.8227 10.8114 10.7851C10.833 10.7475 10.8638 10.7161 10.9008 10.6936C10.9378 10.6711 10.98 10.6584 11.0232 10.6565C11.0665 10.6547 11.1096 10.6639 11.1483 10.6832L17.516 13.8741C17.5584 13.8952 17.594 13.9279 17.6187 13.9683C17.6434 14.0088 17.6561 14.0554 17.6555 14.1028C17.6549 14.1502 17.6409 14.1964 17.6152 14.2363C17.5895 14.2761 17.5531 14.3078 17.5102 14.3279V14.3267Z" fill="#6483CC"/>
</svg>
