<svg width="20" height="21" viewBox="0 0 20 21" fill="none" xmlns="http://www.w3.org/2000/svg">
<path opacity="0.4" d="M14.167 15.8582H10.8337L7.12532 18.3249C6.57532 18.6916 5.83366 18.2999 5.83366 17.6332V15.8582C3.33366 15.8582 1.66699 14.1916 1.66699 11.6916V6.69157C1.66699 4.19157 3.33366 2.5249 5.83366 2.5249H14.167C16.667 2.5249 18.3337 4.19157 18.3337 6.69157V11.6916C18.3337 14.1916 16.667 15.8582 14.167 15.8582Z" fill="#6483CC"/>
<path d="M9.99952 10.5918C9.65786 10.5918 9.37452 10.3085 9.37452 9.9668V9.79183C9.37452 8.82516 10.0828 8.35015 10.3495 8.16682C10.6578 7.95849 10.7578 7.81683 10.7578 7.60016C10.7578 7.18349 10.4162 6.8418 9.99952 6.8418C9.58286 6.8418 9.24121 7.18349 9.24121 7.60016C9.24121 7.94183 8.95788 8.22516 8.61621 8.22516C8.27454 8.22516 7.99121 7.94183 7.99121 7.60016C7.99121 6.49183 8.89119 5.5918 9.99952 5.5918C11.1079 5.5918 12.0078 6.49183 12.0078 7.60016C12.0078 8.55016 11.3079 9.02514 11.0495 9.20014C10.7245 9.41681 10.6245 9.5585 10.6245 9.79183V9.9668C10.6245 10.3168 10.3412 10.5918 9.99952 10.5918Z" fill="#6483CC"/>
<path d="M10 12.6665C9.65 12.6665 9.375 12.3832 9.375 12.0415C9.375 11.6998 9.65833 11.4165 10 11.4165C10.3417 11.4165 10.625 11.6998 10.625 12.0415C10.625 12.3832 10.35 12.6665 10 12.6665Z" fill="#6483CC"/>
</svg>
