<svg width="25" height="24" viewBox="0 0 25 24" fill="none" xmlns="http://www.w3.org/2000/svg">
<path opacity="0.4" d="M12.5 22C18.0228 22 22.5 17.5228 22.5 12C22.5 6.47715 18.0228 2 12.5 2C6.97715 2 2.5 6.47715 2.5 12C2.5 17.5228 6.97715 22 12.5 22Z" fill="#A1E44D"/>
<path d="M14.0632 12.3535L14.4168 11.9999L14.0632 11.6464L11.0632 8.64636C10.9685 8.55162 10.9685 8.3882 11.0632 8.29347C11.158 8.19873 11.3214 8.19873 11.4161 8.29347L14.9461 11.8235C15.0409 11.9182 15.0409 12.0816 14.9461 12.1764L11.4161 15.7064C11.3648 15.7577 11.3042 15.7799 11.2397 15.7799C11.1751 15.7799 11.1145 15.7577 11.0632 15.7064C10.9685 15.6116 10.9685 15.4482 11.0632 15.3535L14.0632 12.3535Z" fill="#A1E44D" stroke="#8EC748"/>
</svg>
